{
.appVersion = "1192";
DisplayStrings = (
"/Ccaron"
);
classes = (
{
code = "dollar percent ampersand A O a i n o sterling yen Scedilla scedilla Tcedilla tcedilla perthousand Euro";
name = aalt1;
},
{
code = "dollar.smcp percent.smcp ampersand.smcp ordfeminine ordmasculine ordfeminine i.loclTRK nsuperior ordmasculine sterling.smcp yen.smcp Scommaaccent scommaaccent uni021A uni021B perthousand.smcp Euro.smcp";
name = aalt2;
},
{
code = "zero one two three four five six seven eight nine zero.osf one.osf two.osf three.osf four.osf five.osf six.osf seven.osf eight.osf nine.osf";
name = aalt3;
},
{

glyphs = (
{
glyphname = A;
lastChange = "2016-09-23 08:41:16 +0000";
layers = (
{
layerId = UUID0;
paths = (
{
closed = 1;
nodes = (
"259 659 LINE SMOOTH",
"276 659 OFFCURVE",
"290 652 OFFCURVE",
"301 637 CURVE SMOOTH",
"312 622 OFFCURVE",
"327 592 OFFCURVE",
"345 546 CURVE SMOOTH",
"387 437 OFFCURVE",
"428 267 OFFCURVE",
"468 35 CURVE SMOOTH",
"469 30 OFFCURVE",
"473 -1 OFFCURVE",
"432 -1 CURVE SMOOTH",
"421 -1 OFFCURVE",
"411 2 OFFCURVE",
"403 7 CURVE SMOOTH",
"395 13 OFFCURVE",
"390 22 OFFCURVE",
"387 35 CURVE SMOOTH",
"372 112 LINE SMOOTH",
"356 197 OFFCURVE",
"345 241 OFFCURVE",
"340 244 CURVE SMOOTH",
"332 249 OFFCURVE",
"305 254 OFFCURVE",
"260 259 CURVE SMOOTH",
"215 264 OFFCURVE",
"186 267 OFFCURVE",
"171 267 CURVE SMOOTH",
"156 267 OFFCURVE",
"148 266 OFFCURVE",
"145 263 CURVE SMOOTH",
"133 252 OFFCURVE",
"117 171 OFFCURVE",
"96 20 CURVE",
"93 7 OFFCURVE",
"81 1 OFFCURVE",
"58 1 CURVE SMOOTH",
"35 1 OFFCURVE",
"24 11 OFFCURVE",
"24 30 CURVE SMOOTH",
"24 78 OFFCURVE",
"42 170 OFFCURVE",
"77 305 CURVE SMOOTH",
"112 440 OFFCURVE",
"142 530 OFFCURVE",
"165 574 CURVE SMOOTH",
"194 631 OFFCURVE",
"226 659 OFFCURVE",
"259 659 CURVE SMOOTH"
);
},
{
closed = 1;
nodes = (
"255 548 LINE SMOOTH",
"245 548 OFFCURVE",
"228 518 OFFCURVE",
"203 459 CURVE SMOOTH",
"178 400 OFFCURVE",
"166 364 OFFCURVE",
"166 350 CURVE SMOOTH",
"166 347 OFFCURVE",
"167 344 OFFCURVE",
"168 343 CURVE SMOOTH",
"173 338 OFFCURVE",
"194 333 OFFCURVE",
"231 329 CURVE SMOOTH",
"304 321 OFFCURVE",
"321 322 OFFCURVE",
"324 325 CURVE SMOOTH",
"325 327 OFFCURVE",
"326 332 OFFCURVE",
"326 341 CURVE SMOOTH",
"326 350 OFFCURVE",
"317 387 OFFCURVE",
"299 451 CURVE SMOOTH",
"281 516 OFFCURVE",
"266 548 OFFCURVE",
"255 548 CURVE SMOOTH"
);
}
);
width = 488;
}
);
unicode = 0041;
},
{
glyphname = Aacute;
lastChange = "2016-09-23 08:41:16 +0000";
layers = (
{
layerId = UUID0;
paths = (
{
closed = 1;
nodes = (
"262 859 LINE SMOOTH",
"270 882 OFFCURVE",
"303 880 OFFCURVE",
"318 864 CURVE SMOOTH",
"334 848 OFFCURVE",
"331 839 OFFCURVE",
"328 832 CURVE SMOOTH",
"317 802 OFFCURVE",
"299 774 OFFCURVE",
"274 747 CURVE SMOOTH",
"249 720 OFFCURVE",
"230 707 OFFCURVE",
"217 707 CURVE SMOOTH",
"179 707 OFFCURVE",
"163 743 OFFCURVE",
"192 766 CURVE SMOOTH",
"228 795 OFFCURVE",
"251 826 OFFCURVE",
"262 859 CURVE SMOOTH"
);
},
{
closed = 1;
nodes = (
"259 659 LINE SMOOTH",
"276 659 OFFCURVE",
"290 652 OFFCURVE",
"301 637 CURVE SMOOTH",
"312 622 OFFCURVE",
"327 592 OFFCURVE",
"345 546 CURVE SMOOTH",
"387 437 OFFCURVE",
"428 267 OFFCURVE",
"468 35 CURVE SMOOTH",
"469 30 OFFCURVE",
"473 -1 OFFCURVE",
"432 -1 CURVE SMOOTH",
"421 -1 OFFCURVE",
"411 2 OFFCURVE",
"403 7 CURVE SMOOTH",
"395 13 OFFCURVE",
"390 22 OFFCURVE",
"387 35 CURVE SMOOTH",
"372 112 LINE SMOOTH",
"356 197 OFFCURVE",
"345 241 OFFCURVE",
"340 244 CURVE SMOOTH",
"332 249 OFFCURVE",
"305 254 OFFCURVE",
"260 259 CURVE SMOOTH",
"215 264 OFFCURVE",
"186 267 OFFCURVE",
"171 267 CURVE SMOOTH",
"156 267 OFFCURVE",
"148 266 OFFCURVE",
"145 263 CURVE SMOOTH",
"133 252 OFFCURVE",
"117 171 OFFCURVE",
"96 20 CURVE",
"93 7 OFFCURVE",
"81 1 OFFCURVE",
"58 1 CURVE SMOOTH",
"35 1 OFFCURVE",
"24 11 OFFCURVE",
"24 30 CURVE SMOOTH",
"24 78 OFFCURVE",
"42 170 OFFCURVE",
"77 305 CURVE SMOOTH",
"112 440 OFFCURVE",
"142 530 OFFCURVE",
"165 574 CURVE SMOOTH",
"194 631 OFFCURVE",
"226 659 OFFCURVE",
"259 659 CURVE SMOOTH"
);
},
{
closed = 1;
nodes = (
"255 548 LINE SMOOTH",
"245 548 OFFCURVE",
"228 518 OFFCURVE",
"203 459 CURVE SMOOTH",
"178 400 OFFCURVE",
"166 364 OFFCURVE",
"166 350 CURVE SMOOTH",
"166 347 OFFCURVE",
"167 344 OFFCURVE",
"168 343 CURVE SMOOTH",
"173 338 OFFCURVE",
"194 333 OFFCURVE",
"231 329 CURVE SMOOTH",
"304 321 OFFCURVE",
"321 322 OFFCURVE",
"324 325 CURVE SMOOTH",
"325 327 OFFCURVE",
"326 332 OFFCURVE",
"326 341 CURVE SMOOTH",
"326 350 OFFCURVE",
"317 387 OFFCURVE",
"299 451 CURVE SMOOTH",
"281 516 OFFCURVE",
"266 548 OFFCURVE",
"255 548 CURVE SMOOTH"
);
}
);
width = 488;
}
);
unicode = 00C1;
},
{
glyphname = Abreve;
lastChange = "2016-09-23 08:41:16 +0000";
layers = (
{
layerId = UUID0;
paths = (
{
closed = 1;
nodes = (
"382 796 LINE",
"382 768 OFFCURVE",
"369 744 OFFCURVE",
"343 725 CURVE SMOOTH",
"318 706 OFFCURVE",
"289 696 OFFCURVE",
"256 696 CURVE SMOOTH",
"223 696 OFFCURVE",
"194 705 OFFCURVE",
"167 724 CURVE SMOOTH",
"141 743 OFFCURVE",
"128 767 OFFCURVE",
"128 797 CURVE SMOOTH",
"128 818 OFFCURVE",
"143 836 OFFCURVE",
"167 836 CURVE SMOOTH",
"179 836 OFFCURVE",
"188 829 OFFCURVE",
"195 815 CURVE SMOOTH",
"210 788 OFFCURVE",
"212 781 OFFCURVE",
"228 769 CURVE SMOOTH",
"236 764 OFFCURVE",
"246 761 OFFCURVE",
"259 761 CURVE SMOOTH",
"286 761 OFFCURVE",
"298 775 OFFCURVE",
"317 807 CURVE SMOOTH",
"348 856 OFFCURVE",
"384 824 OFFCURVE",
"382 796 CURVE"
);
},
{
closed = 1;
nodes = (
"259 659 LINE SMOOTH",
"276 659 OFFCURVE",
"290 652 OFFCURVE",
"301 637 CURVE SMOOTH",
"312 622 OFFCURVE",
"327 592 OFFCURVE",
"345 546 CURVE SMOOTH",
"387 437 OFFCURVE",
"428 267 OFFCURVE",
"468 35 CURVE SMOOTH",
"469 30 OFFCURVE",
"473 -1 OFFCURVE",
"432 -1 CURVE SMOOTH",
"421 -1 OFFCURVE",
"411 2 OFFCURVE",
"403 7 CURVE SMOOTH",
"395 13 OFFCURVE",
"390 22 OFFCURVE",
"387 35 CURVE SMOOTH",
"372 112 LINE SMOOTH",
"356 197 OFFCURVE",
"345 241 OFFCURVE",
"340 244 CURVE SMOOTH",
"332 249 OFFCURVE",
"305 254 OFFCURVE",
"260 259 CURVE SMOOTH",
"215 264 OFFCURVE",
"186 267 OFFCURVE",
"171 267 CURVE SMOOTH",
"156 267 OFFCURVE",
"148 266 OFFCURVE",
"145 263 CURVE SMOOTH",
"133 252 OFFCURVE",
"117 171 OFFCURVE",
"96 20 CURVE",
"93 7 OFFCURVE",
"81 1 OFFCURVE",
"58 1 CURVE SMOOTH",
"35 1 OFFCURVE",
"24 11 OFFCURVE",
"24 30 CURVE SMOOTH",
"24 78 OFFCURVE",
"42 170 OFFCURVE",
"77 305 CURVE SMOOTH",
"112 440 OFFCURVE",
"142 530 OFFCURVE",
"165 574 CURVE SMOOTH",
"194 631 OFFCURVE",
"226 659 OFFCURVE",
"259 659 CURVE SMOOTH"
);
},
{
closed = 1;
nodes = (
"255 548 LINE SMOOTH",
"245 548 OFFCURVE",
"228 518 OFFCURVE",
"203 459 CURVE SMOOTH",
"178 400 OFFCURVE",
"166 364 OFFCURVE",
"166 350 CURVE SMOOTH",
"166 347 OFFCURVE",
"167 344 OFFCURVE",
"168 343 CURVE SMOOTH",
"173 338 OFFCURVE",
"194 333 OFFCURVE",
"231 329 CURVE SMOOTH",
"304 321 OFFCURVE",
"321 322 OFFCURVE",
"324 325 CURVE SMOOTH",
"325 327 OFFCURVE",
"326 332 OFFCURVE",
"326 341 CURVE SMOOTH",
"326 350 OFFCURVE",
"317 387 OFFCURVE",
"299 451 CURVE SMOOTH",
"281 516 OFFCURVE",
"266 548 OFFCURVE",
"255 548 CURVE SMOOTH"
);
}
);
width = 488;
}
);
unicode = 0102;
},
{
glyphname = Abreveacute;
lastChange = "2016-09-23 08:41:16 +0000";
layers = (
{
layerId = UUID0;
paths = (
{
closed = 1;
nodes = (
"264 996 LINE SMOOTH",
"272 1019 OFFCURVE",
"305 1017 OFFCURVE",
"320 1001 CURVE SMOOTH",
"336 985 OFFCURVE",
"333 976 OFFCURVE",
"330 969 CURVE SMOOTH",
"319 939 OFFCURVE",
"301 911 OFFCURVE",
"276 884 CURVE SMOOTH",
"251 857 OFFCURVE",
"232 844 OFFCURVE",
"219 844 CURVE SMOOTH",
"180 844 OFFCURVE",
"165 879 OFFCURVE",
"194 904 CURVE SMOOTH",
"230 933 OFFCURVE",
"253 963 OFFCURVE",
"264 996 CURVE SMOOTH"
);
},
{
closed = 1;
nodes = (
"382 796 LINE",
"382 768 OFFCURVE",
"369 744 OFFCURVE",
"343 725 CURVE SMOOTH",
"318 706 OFFCURVE",
"289 696 OFFCURVE",
"256 696 CURVE SMOOTH",
"223 696 OFFCURVE",
"194 705 OFFCURVE",
"167 724 CURVE SMOOTH",
"141 743 OFFCURVE",
"128 767 OFFCURVE",
"128 797 CURVE SMOOTH",
"128 818 OFFCURVE",
"143 836 OFFCURVE",
"167 836 CURVE SMOOTH",
"179 836 OFFCURVE",
"188 829 OFFCURVE",
"195 815 CURVE SMOOTH",
"210 788 OFFCURVE",
"212 781 OFFCURVE",
"228 769 CURVE SMOOTH",
"236 764 OFFCURVE",
"246 761 OFFCURVE",
"259 761 CURVE SMOOTH",
"286 761 OFFCURVE",
"298 775 OFFCURVE",
"317 807 CURVE SMOOTH",
"348 856 OFFCURVE",
"384 824 OFFCURVE",
"382 796 CURVE"
);
},
{
closed = 1;
nodes = (
"259 659 LINE SMOOTH",
"276 659 OFFCURVE",
"290 652 OFFCURVE",
"301 637 CURVE SMOOTH",
"312 622 OFFCURVE",
"327 592 OFFCURVE",
"345 546 CURVE SMOOTH",
"387 437 OFFCURVE",
"428 267 OFFCURVE",
"468 35 CURVE SMOOTH",
"469 30 OFFCURVE",
"473 -1 OFFCURVE",
"432 -1 CURVE SMOOTH",
"421 -1 OFFCURVE",
"411 2 OFFCURVE",
"403 7 CURVE SMOOTH",
"395 13 OFFCURVE",
"390 22 OFFCURVE",
"387 35 CURVE SMOOTH",
"372 112 LINE SMOOTH",
"356 197 OFFCURVE",
"345 241 OFFCURVE",
"340 244 CURVE SMOOTH",
"332 249 OFFCURVE",
"305 254 OFFCURVE",
"260 259 CURVE SMOOTH",
"215 264 OFFCURVE",
"186 267 OFFCURVE",
"171 267 CURVE SMOOTH",
"156 267 OFFCURVE",
"148 266 OFFCURVE",
"145 263 CURVE SMOOTH",
"133 252 OFFCURVE",
"117 171 OFFCURVE",
"96 20 CURVE",
"93 7 OFFCURVE",
"81 1 OFFCURVE",
"58 1 CURVE SMOOTH",
"35 1 OFFCURVE",
"24 11 OFFCURVE",
"24 30 CURVE SMOOTH",
"24 78 OFFCURVE",
"42 170 OFFCURVE",
"77 305 CURVE SMOOTH",
"112 440 OFFCURVE",
"142 530 OFFCURVE",
"165 574 CURVE SMOOTH",
"194 631 OFFCURVE",
"226 659 OFFCURVE",
"259 659 CURVE SMOOTH"
);
},
{
closed = 1;
nodes = (
"255 548 LINE SMOOTH",
"245 548 OFFCURVE",
"228 518 OFFCURVE",
"203 459 CURVE SMOOTH",
"178 400 OFFCURVE",
"166 364 OFFCURVE",
"166 350 CURVE SMOOTH",
"166 347 OFFCURVE",
"167 344 OFFCURVE",
"168 343 CURVE SMOOTH",
"173 338 OFFCURVE",
"194 333 OFFCURVE",
"231 329 CURVE SMOOTH",
"304 321 OFFCURVE",
"321 322 OFFCURVE",
"324 325 CURVE SMOOTH",
"325 327 OFFCURVE",
"326 332 OFFCURVE",
"326 341 CURVE SMOOTH",
"326 350 OFFCURVE",
"317 387 OFFCURVE",
"299 451 CURVE SMOOTH",
"281 516 OFFCURVE",
"266 548 OFFCURVE",
"255 548 CURVE SMOOTH"
);
}
);
width = 488;
}
);
unicode = 1EAE;
},
{
glyphname = Abrevedotbelow;
lastChange = "2016-09-23 08:41:16 +0000";
layers = (
{
layerId = UUID0;
paths = (
{
closed = 1;
nodes = (
"382 796 LINE",
"382 768 OFFCURVE",
"369 744 OFFCURVE",
"343 725 CURVE SMOOTH",
"318 706 OFFCURVE",
"289 696 OFFCURVE",
"256 696 CURVE SMOOTH",
"223 696 OFFCURVE",
"194 705 OFFCURVE",
"167 724 CURVE SMOOTH",
"141 743 OFFCURVE",
"128 767 OFFCURVE",
"128 797 CURVE SMOOTH",
"128 818 OFFCURVE",
"143 836 OFFCURVE",
"167 836 CURVE SMOOTH",
"179 836 OFFCURVE",
"188 829 OFFCURVE",
"195 815 CURVE SMOOTH",
"210 788 OFFCURVE",
"212 781 OFFCURVE",
"228 769 CURVE SMOOTH",
"236 764 OFFCURVE",
"246 761 OFFCURVE",
"259 761 CURVE SMOOTH",
"286 761 OFFCURVE",
"298 775 OFFCURVE",
"317 807 CURVE SMOOTH",
"348 856 OFFCURVE",
"384 824 OFFCURVE",
"382 796 CURVE"
);
},
{
closed = 1;
nodes = (
"259 659 LINE SMOOTH",
"276 659 OFFCURVE",
"290 652 OFFCURVE",
"301 637 CURVE SMOOTH",
"312 622 OFFCURVE",
"327 592 OFFCURVE",
"345 546 CURVE SMOOTH",
"387 437 OFFCURVE",
"428 267 OFFCURVE",
"468 35 CURVE SMOOTH",
"469 30 OFFCURVE",
"473 -1 OFFCURVE",
"432 -1 CURVE SMOOTH",
"421 -1 OFFCURVE",
"411 2 OFFCURVE",
"403 7 CURVE SMOOTH",
"395 13 OFFCURVE",
"390 22 OFFCURVE",
"387 35 CURVE SMOOTH",
"372 112 LINE SMOOTH",
"356 197 OFFCURVE",
"345 241 OFFCURVE",
"340 244 CURVE SMOOTH",
"332 249 OFFCURVE",
"305 254 OFFCURVE",
"260 259 CURVE SMOOTH",
"215 264 OFFCURVE",
"186 267 OFFCURVE",
"171 267 CURVE SMOOTH",
"156 267 OFFCURVE",
"148 266 OFFCURVE",
"145 263 CURVE SMOOTH",
"133 252 OFFCURVE",
"117 171 OFFCURVE",
"96 20 CURVE",
"93 7 OFFCURVE",
"81 1 OFFCURVE",
"58 1 CURVE SMOOTH",
"35 1 OFFCURVE",
"24 11 OFFCURVE",
"24 30 CURVE SMOOTH",
"24 78 OFFCURVE",
"42 170 OFFCURVE",
"77 305 CURVE SMOOTH",
"112 440 OFFCURVE",
"142 530 OFFCURVE",
"165 574 CURVE SMOOTH",
"194 631 OFFCURVE",
"226 659 OFFCURVE",
"259 659 CURVE SMOOTH"
);
},
{
closed = 1;
nodes = (
"255 548 LINE SMOOTH",
"245 548 OFFCURVE",
"228 518 OFFCURVE",
"203 459 CURVE SMOOTH",
"178 400 OFFCURVE",
"166 364 OFFCURVE",
"166 350 CURVE SMOOTH",
"166 347 OFFCURVE",
"167 344 OFFCURVE",
"168 343 CURVE SMOOTH",
"173 338 OFFCURVE",
"194 333 OFFCURVE",
"231 329 CURVE SMOOTH",
"304 321 OFFCURVE",
"321 322 OFFCURVE",
"324 325 CURVE SMOOTH",
"325 327 OFFCURVE",
"326 332 OFFCURVE",
"326 341 CURVE SMOOTH",
"326 350 OFFCURVE",
"317 387 OFFCURVE",
"299 451 CURVE SMOOTH",
"281 516 OFFCURVE",
"266 548 OFFCURVE",
"255 548 CURVE SMOOTH"
);
},
{
closed = 1;
nodes = (
"204 -79 LINE",
"207 -64 OFFCURVE",
"211 -52 OFFCURVE",
"218 -45 CURVE",
"241 -14 OFFCURVE",
"301 -42 OFFCURVE",
"298 -79 CURVE",
"298 -103 OFFCURVE",
"273 -131 OFFCURVE",
"249 -131 CURVE SMOOTH",
"226 -131 OFFCURVE",
"207 -111 OFFCURVE",
"204 -79 CURVE"
);
}
);
width = 488;
}
);
unicode = 1EB6;
},
{
glyphname = Abrevegrave;
lastChange = "2016-09-23 08:41:16 +0000";
layers = (
{
layerId = UUID0;
paths = (
{
closed = 1;
nodes = (
"331 847 LINE",
"319 828 OFFCURVE",
"301 830 OFFCURVE",
"276 843 CURVE SMOOTH",
"264 850 OFFCURVE",
"249 862 OFFCURVE",
"230 880 CURVE SMOOTH",
"212 898 OFFCURVE",
"198 915 OFFCURVE",
"189 932 CURVE SMOOTH",
"172 967 OFFCURVE",
"175 974 OFFCURVE",
"178 985 CURVE SMOOTH",
"185 1005 OFFCURVE",
"218 1010 OFFCURVE",
"221 1006 CURVE",
"231 1003 OFFCURVE",
"245 987 OFFCURVE",
"262 958 CURVE SMOOTH",
"279 929 OFFCURVE",
"298 910 OFFCURVE",
"319 899 CURVE SMOOTH",
"340 888 OFFCURVE",
"342 858 OFFCURVE",
"331 847 CURVE"
);
},
{
closed = 1;
nodes = (
"382 796 LINE",
"382 768 OFFCURVE",
"369 744 OFFCURVE",
"343 725 CURVE SMOOTH",
"318 706 OFFCURVE",
"289 696 OFFCURVE",
"256 696 CURVE SMOOTH",
"223 696 OFFCURVE",
"194 705 OFFCURVE",
"167 724 CURVE SMOOTH",
"141 743 OFFCURVE",
"128 767 OFFCURVE",
"128 797 CURVE SMOOTH",
"128 818 OFFCURVE",
"143 836 OFFCURVE",
"167 836 CURVE SMOOTH",
"179 836 OFFCURVE",
"188 829 OFFCURVE",
"195 815 CURVE SMOOTH",
"210 788 OFFCURVE",
"212 781 OFFCURVE",
"228 769 CURVE SMOOTH",
"236 764 OFFCURVE",
"246 761 OFFCURVE",
"259 761 CURVE SMOOTH",
"286 761 OFFCURVE",
"298 775 OFFCURVE",
"317 807 CURVE SMOOTH",
"348 856 OFFCURVE",
"384 824 OFFCURVE",
"382 796 CURVE"
);
},
{
closed = 1;
nodes = (
"259 659 LINE SMOOTH",
"276 659 OFFCURVE",
"290 652 OFFCURVE",
"301 637 CURVE SMOOTH",
"312 622 OFFCURVE",
"327 592 OFFCURVE",
"345 546 CURVE SMOOTH",
"387 437 OFFCURVE",
"428 267 OFFCURVE",
"468 35 CURVE SMOOTH",
"469 30 OFFCURVE",
"473 -1 OFFCURVE",
"432 -1 CURVE SMOOTH",
"421 -1 OFFCURVE",
"411 2 OFFCURVE",
"403 7 CURVE SMOOTH",
"395 13 OFFCURVE",
"390 22 OFFCURVE",
"387 35 CURVE SMOOTH",
"372 112 LINE SMOOTH",
"356 197 OFFCURVE",
"345 241 OFFCURVE",
"340 244 CURVE SMOOTH",
"332 249 OFFCURVE",
"305 254 OFFCURVE",
"260 259 CURVE SMOOTH",
"215 264 OFFCURVE",
"186 267 OFFCURVE",
"171 267 CURVE SMOOTH",
"156 267 OFFCURVE",
"148 266 OFFCURVE",
"145 263 CURVE SMOOTH",
"133 252 OFFCURVE",
"117 171 OFFCURVE",
"96 20 CURVE",
"93 7 OFFCURVE",
"81 1 OFFCURVE",
"58 1 CURVE SMOOTH",
"35 1 OFFCURVE",
"24 11 OFFCURVE",
"24 30 CURVE SMOOTH",
"24 78 OFFCURVE",
"42 170 OFFCURVE",
"77 305 CURVE SMOOTH",
"112 440 OFFCURVE",
"142 530 OFFCURVE",
"165 574 CURVE SMOOTH",
"194 631 OFFCURVE",
"226 659 OFFCURVE",
"259 659 CURVE SMOOTH"
);
},
{
closed = 1;
nodes = (
"255 548 LINE SMOOTH",
"245 548 OFFCURVE",
"228 518 OFFCURVE",
"203 459 CURVE SMOOTH",
"178 400 OFFCURVE",
"166 364 OFFCURVE",
"166 350 CURVE SMOOTH",
"166 347 OFFCURVE",
"167 344 OFFCURVE",
"168 343 CURVE SMOOTH",
"173 338 OFFCURVE",
"194 333 OFFCURVE",
"231 329 CURVE SMOOTH",
"304 321 OFFCURVE",
"321 322 OFFCURVE",
"324 325 CURVE SMOOTH",
"325 327 OFFCURVE",
"326 332 OFFCURVE",
"326 341 CURVE SMOOTH",
"326 350 OFFCURVE",
"317 387 OFFCURVE",
"299 451 CURVE SMOOTH",
"281 516 OFFCURVE",
"266 548 OFFCURVE",
"255 548 CURVE SMOOTH"
);
}
);
width = 488;
}
);
unicode = 1EB0;
},
{
glyphname = Abrevehookabove;
lastChange = "2016-09-23 08:41:16 +0000";
layers = (
{
layerId = UUID0;
paths = (
{
closed = 1;
nodes = (
"260 995 LINE SMOOTH",
"282 995 OFFCURVE",
"299 988 OFFCURVE",
"311 974 CURVE SMOOTH",
"323 961 OFFCURVE",
"329 949 OFFCURVE",
"329 940 CURVE SMOOTH",
"329 931 OFFCURVE",
"328 924 OFFCURVE",
"326 919 CURVE SMOOTH",
"324 914 OFFCURVE",
"313 894 OFFCURVE",
"293 860 CURVE SMOOTH",
"280 840 OFFCURVE",
"268 830 OFFCURVE",
"255 830 CURVE SMOOTH",
"251 830 OFFCURVE",
"247 831 OFFCURVE",
"244 832 CURVE SMOOTH",
"235 835 OFFCURVE",
"232 842 OFFCURVE",
"234 851 CURVE SMOOTH",
"241 890 OFFCURVE",
"299 935 OFFCURVE",
"259 944 CURVE",
"248 944 OFFCURVE",
"245 937 OFFCURVE",
"240 929 CURVE SMOOTH",
"235 919 OFFCURVE",
"219 900 OFFCURVE",
"199 922 CURVE",
"194 929 OFFCURVE",
"192 937 OFFCURVE",
"194 948 CURVE SMOOTH",
"198 969 OFFCURVE",
"226 995 OFFCURVE",
"257 995 CURVE SMOOTH"
);
},
{
closed = 1;
nodes = (
"382 796 LINE",
"382 768 OFFCURVE",
"369 744 OFFCURVE",
"343 725 CURVE SMOOTH",
"318 706 OFFCURVE",
"289 696 OFFCURVE",
"256 696 CURVE SMOOTH",
"223 696 OFFCURVE",
"194 705 OFFCURVE",
"167 724 CURVE SMOOTH",
"141 743 OFFCURVE",
"128 767 OFFCURVE",
"128 797 CURVE SMOOTH",
"128 818 OFFCURVE",
"143 836 OFFCURVE",
"167 836 CURVE SMOOTH",
"179 836 OFFCURVE",
"188 829 OFFCURVE",
"195 815 CURVE SMOOTH",
"210 788 OFFCURVE",
"212 781 OFFCURVE",
"228 769 CURVE SMOOTH",
"236 764 OFFCURVE",
"246 761 OFFCURVE",
"259 761 CURVE SMOOTH",
"286 761 OFFCURVE",
"298 775 OFFCURVE",
"317 807 CURVE SMOOTH",
"348 856 OFFCURVE",
"384 824 OFFCURVE",
"382 796 CURVE"
);
},
{
closed = 1;
nodes = (
"259 659 LINE SMOOTH",
"276 659 OFFCURVE",
"290 652 OFFCURVE",
"301 637 CURVE SMOOTH",
"312 622 OFFCURVE",
"327 592 OFFCURVE",
"345 546 CURVE SMOOTH",
"387 437 OFFCURVE",
"428 267 OFFCURVE",
"468 35 CURVE SMOOTH",
"469 30 OFFCURVE",
"473 -1 OFFCURVE",
"432 -1 CURVE SMOOTH",
"421 -1 OFFCURVE",
"411 2 OFFCURVE",
"403 7 CURVE SMOOTH",
"395 13 OFFCURVE",
"390 22 OFFCURVE",
"387 35 CURVE SMOOTH",
"372 112 LINE SMOOTH",
"356 197 OFFCURVE",
"345 241 OFFCURVE",
"340 244 CURVE SMOOTH",
"332 249 OFFCURVE",
"305 254 OFFCURVE",
"260 259 CURVE SMOOTH",
"215 264 OFFCURVE",
"186 267 OFFCURVE",
"171 267 CURVE SMOOTH",
"156 267 OFFCURVE",
"148 266 OFFCURVE",
"145 263 CURVE SMOOTH",
"133 252 OFFCURVE",
"117 171 OFFCURVE",
"96 20 CURVE",
"93 7 OFFCURVE",
"81 1 OFFCURVE",
"58 1 CURVE SMOOTH",
"35 1 OFFCURVE",
"24 11 OFFCURVE",
"24 30 CURVE SMOOTH",
"24 78 OFFCURVE",
"42 170 OFFCURVE",
"77 305 CURVE SMOOTH",
"112 440 OFFCURVE",
"142 530 OFFCURVE",
"165 574 CURVE SMOOTH",
"194 631 OFFCURVE",
"226 659 OFFCURVE",
"259 659 CURVE SMOOTH"
);
},
{
closed = 1;
nodes = (
"255 548 LINE SMOOTH",
"245 548 OFFCURVE",
"228 518 OFFCURVE",
"203 459 CURVE SMOOTH",
"178 400 OFFCURVE",
"166 364 OFFCURVE",
"166 350 CURVE SMOOTH",
"166 347 OFFCURVE",
"167 344 OFFCURVE",
"168 343 CURVE SMOOTH",
"173 338 OFFCURVE",
"194 333 OFFCURVE",
"231 329 CURVE SMOOTH",
"304 321 OFFCURVE",
"321 322 OFFCURVE",
"324 325 CURVE SMOOTH",
"325 327 OFFCURVE",
"326 332 OFFCURVE",
"326 341 CURVE SMOOTH",
"326 350 OFFCURVE",
"317 387 OFFCURVE",
"299 451 CURVE SMOOTH",
"281 516 OFFCURVE",
"266 548 OFFCURVE",
"255 548 CURVE SMOOTH"
);
}
);
width = 488;
}
);
unicode = 1EB2;
},
{
glyphname = Abrevetilde;
lastChange = "2016-09-23 08:41:16 +0000";
layers = (
{
layerId = UUID0;
paths = (
{
closed = 1;
nodes = (
"272 940 LINE SMOOTH",
"293 905 OFFCURVE",
"309 906 OFFCURVE",
"329 938 CURVE SMOOTH",
"360 985 OFFCURVE",
"392 951 OFFCURVE",
"392 925 CURVE SMOOTH",
"392 901 OFFCURVE",
"382 883 OFFCURVE",
"362 870 CURVE SMOOTH",
"343 857 OFFCURVE",
"324 851 OFFCURVE",
"305 851 CURVE SMOOTH",
"250 851 OFFCURVE",
"241 897 OFFCURVE",
"213 897 CURVE SMOOTH",
"209 897 OFFCURVE",
"201 889 OFFCURVE",
"188 874 CURVE SMOOTH",
"175 859 OFFCURVE",
"165 852 OFFCURVE",
"156 852 CURVE SMOOTH",
"139 852 OFFCURVE",
"122 870 OFFCURVE",
"122 897 CURVE SMOOTH",
"122 911 OFFCURVE",
"132 926 OFFCURVE",
"151 942 CURVE SMOOTH",
"171 958 OFFCURVE",
"190 966 OFFCURVE",
"207 966 CURVE SMOOTH",
"243 966 OFFCURVE",
"264 953 OFFCURVE",
"272 940 CURVE SMOOTH"
);
},
{
closed = 1;
nodes = (
"382 796 LINE",
"382 768 OFFCURVE",
"369 744 OFFCURVE",
"343 725 CURVE SMOOTH",
"318 706 OFFCURVE",
"289 696 OFFCURVE",
"256 696 CURVE SMOOTH",
"223 696 OFFCURVE",
"194 705 OFFCURVE",
"167 724 CURVE SMOOTH",
"141 743 OFFCURVE",
"128 767 OFFCURVE",
"128 797 CURVE SMOOTH",
"128 818 OFFCURVE",
"143 836 OFFCURVE",
"167 836 CURVE SMOOTH",
"179 836 OFFCURVE",
"188 829 OFFCURVE",
"195 815 CURVE SMOOTH",
"210 788 OFFCURVE",
"212 781 OFFCURVE",
"228 769 CURVE SMOOTH",
"236 764 OFFCURVE",
"246 761 OFFCURVE",
"259 761 CURVE SMOOTH",
"286 761 OFFCURVE",
"298 775 OFFCURVE",
"317 807 CURVE SMOOTH",
"348 856 OFFCURVE",
"384 824 OFFCURVE",
"382 796 CURVE"
);
},
{
closed = 1;
nodes = (
"259 659 LINE SMOOTH",
"276 659 OFFCURVE",
"290 652 OFFCURVE",
"301 637 CURVE SMOOTH",
"312 622 OFFCURVE",
"327 592 OFFCURVE",
"345 546 CURVE SMOOTH",
"387 437 OFFCURVE",
"428 267 OFFCURVE",
"468 35 CURVE SMOOTH",
"469 30 OFFCURVE",
"473 -1 OFFCURVE",
"432 -1 CURVE SMOOTH",
"421 -1 OFFCURVE",
"411 2 OFFCURVE",
"403 7 CURVE SMOOTH",
"395 13 OFFCURVE",
"390 22 OFFCURVE",
"387 35 CURVE SMOOTH",
"372 112 LINE SMOOTH",
"356 197 OFFCURVE",
"345 241 OFFCURVE",
"340 244 CURVE SMOOTH",
"332 249 OFFCURVE",
"305 254 OFFCURVE",
"260 259 CURVE SMOOTH",
"215 264 OFFCURVE",
"186 267 OFFCURVE",
"171 267 CURVE SMOOTH",
"156 267 OFFCURVE",
"148 266 OFFCURVE",
"145 263 CURVE SMOOTH",
"133 252 OFFCURVE",
"117 171 OFFCURVE",
"96 20 CURVE",
"93 7 OFFCURVE",
"81 1 OFFCURVE",
"58 1 CURVE SMOOTH",
"35 1 OFFCURVE",
"24 11 OFFCURVE",
"24 30 CURVE SMOOTH",
"24 78 OFFCURVE",
"42 170 OFFCURVE",
"77 305 CURVE SMOOTH",
"112 440 OFFCURVE",
"142 530 OFFCURVE",
"165 574 CURVE SMOOTH",
"194 631 OFFCURVE",
"226 659 OFFCURVE",
"259 659 CURVE SMOOTH"
);
},
{
closed = 1;
nodes = (
"255 548 LINE SMOOTH",
"245 548 OFFCURVE",
"228 518 OFFCURVE",
"203 459 CURVE SMOOTH",
"178 400 OFFCURVE",
"166 364 OFFCURVE",
"166 350 CURVE SMOOTH",
"166 347 OFFCURVE",
"167 344 OFFCURVE",
"168 343 CURVE SMOOTH",
"173 338 OFFCURVE",
"194 333 OFFCURVE",
"231 329 CURVE SMOOTH",
"304 321 OFFCURVE",
"321 322 OFFCURVE",
"324 325 CURVE SMOOTH",
"325 327 OFFCURVE",
"326 332 OFFCURVE",
"326 341 CURVE SMOOTH",
"326 350 OFFCURVE",
"317 387 OFFCURVE",
"299 451 CURVE SMOOTH",
"281 516 OFFCURVE",
"266 548 OFFCURVE",
"255 548 CURVE SMOOTH"
);
}
);
width = 488;
}
);
unicode = 1EB4;
},
{
glyphname = Acaron;
lastChange = "2016-09-23 08:41:16 +0000";
layers = (
{
layerId = UUID0;
paths = (
{
closed = 1;
nodes = (
"344 849 LINE SMOOTH",
"365 849 OFFCURVE",
"379 830 OFFCURVE",
"378 809 CURVE SMOOTH",
"378 799 OFFCURVE",
"361 781 OFFCURVE",
"326 756 CURVE SMOOTH",
"291 731 OFFCURVE",
"267 718 OFFCURVE",
"253 718 CURVE SMOOTH",
"238 718 OFFCURVE",
"214 731 OFFCURVE",
"182 757 CURVE SMOOTH",
"150 784 OFFCURVE",
"134 805 OFFCURVE",
"134 820 CURVE SMOOTH",
"134 839 OFFCURVE",
"156 854 OFFCURVE",
"169 853 CURVE SMOOTH",
"176 853 OFFCURVE",
"189 845 OFFCURVE",
"209 830 CURVE SMOOTH",
"230 815 OFFCURVE",
"246 800 OFFCURVE",
"257 786 CURVE",
"299 828 OFFCURVE",
"328 849 OFFCURVE",
"344 849 CURVE SMOOTH"
);
},
{
closed = 1;
nodes = (
"259 659 LINE SMOOTH",
"276 659 OFFCURVE",
"290 652 OFFCURVE",
"301 637 CURVE SMOOTH",
"312 622 OFFCURVE",
"327 592 OFFCURVE",
"345 546 CURVE SMOOTH",
"387 437 OFFCURVE",
"428 267 OFFCURVE",
"468 35 CURVE SMOOTH",
"469 30 OFFCURVE",
"473 -1 OFFCURVE",
"432 -1 CURVE SMOOTH",
"421 -1 OFFCURVE",
"411 2 OFFCURVE",
"403 7 CURVE SMOOTH",
"395 13 OFFCURVE",
"390 22 OFFCURVE",
"387 35 CURVE SMOOTH",
"372 112 LINE SMOOTH",
"356 197 OFFCURVE",
"345 241 OFFCURVE",
"340 244 CURVE SMOOTH",
"332 249 OFFCURVE",
"305 254 OFFCURVE",
"260 259 CURVE SMOOTH",
"215 264 OFFCURVE",
"186 267 OFFCURVE",
"171 267 CURVE SMOOTH",
"156 267 OFFCURVE",
"148 266 OFFCURVE",
"145 263 CURVE SMOOTH",
"133 252 OFFCURVE",
"117 171 OFFCURVE",
"96 20 CURVE",
"93 7 OFFCURVE",
"81 1 OFFCURVE",
"58 1 CURVE SMOOTH",
"35 1 OFFCURVE",
"24 11 OFFCURVE",
"24 30 CURVE SMOOTH",
"24 78 OFFCURVE",
"42 170 OFFCURVE",
"77 305 CURVE SMOOTH",
"112 440 OFFCURVE",
"142 530 OFFCURVE",
"165 574 CURVE SMOOTH",
"194 631 OFFCURVE",
"226 659 OFFCURVE",
"259 659 CURVE SMOOTH"
);
},
{
closed = 1;
nodes = (
"255 548 LINE SMOOTH",
"245 548 OFFCURVE",
"228 518 OFFCURVE",
"203 459 CURVE SMOOTH",
"178 400 OFFCURVE",
"166 364 OFFCURVE",
"166 350 CURVE SMOOTH",
"166 347 OFFCURVE",
"167 344 OFFCURVE",
"168 343 CURVE SMOOTH",
"173 338 OFFCURVE",
"194 333 OFFCURVE",
"231 329 CURVE SMOOTH",
"304 321 OFFCURVE",
"321 322 OFFCURVE",
"324 325 CURVE SMOOTH",
"325 327 OFFCURVE",
"326 332 OFFCURVE",
"326 341 CURVE SMOOTH",
"326 350 OFFCURVE",
"317 387 OFFCURVE",
"299 451 CURVE SMOOTH",
"281 516 OFFCURVE",
"266 548 OFFCURVE",
"255 548 CURVE SMOOTH"
);
}
);
width = 488;
}
);
unicode = 01CD;
},
{
glyphname = Acircumflex;
lastChange = "2016-09-23 08:41:16 +0000";
layers = (
{
layerId = UUID0;
paths = (
{
closed = 1;
nodes = (
"380 753 LINE SMOOTH",
"380 744 OFFCURVE",
"376 736 OFFCURVE",
"368 729 CURVE SMOOTH",
"360 722 OFFCURVE",
"353 719 OFFCURVE",
"348 719 CURVE SMOOTH",
"343 719 OFFCURVE",
"328 730 OFFCURVE",
"304 751 CURVE SMOOTH",
"280 772 OFFCURVE",
"265 783 OFFCURVE",
"258 783 CURVE SMOOTH",
"252 783 OFFCURVE",
"238 772 OFFCURVE",
"215 750 CURVE SMOOTH",
"193 728 OFFCURVE",
"177 717 OFFCURVE",
"168 717 CURVE SMOOTH",
"159 717 OFFCURVE",
"151 721 OFFCURVE",
"144 728 CURVE",
"138 736 OFFCURVE",
"135 745 OFFCURVE",
"135 755 CURVE SMOOTH",
"135 766 OFFCURVE",
"152 784 OFFCURVE",
"186 811 CURVE SMOOTH",
"220 838 OFFCURVE",
"244 851 OFFCURVE",
"259 851 CURVE SMOOTH",
"274 851 OFFCURVE",
"298 838 OFFCURVE",
"331 813 CURVE SMOOTH",
"364 788 OFFCURVE",
"380 768 OFFCURVE",
"380 753 CURVE SMOOTH"
);
},
{
closed = 1;
nodes = (
"259 659 LINE SMOOTH",
"276 659 OFFCURVE",
"290 652 OFFCURVE",
"301 637 CURVE SMOOTH",
"312 622 OFFCURVE",
"327 592 OFFCURVE",
"345 546 CURVE SMOOTH",
"387 437 OFFCURVE",
"428 267 OFFCURVE",
"468 35 CURVE SMOOTH",
"469 30 OFFCURVE",
"473 -1 OFFCURVE",
"432 -1 CURVE SMOOTH",
"421 -1 OFFCURVE",
"411 2 OFFCURVE",
"403 7 CURVE SMOOTH",
"395 13 OFFCURVE",
"390 22 OFFCURVE",
"387 35 CURVE SMOOTH",
"372 112 LINE SMOOTH",
"356 197 OFFCURVE",
"345 241 OFFCURVE",
"340 244 CURVE SMOOTH",
"332 249 OFFCURVE",
"305 254 OFFCURVE",
"260 259 CURVE SMOOTH",
"215 264 OFFCURVE",
"186 267 OFFCURVE",
"171 267 CURVE SMOOTH",
"156 267 OFFCURVE",
"148 266 OFFCURVE",
"145 263 CURVE SMOOTH",
"133 252 OFFCURVE",
"117 171 OFFCURVE",
"96 20 CURVE",
"93 7 OFFCURVE",
"81 1 OFFCURVE",
"58 1 CURVE SMOOTH",
"35 1 OFFCURVE",
"24 11 OFFCURVE",
"24 30 CURVE SMOOTH",
"24 78 OFFCURVE",
"42 170 OFFCURVE",
"77 305 CURVE SMOOTH",
"112 440 OFFCURVE",
"142 530 OFFCURVE",
"165 574 CURVE SMOOTH",
"194 631 OFFCURVE",
"226 659 OFFCURVE",
"259 659 CURVE SMOOTH"
);
},
{
closed = 1;
nodes = (
"255 548 LINE SMOOTH",
"245 548 OFFCURVE",
"228 518 OFFCURVE",
"203 459 CURVE SMOOTH",
"178 400 OFFCURVE",
"166 364 OFFCURVE",
"166 350 CURVE SMOOTH",
"166 347 OFFCURVE",
"167 344 OFFCURVE",
"168 343 CURVE SMOOTH",
"173 338 OFFCURVE",
"194 333 OFFCURVE",
"231 329 CURVE SMOOTH",
"304 321 OFFCURVE",
"321 322 OFFCURVE",
"324 325 CURVE SMOOTH",
"325 327 OFFCURVE",
"326 332 OFFCURVE",
"326 341 CURVE SMOOTH",
"326 350 OFFCURVE",
"317 387 OFFCURVE",
"299 451 CURVE SMOOTH",
"281 516 OFFCURVE",
"266 548 OFFCURVE",
"255 548 CURVE SMOOTH"
);
}
);
width = 488;
}
);
unicode = 00C2;
},
{
glyphname = Acircumflexacute;
lastChange = "2016-09-23 08:41:16 +0000";
layers = (
{
layerId = UUID0;
paths = (
{
closed = 1;
nodes = (
"423 965 LINE SMOOTH",
"431 988 OFFCURVE",
"464 986 OFFCURVE",
"479 970 CURVE SMOOTH",
"495 954 OFFCURVE",
"492 945 OFFCURVE",
"489 938 CURVE SMOOTH",
"478 908 OFFCURVE",
"460 880 OFFCURVE",
"435 853 CURVE SMOOTH",
"410 826 OFFCURVE",
"391 813 OFFCURVE",
"378 813 CURVE SMOOTH",
"340 813 OFFCURVE",
"323 849 OFFCURVE",
"354 872 CURVE",
"389 901 OFFCURVE",
"412 932 OFFCURVE",
"423 965 CURVE SMOOTH"
);
},
{
closed = 1;
nodes = (
"380 753 LINE SMOOTH",
"380 744 OFFCURVE",
"376 736 OFFCURVE",
"368 729 CURVE SMOOTH",
"360 722 OFFCURVE",
"353 719 OFFCURVE",
"348 719 CURVE SMOOTH",
"343 719 OFFCURVE",
"328 730 OFFCURVE",
"304 751 CURVE SMOOTH",
"280 772 OFFCURVE",
"265 783 OFFCURVE",
"258 783 CURVE SMOOTH",
"252 783 OFFCURVE",
"238 772 OFFCURVE",
"215 750 CURVE SMOOTH",
"193 728 OFFCURVE",
"177 717 OFFCURVE",
"168 717 CURVE SMOOTH",
"159 717 OFFCURVE",
"151 721 OFFCURVE",
"144 728 CURVE",
"138 736 OFFCURVE",
"135 745 OFFCURVE",
"135 755 CURVE SMOOTH",
"135 766 OFFCURVE",
"152 784 OFFCURVE",
"186 811 CURVE SMOOTH",
"220 838 OFFCURVE",
"244 851 OFFCURVE",
"259 851 CURVE SMOOTH",
"274 851 OFFCURVE",
"298 838 OFFCURVE",
"331 813 CURVE SMOOTH",
"364 788 OFFCURVE",
"380 768 OFFCURVE",
"380 753 CURVE SMOOTH"
);
},
{
closed = 1;
nodes = (
"259 659 LINE SMOOTH",
"276 659 OFFCURVE",
"290 652 OFFCURVE",
"301 637 CURVE SMOOTH",
"312 622 OFFCURVE",
"327 592 OFFCURVE",
"345 546 CURVE SMOOTH",
"387 437 OFFCURVE",
"428 267 OFFCURVE",
"468 35 CURVE SMOOTH",
"469 30 OFFCURVE",
"473 -1 OFFCURVE",
"432 -1 CURVE SMOOTH",
"421 -1 OFFCURVE",
"411 2 OFFCURVE",
"403 7 CURVE SMOOTH",
"395 13 OFFCURVE",
"390 22 OFFCURVE",
"387 35 CURVE SMOOTH",
"372 112 LINE SMOOTH",
"356 197 OFFCURVE",
"345 241 OFFCURVE",
"340 244 CURVE SMOOTH",
"332 249 OFFCURVE",
"305 254 OFFCURVE",
"260 259 CURVE SMOOTH",
"215 264 OFFCURVE",
"186 267 OFFCURVE",
"171 267 CURVE SMOOTH",
"156 267 OFFCURVE",
"148 266 OFFCURVE",
"145 263 CURVE SMOOTH",
"133 252 OFFCURVE",
"117 171 OFFCURVE",
"96 20 CURVE",
"93 7 OFFCURVE",
"81 1 OFFCURVE",
"58 1 CURVE SMOOTH",
"35 1 OFFCURVE",
"24 11 OFFCURVE",
"24 30 CURVE SMOOTH",
"24 78 OFFCURVE",
"42 170 OFFCURVE",
"77 305 CURVE SMOOTH",
"112 440 OFFCURVE",
"142 530 OFFCURVE",
"165 574 CURVE SMOOTH",
"194 631 OFFCURVE",
"226 659 OFFCURVE",
"259 659 CURVE SMOOTH"
);
},
{
closed = 1;
nodes = (
"255 548 LINE SMOOTH",
"245 548 OFFCURVE",
"228 518 OFFCURVE",
"203 459 CURVE SMOOTH",
"178 400 OFFCURVE",
"166 364 OFFCURVE",
"166 350 CURVE SMOOTH",
"166 347 OFFCURVE",
"167 344 OFFCURVE",
"168 343 CURVE SMOOTH",
"173 338 OFFCURVE",
"194 333 OFFCURVE",
"231 329 CURVE SMOOTH",
"304 321 OFFCURVE",
"321 322 OFFCURVE",
"324 325 CURVE SMOOTH",
"325 327 OFFCURVE",
"326 332 OFFCURVE",
"326 341 CURVE SMOOTH",
"326 350 OFFCURVE",
"317 387 OFFCURVE",
"299 451 CURVE SMOOTH",
"281 516 OFFCURVE",
"266 548 OFFCURVE",
"255 548 CURVE SMOOTH"
);
}
);
width = 488;
}
);
unicode = 1EA4;
},
{
glyphname = Acircumflexdotbelow;
lastChange = "2016-09-23 08:41:16 +0000";
layers = (
{
layerId = UUID0;
paths = (
{
closed = 1;
nodes = (
"380 753 LINE SMOOTH",
"380 744 OFFCURVE",
"376 736 OFFCURVE",
"368 729 CURVE SMOOTH",
"360 722 OFFCURVE",
"353 719 OFFCURVE",
"348 719 CURVE SMOOTH",
"343 719 OFFCURVE",
"328 730 OFFCURVE",
"304 751 CURVE SMOOTH",
"280 772 OFFCURVE",
"265 783 OFFCURVE",
"258 783 CURVE SMOOTH",
"252 783 OFFCURVE",
"238 772 OFFCURVE",
"215 750 CURVE SMOOTH",
"193 728 OFFCURVE",
"177 717 OFFCURVE",
"168 717 CURVE SMOOTH",
"159 717 OFFCURVE",
"151 721 OFFCURVE",
"144 728 CURVE",
"138 736 OFFCURVE",
"135 745 OFFCURVE",
"135 755 CURVE SMOOTH",
"135 766 OFFCURVE",
"152 784 OFFCURVE",
"186 811 CURVE SMOOTH",
"220 838 OFFCURVE",
"244 851 OFFCURVE",
"259 851 CURVE SMOOTH",
"274 851 OFFCURVE",
"298 838 OFFCURVE",
"331 813 CURVE SMOOTH",
"364 788 OFFCURVE",
"380 768 OFFCURVE",
"380 753 CURVE SMOOTH"
);
},
{
closed = 1;
nodes = (
"259 659 LINE SMOOTH",
"276 659 OFFCURVE",
"290 652 OFFCURVE",
"301 637 CURVE SMOOTH",
"312 622 OFFCURVE",
"327 592 OFFCURVE",
"345 546 CURVE SMOOTH",
"387 437 OFFCURVE",
"428 267 OFFCURVE",
"468 35 CURVE SMOOTH",
"469 30 OFFCURVE",
"473 -1 OFFCURVE",
"432 -1 CURVE SMOOTH",
"421 -1 OFFCURVE",
"411 2 OFFCURVE",
"403 7 CURVE SMOOTH",
"395 13 OFFCURVE",
"390 22 OFFCURVE",
"387 35 CURVE SMOOTH",
"372 112 LINE SMOOTH",
"356 197 OFFCURVE",
"345 241 OFFCURVE",
"340 244 CURVE SMOOTH",
"332 249 OFFCURVE",
"305 254 OFFCURVE",
"260 259 CURVE SMOOTH",
"215 264 OFFCURVE",
"186 267 OFFCURVE",
"171 267 CURVE SMOOTH",
"156 267 OFFCURVE",
"148 266 OFFCURVE",
"145 263 CURVE SMOOTH",
"133 252 OFFCURVE",
"117 171 OFFCURVE",
"96 20 CURVE",
"93 7 OFFCURVE",
"81 1 OFFCURVE",
"58 1 CURVE SMOOTH",
"35 1 OFFCURVE",
"24 11 OFFCURVE",
"24 30 CURVE SMOOTH",
"24 78 OFFCURVE",
"42 170 OFFCURVE",
"77 305 CURVE SMOOTH",
"112 440 OFFCURVE",
"142 530 OFFCURVE",
"165 574 CURVE SMOOTH",
"194 631 OFFCURVE",
"226 659 OFFCURVE",
"259 659 CURVE SMOOTH"
);
},
{
closed = 1;
nodes = (
"255 548 LINE SMOOTH",
"245 548 OFFCURVE",
"228 518 OFFCURVE",
"203 459 CURVE SMOOTH",
"178 400 OFFCURVE",
"166 364 OFFCURVE",
"166 350 CURVE SMOOTH",
"166 347 OFFCURVE",
"167 344 OFFCURVE",
"168 343 CURVE SMOOTH",
"173 338 OFFCURVE",
"194 333 OFFCURVE",
"231 329 CURVE SMOOTH",
"304 321 OFFCURVE",
"321 322 OFFCURVE",
"324 325 CURVE SMOOTH",
"325 327 OFFCURVE",
"326 332 OFFCURVE",
"326 341 CURVE SMOOTH",
"326 350 OFFCURVE",
"317 387 OFFCURVE",
"299 451 CURVE SMOOTH",
"281 516 OFFCURVE",
"266 548 OFFCURVE",
"255 548 CURVE SMOOTH"
);
},
{
closed = 1;
nodes = (
"204 -79 LINE",
"207 -64 OFFCURVE",
"211 -52 OFFCURVE",
"218 -45 CURVE",
"241 -14 OFFCURVE",
"301 -42 OFFCURVE",
"298 -79 CURVE",
"298 -103 OFFCURVE",
"273 -131 OFFCURVE",
"249 -131 CURVE SMOOTH",
"226 -131 OFFCURVE",
"207 -111 OFFCURVE",
"204 -79 CURVE"
);
}
);
width = 488;
}
);
unicode = 1EAC;
},
{
glyphname = Acircumflexgrave;
lastChange = "2016-09-23 08:41:16 +0000";
layers = (
{
layerId = UUID0;
paths = (
{
closed = 1;
nodes = (
"437 794 LINE",
"425 775 OFFCURVE",
"407 777 OFFCURVE",
"382 790 CURVE SMOOTH",
"370 797 OFFCURVE",
"355 809 OFFCURVE",
"336 827 CURVE SMOOTH",
"318 845 OFFCURVE",
"304 862 OFFCURVE",
"295 879 CURVE SMOOTH",
"278 914 OFFCURVE",
"281 921 OFFCURVE",
"284 932 CURVE SMOOTH",
"291 952 OFFCURVE",
"324 957 OFFCURVE",
"327 953 CURVE",
"337 950 OFFCURVE",
"351 934 OFFCURVE",
"368 905 CURVE SMOOTH",
"385 876 OFFCURVE",
"404 857 OFFCURVE",
"425 846 CURVE SMOOTH",
"446 835 OFFCURVE",
"448 805 OFFCURVE",
"437 794 CURVE"
);
},
{
closed = 1;
nodes = (
"380 753 LINE SMOOTH",
"380 744 OFFCURVE",
"376 736 OFFCURVE",
"368 729 CURVE SMOOTH",
"360 722 OFFCURVE",
"353 719 OFFCURVE",
"348 719 CURVE SMOOTH",
"343 719 OFFCURVE",
"328 730 OFFCURVE",
"304 751 CURVE SMOOTH",
"280 772 OFFCURVE",
"265 783 OFFCURVE",
"258 783 CURVE SMOOTH",
"252 783 OFFCURVE",
"238 772 OFFCURVE",
"215 750 CURVE SMOOTH",
"193 728 OFFCURVE",
"177 717 OFFCURVE",
"168 717 CURVE SMOOTH",
"159 717 OFFCURVE",
"151 721 OFFCURVE",
"144 728 CURVE",
"138 736 OFFCURVE",
"135 745 OFFCURVE",
"135 755 CURVE SMOOTH",
"135 766 OFFCURVE",
"152 784 OFFCURVE",
"186 811 CURVE SMOOTH",
"220 838 OFFCURVE",
"244 851 OFFCURVE",
"259 851 CURVE SMOOTH",
"274 851 OFFCURVE",
"298 838 OFFCURVE",
"331 813 CURVE SMOOTH",
"364 788 OFFCURVE",
"380 768 OFFCURVE",
"380 753 CURVE SMOOTH"
);
},
{
closed = 1;
nodes = (
"259 659 LINE SMOOTH",
"276 659 OFFCURVE",
"290 652 OFFCURVE",
"301 637 CURVE SMOOTH",
"312 622 OFFCURVE",
"327 592 OFFCURVE",
"345 546 CURVE SMOOTH",
"387 437 OFFCURVE",
"428 267 OFFCURVE",
"468 35 CURVE SMOOTH",
"469 30 OFFCURVE",
"473 -1 OFFCURVE",
"432 -1 CURVE SMOOTH",
"421 -1 OFFCURVE",
"411 2 OFFCURVE",
"403 7 CURVE SMOOTH",
"395 13 OFFCURVE",
"390 22 OFFCURVE",
"387 35 CURVE SMOOTH",
"372 112 LINE SMOOTH",
"356 197 OFFCURVE",
"345 241 OFFCURVE",
"340 244 CURVE SMOOTH",
"332 249 OFFCURVE",
"305 254 OFFCURVE",
"260 259 CURVE SMOOTH",
"215 264 OFFCURVE",
"186 267 OFFCURVE",
"171 267 CURVE SMOOTH",
"156 267 OFFCURVE",
"148 266 OFFCURVE",
"145 263 CURVE SMOOTH",
"133 252 OFFCURVE",
"117 171 OFFCURVE",
"96 20 CURVE",
"93 7 OFFCURVE",
"81 1 OFFCURVE",
"58 1 CURVE SMOOTH",
"35 1 OFFCURVE",
"24 11 OFFCURVE",
"24 30 CURVE SMOOTH",
"24 78 OFFCURVE",
"42 170 OFFCURVE",
"77 305 CURVE SMOOTH",
"112 440 OFFCURVE",
"142 530 OFFCURVE",
"165 574 CURVE SMOOTH",
"194 631 OFFCURVE",
"226 659 OFFCURVE",
"259 659 CURVE SMOOTH"
);
},
{
closed = 1;
nodes = (
"255 548 LINE SMOOTH",
"245 548 OFFCURVE",
"228 518 OFFCURVE",
"203 459 CURVE SMOOTH",
"178 400 OFFCURVE",
"166 364 OFFCURVE",
"166 350 CURVE SMOOTH",
"166 347 OFFCURVE",
"167 344 OFFCURVE",
"168 343 CURVE SMOOTH",
"173 338 OFFCURVE",
"194 333 OFFCURVE",
"231 329 CURVE SMOOTH",
"304 321 OFFCURVE",
"321 322 OFFCURVE",
"324 325 CURVE SMOOTH",
"325 327 OFFCURVE",
"326 332 OFFCURVE",
"326 341 CURVE SMOOTH",
"326 350 OFFCURVE",
"317 387 OFFCURVE",
"299 451 CURVE SMOOTH",
"281 516 OFFCURVE",
"266 548 OFFCURVE",
"255 548 CURVE SMOOTH"
);
}
);
width = 488;
}
);
unicode = 1EA6;
},
{
glyphname = Acircumflexhookabove;
lastChange = "2016-09-23 08:41:16 +0000";
layers = (
{
layerId = UUID0;
paths = (
{
closed = 1;
nodes = (
"369 983 LINE SMOOTH",
"391 983 OFFCURVE",
"408 976 OFFCURVE",
"420 962 CURVE SMOOTH",
"432 949 OFFCURVE",
"438 937 OFFCURVE",
"438 928 CURVE SMOOTH",
"438 919 OFFCURVE",
"437 912 OFFCURVE",
"435 907 CURVE SMOOTH",
"433 902 OFFCURVE",
"422 882 OFFCURVE",
"402 848 CURVE SMOOTH",
"389 828 OFFCURVE",
"377 818 OFFCURVE",
"364 818 CURVE SMOOTH",
"360 818 OFFCURVE",
"356 819 OFFCURVE",
"353 820 CURVE SMOOTH",
"344 823 OFFCURVE",
"341 830 OFFCURVE",
"342 839 CURVE",
"351 878 OFFCURVE",
"408 923 OFFCURVE",
"368 932 CURVE",
"357 932 OFFCURVE",
"354 925 OFFCURVE",
"349 917 CURVE",
"344 906 OFFCURVE",
"330 888 OFFCURVE",
"308 910 CURVE",
"303 917 OFFCURVE",
"301 925 OFFCURVE",
"303 936 CURVE SMOOTH",
"307 957 OFFCURVE",
"335 983 OFFCURVE",
"366 983 CURVE SMOOTH"
);
},
{
closed = 1;
nodes = (
"380 753 LINE SMOOTH",
"380 744 OFFCURVE",
"376 736 OFFCURVE",
"368 729 CURVE SMOOTH",
"360 722 OFFCURVE",
"353 719 OFFCURVE",
"348 719 CURVE SMOOTH",
"343 719 OFFCURVE",
"328 730 OFFCURVE",
"304 751 CURVE SMOOTH",
"280 772 OFFCURVE",
"265 783 OFFCURVE",
"258 783 CURVE SMOOTH",
"252 783 OFFCURVE",
"238 772 OFFCURVE",
"215 750 CURVE SMOOTH",
"193 728 OFFCURVE",
"177 717 OFFCURVE",
"168 717 CURVE SMOOTH",
"159 717 OFFCURVE",
"151 721 OFFCURVE",
"144 728 CURVE",
"138 736 OFFCURVE",
"135 745 OFFCURVE",
"135 755 CURVE SMOOTH",
"135 766 OFFCURVE",
"152 784 OFFCURVE",
"186 811 CURVE SMOOTH",
"220 838 OFFCURVE",
"244 851 OFFCURVE",
"259 851 CURVE SMOOTH",
"274 851 OFFCURVE",
"298 838 OFFCURVE",
"331 813 CURVE SMOOTH",
"364 788 OFFCURVE",
"380 768 OFFCURVE",
"380 753 CURVE SMOOTH"
);
},
{
closed = 1;
nodes = (
"259 659 LINE SMOOTH",
"276 659 OFFCURVE",
"290 652 OFFCURVE",
"301 637 CURVE SMOOTH",
"312 622 OFFCURVE",
"327 592 OFFCURVE",
"345 546 CURVE SMOOTH",
"387 437 OFFCURVE",
"428 267 OFFCURVE",
"468 35 CURVE SMOOTH",
"469 30 OFFCURVE",
"473 -1 OFFCURVE",
"432 -1 CURVE SMOOTH",
"421 -1 OFFCURVE",
"411 2 OFFCURVE",
"403 7 CURVE SMOOTH",
"395 13 OFFCURVE",
"390 22 OFFCURVE",
"387 35 CURVE SMOOTH",
"372 112 LINE SMOOTH",
"356 197 OFFCURVE",
"345 241 OFFCURVE",
"340 244 CURVE SMOOTH",
"332 249 OFFCURVE",
"305 254 OFFCURVE",
"260 259 CURVE SMOOTH",
"215 264 OFFCURVE",
"186 267 OFFCURVE",
"171 267 CURVE SMOOTH",
"156 267 OFFCURVE",
"148 266 OFFCURVE",
"145 263 CURVE SMOOTH",
"133 252 OFFCURVE",
"117 171 OFFCURVE",
"96 20 CURVE",
"93 7 OFFCURVE",
"81 1 OFFCURVE",
"58 1 CURVE SMOOTH",
"35 1 OFFCURVE",
"24 11 OFFCURVE",
"24 30 CURVE SMOOTH",
"24 78 OFFCURVE",
"42 170 OFFCURVE",
"77 305 CURVE SMOOTH",
"112 440 OFFCURVE",
"142 530 OFFCURVE",
"165 574 CURVE SMOOTH",
"194 631 OFFCURVE",
"226 659 OFFCURVE",
"259 659 CURVE SMOOTH"
);
},
{
closed = 1;
nodes = (
"255 548 LINE SMOOTH",
"245 548 OFFCURVE",
"228 518 OFFCURVE",
"203 459 CURVE SMOOTH",
"178 400 OFFCURVE",
"166 364 OFFCURVE",
"166 350 CURVE SMOOTH",
"166 347 OFFCURVE",
"167 344 OFFCURVE",
"168 343 CURVE SMOOTH",
"173 338 OFFCURVE",
"194 333 OFFCURVE",
"231 329 CURVE SMOOTH",
"304 321 OFFCURVE",
"321 322 OFFCURVE",
"324 325 CURVE SMOOTH",
"325 327 OFFCURVE",
"326 332 OFFCURVE",
"326 341 CURVE SMOOTH",
"326 350 OFFCURVE",
"317 387 OFFCURVE",
"299 451 CURVE SMOOTH",
"281 516 OFFCURVE",
"266 548 OFFCURVE",
"255 548 CURVE SMOOTH"
);
}
);
width = 488;
}
);
unicode = 1EA8;
},
{
glyphname = Acircumflextilde;
lastChange = "2016-09-23 08:41:16 +0000";
layers = (
{
layerId = UUID0;
paths = (
{
closed = 1;
nodes = (
"272 955 LINE SMOOTH",
"293 920 OFFCURVE",
"309 921 OFFCURVE",
"329 953 CURVE SMOOTH",
"360 1000 OFFCURVE",
"392 966 OFFCURVE",
"392 940 CURVE SMOOTH",
"392 916 OFFCURVE",
"382 898 OFFCURVE",
"362 885 CURVE SMOOTH",
"343 872 OFFCURVE",
"324 866 OFFCURVE",
"305 866 CURVE SMOOTH",
"250 866 OFFCURVE",
"241 912 OFFCURVE",
"213 912 CURVE SMOOTH",
"209 912 OFFCURVE",
"201 904 OFFCURVE",
"188 889 CURVE SMOOTH",
"175 874 OFFCURVE",
"165 867 OFFCURVE",
"156 867 CURVE SMOOTH",
"139 867 OFFCURVE",
"122 885 OFFCURVE",
"122 912 CURVE SMOOTH",
"122 926 OFFCURVE",
"132 941 OFFCURVE",
"151 957 CURVE SMOOTH",
"171 973 OFFCURVE",
"190 981 OFFCURVE",
"207 981 CURVE SMOOTH",
"243 981 OFFCURVE",
"264 968 OFFCURVE",
"272 955 CURVE SMOOTH"
);
},
{
closed = 1;
nodes = (
"380 753 LINE SMOOTH",
"380 744 OFFCURVE",
"376 736 OFFCURVE",
"368 729 CURVE SMOOTH",
"360 722 OFFCURVE",
"353 719 OFFCURVE",
"348 719 CURVE SMOOTH",
"343 719 OFFCURVE",
"328 730 OFFCURVE",
"304 751 CURVE SMOOTH",
"280 772 OFFCURVE",
"265 783 OFFCURVE",
"258 783 CURVE SMOOTH",
"252 783 OFFCURVE",
"238 772 OFFCURVE",
"215 750 CURVE SMOOTH",
"193 728 OFFCURVE",
"177 717 OFFCURVE",
"168 717 CURVE SMOOTH",
"159 717 OFFCURVE",
"151 721 OFFCURVE",
"144 728 CURVE",
"138 736 OFFCURVE",
"135 745 OFFCURVE",
"135 755 CURVE SMOOTH",
"135 766 OFFCURVE",
"152 784 OFFCURVE",
"186 811 CURVE SMOOTH",
"220 838 OFFCURVE",
"244 851 OFFCURVE",
"259 851 CURVE SMOOTH",
"274 851 OFFCURVE",
"298 838 OFFCURVE",
"331 813 CURVE SMOOTH",
"364 788 OFFCURVE",
"380 768 OFFCURVE",
"380 753 CURVE SMOOTH"
);
},
{
closed = 1;
nodes = (
"259 659 LINE SMOOTH",
"276 659 OFFCURVE",
"290 652 OFFCURVE",
"301 637 CURVE SMOOTH",
"312 622 OFFCURVE",
"327 592 OFFCURVE",
"345 546 CURVE SMOOTH",
"387 437 OFFCURVE",
"428 267 OFFCURVE",
"468 35 CURVE SMOOTH",
"469 30 OFFCURVE",
"473 -1 OFFCURVE",
"432 -1 CURVE SMOOTH",
"421 -1 OFFCURVE",
"411 2 OFFCURVE",
"403 7 CURVE SMOOTH",
"395 13 OFFCURVE",
"390 22 OFFCURVE",
"387 35 CURVE SMOOTH",
"372 112 LINE SMOOTH",
"356 197 OFFCURVE",
"345 241 OFFCURVE",
"340 244 CURVE SMOOTH",
"332 249 OFFCURVE",
"305 254 OFFCURVE",
"260 259 CURVE SMOOTH",
"215 264 OFFCURVE",
"186 267 OFFCURVE",
"171 267 CURVE SMOOTH",
"156 267 OFFCURVE",
"148 266 OFFCURVE",
"145 263 CURVE SMOOTH",
"133 252 OFFCURVE",
"117 171 OFFCURVE",
"96 20 CURVE",
"93 7 OFFCURVE",
"81 1 OFFCURVE",
"58 1 CURVE SMOOTH",
"35 1 OFFCURVE",
"24 11 OFFCURVE",
"24 30 CURVE SMOOTH",
"24 78 OFFCURVE",
"42 170 OFFCURVE",
"77 305 CURVE SMOOTH",
"112 440 OFFCURVE",
"142 530 OFFCURVE",
"165 574 CURVE SMOOTH",
"194 631 OFFCURVE",
"226 659 OFFCURVE",
"259 659 CURVE SMOOTH"
);
},
{
closed = 1;
nodes = (
"255 548 LINE SMOOTH",
"245 548 OFFCURVE",
"228 518 OFFCURVE",
"203 459 CURVE SMOOTH",
"178 400 OFFCURVE",
"166 364 OFFCURVE",
"166 350 CURVE SMOOTH",
"166 347 OFFCURVE",
"167 344 OFFCURVE",
"168 343 CURVE SMOOTH",
"173 338 OFFCURVE",
"194 333 OFFCURVE",
"231 329 CURVE SMOOTH",
"304 321 OFFCURVE",
"321 322 OFFCURVE",
"324 325 CURVE SMOOTH",
"325 327 OFFCURVE",
"326 332 OFFCURVE",
"326 341 CURVE SMOOTH",
"326 350 OFFCURVE",
"317 387 OFFCURVE",
"299 451 CURVE SMOOTH",
"281 516 OFFCURVE",
"266 548 OFFCURVE",
"255 548 CURVE SMOOTH"
);
}
);
width = 488;
}
);
unicode = 1EAA;
},
{
glyphname = Adieresis;
lastChange = "2016-09-23 08:41:16 +0000";
layers = (
{
layerId = UUID0;
paths = (
{
closed = 1;
nodes = (
"167 711 LINE SMOOTH",
"142 711 OFFCURVE",
"127 724 OFFCURVE",
"122 750 CURVE",
"122 781 OFFCURVE",
"149 808 OFFCURVE",
"176 808 CURVE SMOOTH",
"204 808 OFFCURVE",
"221 788 OFFCURVE",
"222 756 CURVE",
"218 729 OFFCURVE",
"195 711 OFFCURVE",
"167 711 CURVE SMOOTH"
);
},
{
closed = 1;
nodes = (
"347 807 LINE SMOOTH",
"371 807 OFFCURVE",
"390 792 OFFCURVE",
"391 768 CURVE",
"386 696 OFFCURVE",
"289 701 OFFCURVE",
"293 762 CURVE",
"293 792 OFFCURVE",
"311 807 OFFCURVE",
"347 807 CURVE SMOOTH"
);
},
{
closed = 1;
nodes = (
"259 659 LINE SMOOTH",
"276 659 OFFCURVE",
"290 652 OFFCURVE",
"301 637 CURVE SMOOTH",
"312 622 OFFCURVE",
"327 592 OFFCURVE",
"345 546 CURVE SMOOTH",
"387 437 OFFCURVE",
"428 267 OFFCURVE",
"468 35 CURVE SMOOTH",
"469 30 OFFCURVE",
"473 -1 OFFCURVE",
"432 -1 CURVE SMOOTH",
"421 -1 OFFCURVE",
"411 2 OFFCURVE",
"403 7 CURVE SMOOTH",
"395 13 OFFCURVE",
"390 22 OFFCURVE",
"387 35 CURVE SMOOTH",
"372 112 LINE SMOOTH",
"356 197 OFFCURVE",
"345 241 OFFCURVE",
"340 244 CURVE SMOOTH",
"332 249 OFFCURVE",
"305 254 OFFCURVE",
"260 259 CURVE SMOOTH",
"215 264 OFFCURVE",
"186 267 OFFCURVE",
"171 267 CURVE SMOOTH",
"156 267 OFFCURVE",
"148 266 OFFCURVE",
"145 263 CURVE SMOOTH",
"133 252 OFFCURVE",
"117 171 OFFCURVE",
"96 20 CURVE",
"93 7 OFFCURVE",
"81 1 OFFCURVE",
"58 1 CURVE SMOOTH",
"35 1 OFFCURVE",
"24 11 OFFCURVE",
"24 30 CURVE SMOOTH",
"24 78 OFFCURVE",
"42 170 OFFCURVE",
"77 305 CURVE SMOOTH",
"112 440 OFFCURVE",
"142 530 OFFCURVE",
"165 574 CURVE SMOOTH",
"194 631 OFFCURVE",
"226 659 OFFCURVE",
"259 659 CURVE SMOOTH"
);
},
{
closed = 1;
nodes = (
"255 548 LINE SMOOTH",
"245 548 OFFCURVE",
"228 518 OFFCURVE",
"203 459 CURVE SMOOTH",
"178 400 OFFCURVE",
"166 364 OFFCURVE",
"166 350 CURVE SMOOTH",
"166 347 OFFCURVE",
"167 344 OFFCURVE",
"168 343 CURVE SMOOTH",
"173 338 OFFCURVE",
"194 333 OFFCURVE",
"231 329 CURVE SMOOTH",
"304 321 OFFCURVE",
"321 322 OFFCURVE",
"324 325 CURVE SMOOTH",
"325 327 OFFCURVE",
"326 332 OFFCURVE",
"326 341 CURVE SMOOTH",
"326 350 OFFCURVE",
"317 387 OFFCURVE",
"299 451 CURVE SMOOTH",
"281 516 OFFCURVE",
"266 548 OFFCURVE",
"255 548 CURVE SMOOTH"
);
}
);
width = 488;
}
);
unicode = 00C4;
},
{
glyphname = Adotbelow;
lastChange = "2016-09-23 08:41:16 +0000";
layers = (
{
layerId = UUID0;
paths = (
{
closed = 1;
nodes = (
"259 659 LINE SMOOTH",
"276 659 OFFCURVE",
"290 652 OFFCURVE",
"301 637 CURVE SMOOTH",
"312 622 OFFCURVE",
"327 592 OFFCURVE",
"345 546 CURVE SMOOTH",
"387 437 OFFCURVE",
"428 267 OFFCURVE",
"468 35 CURVE SMOOTH",
"469 30 OFFCURVE",
"473 -1 OFFCURVE",
"432 -1 CURVE SMOOTH",
"421 -1 OFFCURVE",
"411 2 OFFCURVE",
"403 7 CURVE SMOOTH",
"395 13 OFFCURVE",
"390 22 OFFCURVE",
"387 35 CURVE SMOOTH",
"372 112 LINE SMOOTH",
"356 197 OFFCURVE",
"345 241 OFFCURVE",
"340 244 CURVE SMOOTH",
"332 249 OFFCURVE",
"305 254 OFFCURVE",
"260 259 CURVE SMOOTH",
"215 264 OFFCURVE",
"186 267 OFFCURVE",
"171 267 CURVE SMOOTH",
"156 267 OFFCURVE",
"148 266 OFFCURVE",
"145 263 CURVE SMOOTH",
"133 252 OFFCURVE",
"117 171 OFFCURVE",
"96 20 CURVE",
"93 7 OFFCURVE",
"81 1 OFFCURVE",
"58 1 CURVE SMOOTH",
"35 1 OFFCURVE",
"24 11 OFFCURVE",
"24 30 CURVE SMOOTH",
"24 78 OFFCURVE",
"42 170 OFFCURVE",
"77 305 CURVE SMOOTH",
"112 440 OFFCURVE",
"142 530 OFFCURVE",
"165 574 CURVE SMOOTH",
"194 631 OFFCURVE",
"226 659 OFFCURVE",
"259 659 CURVE SMOOTH"
);
},
{
closed = 1;
nodes = (
"255 548 LINE SMOOTH",
"245 548 OFFCURVE",
"228 518 OFFCURVE",
"203 459 CURVE SMOOTH",
"178 400 OFFCURVE",
"166 364 OFFCURVE",
"166 350 CURVE SMOOTH",
"166 347 OFFCURVE",
"167 344 OFFCURVE",
"168 343 CURVE SMOOTH",
"173 338 OFFCURVE",
"194 333 OFFCURVE",
"231 329 CURVE SMOOTH",
"304 321 OFFCURVE",
"321 322 OFFCURVE",
"324 325 CURVE SMOOTH",
"325 327 OFFCURVE",
"326 332 OFFCURVE",
"326 341 CURVE SMOOTH",
"326 350 OFFCURVE",
"317 387 OFFCURVE",
"299 451 CURVE SMOOTH",
"281 516 OFFCURVE",
"266 548 OFFCURVE",
"255 548 CURVE SMOOTH"
);
},
{
closed = 1;
nodes = (
"204 -79 LINE",
"207 -64 OFFCURVE",
"211 -52 OFFCURVE",
"218 -45 CURVE",
"241 -14 OFFCURVE",
"301 -42 OFFCURVE",
"298 -79 CURVE",
"298 -103 OFFCURVE",
"273 -131 OFFCURVE",
"249 -131 CURVE SMOOTH",
"226 -131 OFFCURVE",
"207 -111 OFFCURVE",
"204 -79 CURVE"
);
}
);
width = 488;
}
);
unicode = 1EA0;
},
{
glyphname = Agrave;
lastChange = "2016-09-23 08:41:16 +0000";
layers = (
{
layerId = UUID0;
paths = (
{
closed = 1;
nodes = (
"329 710 LINE",
"317 691 OFFCURVE",
"299 693 OFFCURVE",
"274 706 CURVE SMOOTH",
"262 713 OFFCURVE",
"247 725 OFFCURVE",
"228 743 CURVE SMOOTH",
"210 761 OFFCURVE",
"196 778 OFFCURVE",
"187 795 CURVE SMOOTH",
"170 830 OFFCURVE",
"173 837 OFFCURVE",
"176 848 CURVE SMOOTH",
"183 868 OFFCURVE",
"216 873 OFFCURVE",
"219 869 CURVE",
"229 866 OFFCURVE",
"243 850 OFFCURVE",
"260 821 CURVE SMOOTH",
"277 792 OFFCURVE",
"296 773 OFFCURVE",
"317 762 CURVE SMOOTH",
"338 751 OFFCURVE",
"340 721 OFFCURVE",
"329 710 CURVE"
);
},
{
closed = 1;
nodes = (
"259 659 LINE SMOOTH",
"276 659 OFFCURVE",
"290 652 OFFCURVE",
"301 637 CURVE SMOOTH",
"312 622 OFFCURVE",
"327 592 OFFCURVE",
"345 546 CURVE SMOOTH",
"387 437 OFFCURVE",
"428 267 OFFCURVE",
"468 35 CURVE SMOOTH",
"469 30 OFFCURVE",
"473 -1 OFFCURVE",
"432 -1 CURVE SMOOTH",
"421 -1 OFFCURVE",
"411 2 OFFCURVE",
"403 7 CURVE SMOOTH",
"395 13 OFFCURVE",
"390 22 OFFCURVE",
"387 35 CURVE SMOOTH",
"372 112 LINE SMOOTH",
"356 197 OFFCURVE",
"345 241 OFFCURVE",
"340 244 CURVE SMOOTH",
"332 249 OFFCURVE",
"305 254 OFFCURVE",
"260 259 CURVE SMOOTH",
"215 264 OFFCURVE",
"186 267 OFFCURVE",
"171 267 CURVE SMOOTH",
"156 267 OFFCURVE",
"148 266 OFFCURVE",
"145 263 CURVE SMOOTH",
"133 252 OFFCURVE",
"117 171 OFFCURVE",
"96 20 CURVE",
"93 7 OFFCURVE",
"81 1 OFFCURVE",
"58 1 CURVE SMOOTH",
"35 1 OFFCURVE",
"24 11 OFFCURVE",
"24 30 CURVE SMOOTH",
"24 78 OFFCURVE",
"42 170 OFFCURVE",
"77 305 CURVE SMOOTH",
"112 440 OFFCURVE",
"142 530 OFFCURVE",
"165 574 CURVE SMOOTH",
"194 631 OFFCURVE",
"226 659 OFFCURVE",
"259 659 CURVE SMOOTH"
);
},
{
closed = 1;
nodes = (
"255 548 LINE SMOOTH",
"245 548 OFFCURVE",
"228 518 OFFCURVE",
"203 459 CURVE SMOOTH",
"178 400 OFFCURVE",
"166 364 OFFCURVE",
"166 350 CURVE SMOOTH",
"166 347 OFFCURVE",
"167 344 OFFCURVE",
"168 343 CURVE SMOOTH",
"173 338 OFFCURVE",
"194 333 OFFCURVE",
"231 329 CURVE SMOOTH",
"304 321 OFFCURVE",
"321 322 OFFCURVE",
"324 325 CURVE SMOOTH",
"325 327 OFFCURVE",
"326 332 OFFCURVE",
"326 341 CURVE SMOOTH",
"326 350 OFFCURVE",
"317 387 OFFCURVE",
"299 451 CURVE SMOOTH",
"281 516 OFFCURVE",
"266 548 OFFCURVE",
"255 548 CURVE SMOOTH"
);
}
);
width = 488;
}
);
unicode = 00C0;
},
{
glyphname = Ahookabove;
lastChange = "2016-09-23 08:41:16 +0000";
layers = (
{
layerId = UUID0;
paths = (
{
closed = 1;
nodes = (
"258 858 LINE SMOOTH",
"280 858 OFFCURVE",
"297 851 OFFCURVE",
"309 837 CURVE SMOOTH",
"321 824 OFFCURVE",
"327 812 OFFCURVE",
"327 803 CURVE SMOOTH",
"327 794 OFFCURVE",
"326 787 OFFCURVE",
"324 782 CURVE SMOOTH",
"322 777 OFFCURVE",
"311 757 OFFCURVE",
"291 723 CURVE SMOOTH",
"278 703 OFFCURVE",
"266 693 OFFCURVE",
"253 693 CURVE SMOOTH",
"249 693 OFFCURVE",
"245 694 OFFCURVE",
"242 695 CURVE SMOOTH",
"233 698 OFFCURVE",
"230 705 OFFCURVE",
"232 714 CURVE SMOOTH",
"239 753 OFFCURVE",
"297 798 OFFCURVE",
"257 807 CURVE",
"246 807 OFFCURVE",
"243 800 OFFCURVE",
"238 792 CURVE SMOOTH",
"233 782 OFFCURVE",
"217 765 OFFCURVE",
"197 785 CURVE",
"192 792 OFFCURVE",
"190 800 OFFCURVE",
"192 811 CURVE SMOOTH",
"196 832 OFFCURVE",
"224 858 OFFCURVE",
"255 858 CURVE SMOOTH"
);
},
{
closed = 1;
nodes = (
"259 659 LINE SMOOTH",
"276 659 OFFCURVE",
"290 652 OFFCURVE",
"301 637 CURVE SMOOTH",
"312 622 OFFCURVE",
"327 592 OFFCURVE",
"345 546 CURVE SMOOTH",
"387 437 OFFCURVE",
"428 267 OFFCURVE",
"468 35 CURVE SMOOTH",
"469 30 OFFCURVE",
"473 -1 OFFCURVE",
"432 -1 CURVE SMOOTH",
"421 -1 OFFCURVE",
"411 2 OFFCURVE",
"403 7 CURVE SMOOTH",
"395 13 OFFCURVE",
"390 22 OFFCURVE",
"387 35 CURVE SMOOTH",
"372 112 LINE SMOOTH",
"356 197 OFFCURVE",
"345 241 OFFCURVE",
"340 244 CURVE SMOOTH",
"332 249 OFFCURVE",
"305 254 OFFCURVE",
"260 259 CURVE SMOOTH",
"215 264 OFFCURVE",
"186 267 OFFCURVE",
"171 267 CURVE SMOOTH",
"156 267 OFFCURVE",
"148 266 OFFCURVE",
"145 263 CURVE SMOOTH",
"133 252 OFFCURVE",
"117 171 OFFCURVE",
"96 20 CURVE",
"93 7 OFFCURVE",
"81 1 OFFCURVE",
"58 1 CURVE SMOOTH",
"35 1 OFFCURVE",
"24 11 OFFCURVE",
"24 30 CURVE SMOOTH",
"24 78 OFFCURVE",
"42 170 OFFCURVE",
"77 305 CURVE SMOOTH",
"112 440 OFFCURVE",
"142 530 OFFCURVE",
"165 574 CURVE SMOOTH",
"194 631 OFFCURVE",
"226 659 OFFCURVE",
"259 659 CURVE SMOOTH"
);
},
{
closed = 1;
nodes = (
"255 548 LINE SMOOTH",
"245 548 OFFCURVE",
"228 518 OFFCURVE",
"203 459 CURVE SMOOTH",
"178 400 OFFCURVE",
"166 364 OFFCURVE",
"166 350 CURVE SMOOTH",
"166 347 OFFCURVE",
"167 344 OFFCURVE",
"168 343 CURVE SMOOTH",
"173 338 OFFCURVE",
"194 333 OFFCURVE",
"231 329 CURVE SMOOTH",
"304 321 OFFCURVE",
"321 322 OFFCURVE",
"324 325 CURVE SMOOTH",
"325 327 OFFCURVE",
"326 332 OFFCURVE",
"326 341 CURVE SMOOTH",
"326 350 OFFCURVE",
"317 387 OFFCURVE",
"299 451 CURVE SMOOTH",
"281 516 OFFCURVE",
"266 548 OFFCURVE",
"255 548 CURVE SMOOTH"
);
}
);
width = 488;
}
);
unicode = 1EA2;
},
{
glyphname = Amacron;
lastChange = "2016-09-23 08:41:16 +0000";
layers = (
{
layerId = UUID0;
paths = (
{
closed = 1;
nodes = (
"127 795 LINE",
"244 792 LINE",
"337 792 OFFCURVE",
"381 797 OFFCURVE",
"389 797 CURVE SMOOTH",
"394 797 OFFCURVE",
"399 795 OFFCURVE",
"406 790 CURVE SMOOTH",
"419 781 OFFCURVE",
"417 774 OFFCURVE",
"417 755 CURVE SMOOTH",
"417 732 OFFCURVE",
"404 719 OFFCURVE",
"378 716 CURVE",
"313 711 OFFCURVE",
"227 711 OFFCURVE",
"119 716 CURVE SMOOTH",
"97 717 OFFCURVE",
"86 727 OFFCURVE",
"86 744 CURVE SMOOTH",
"86 778 OFFCURVE",
"100 795 OFFCURVE",
"127 795 CURVE"
);
},
{
closed = 1;
nodes = (
"259 659 LINE SMOOTH",
"276 659 OFFCURVE",
"290 652 OFFCURVE",
"301 637 CURVE SMOOTH",
"312 622 OFFCURVE",
"327 592 OFFCURVE",
"345 546 CURVE SMOOTH",
"387 437 OFFCURVE",
"428 267 OFFCURVE",
"468 35 CURVE SMOOTH",
"469 30 OFFCURVE",
"473 -1 OFFCURVE",
"432 -1 CURVE SMOOTH",
"421 -1 OFFCURVE",
"411 2 OFFCURVE",
"403 7 CURVE SMOOTH",
"395 13 OFFCURVE",
"390 22 OFFCURVE",
"387 35 CURVE SMOOTH",
"372 112 LINE SMOOTH",
"356 197 OFFCURVE",
"345 241 OFFCURVE",
"340 244 CURVE SMOOTH",
"332 249 OFFCURVE",
"305 254 OFFCURVE",
"260 259 CURVE SMOOTH",
"215 264 OFFCURVE",
"186 267 OFFCURVE",
"171 267 CURVE SMOOTH",
"156 267 OFFCURVE",
"148 266 OFFCURVE",
"145 263 CURVE SMOOTH",
"133 252 OFFCURVE",
"117 171 OFFCURVE",
"96 20 CURVE",
"93 7 OFFCURVE",
"81 1 OFFCURVE",
"58 1 CURVE SMOOTH",
"35 1 OFFCURVE",
"24 11 OFFCURVE",
"24 30 CURVE SMOOTH",
"24 78 OFFCURVE",
"42 170 OFFCURVE",
"77 305 CURVE SMOOTH",
"112 440 OFFCURVE",
"142 530 OFFCURVE",
"165 574 CURVE SMOOTH",
"194 631 OFFCURVE",
"226 659 OFFCURVE",
"259 659 CURVE SMOOTH"
);
},
{
closed = 1;
nodes = (
"255 548 LINE SMOOTH",
"245 548 OFFCURVE",
"228 518 OFFCURVE",
"203 459 CURVE SMOOTH",
"178 400 OFFCURVE",
"166 364 OFFCURVE",
"166 350 CURVE SMOOTH",
"166 347 OFFCURVE",
"167 344 OFFCURVE",
"168 343 CURVE SMOOTH",
"173 338 OFFCURVE",
"194 333 OFFCURVE",
"231 329 CURVE SMOOTH",
"304 321 OFFCURVE",
"321 322 OFFCURVE",
"324 325 CURVE SMOOTH",
"325 327 OFFCURVE",
"326 332 OFFCURVE",
"326 341 CURVE SMOOTH",
"326 350 OFFCURVE",
"317 387 OFFCURVE",
"299 451 CURVE SMOOTH",
"281 516 OFFCURVE",
"266 548 OFFCURVE",
"255 548 CURVE SMOOTH"
);
}
);
width = 488;
}
);
unicode = 0100;
},
{
glyphname = Aogonek;
lastChange = "2016-09-23 08:41:16 +0000";
layers = (
{
layerId = UUID0;
paths = (
{
closed = 1;
nodes = (
"354 -67 LINE SMOOTH",
"354 -31 OFFCURVE",
"366 -1 OFFCURVE",
"391 23 CURVE",
"390 24 OFFCURVE",
"384 49 OFFCURVE",
"375 98 CURVE SMOOTH",
"357 192 OFFCURVE",
"345 241 OFFCURVE",
"340 244 CURVE SMOOTH",
"332 249 OFFCURVE",
"305 254 OFFCURVE",
"260 259 CURVE SMOOTH",
"215 264 OFFCURVE",
"186 267 OFFCURVE",
"171 267 CURVE SMOOTH",
"156 267 OFFCURVE",
"148 266 OFFCURVE",
"145 263 CURVE SMOOTH",
"133 252 OFFCURVE",
"117 171 OFFCURVE",
"96 20 CURVE",
"93 7 OFFCURVE",
"81 1 OFFCURVE",
"58 1 CURVE SMOOTH",
"35 1 OFFCURVE",
"24 11 OFFCURVE",
"24 30 CURVE SMOOTH",
"24 78 OFFCURVE",
"42 170 OFFCURVE",
"77 305 CURVE SMOOTH",
"112 440 OFFCURVE",
"142 530 OFFCURVE",
"165 574 CURVE SMOOTH",
"194 631 OFFCURVE",
"226 659 OFFCURVE",
"259 659 CURVE SMOOTH",
"276 659 OFFCURVE",
"290 652 OFFCURVE",
"301 637 CURVE SMOOTH",
"312 622 OFFCURVE",
"327 592 OFFCURVE",
"345 546 CURVE SMOOTH",
"387 437 OFFCURVE",
"428 267 OFFCURVE",
"468 35 CURVE SMOOTH",
"469 30 OFFCURVE",
"469 26 OFFCURVE",
"468 22 CURVE",
"468 21 LINE",
"468 13 OFFCURVE",
"462 4 OFFCURVE",
"449 -6 CURVE SMOOTH",
"424 -25 OFFCURVE",
"412 -46 OFFCURVE",
"412 -68 CURVE SMOOTH",
"412 -114 OFFCURVE",
"449 -122 OFFCURVE",
"472 -105 CURVE",
"495 -90 OFFCURVE",
"508 -63 OFFCURVE",
"534 -93 CURVE",
"545 -102 OFFCURVE",
"544 -109 OFFCURVE",
"537 -121 CURVE SMOOTH",
"531 -133 OFFCURVE",
"523 -142 OFFCURVE",
"513 -148 CURVE",
"496 -161 OFFCURVE",
"476 -168 OFFCURVE",
"455 -168 CURVE SMOOTH",
"449 -168 OFFCURVE",
"443 -168 OFFCURVE",
"437 -167 CURVE SMOOTH",
"408 -164 OFFCURVE",
"387 -151 OFFCURVE",
"374 -130 CURVE SMOOTH",
"361 -109 OFFCURVE",
"354 -88 OFFCURVE",
"354 -67 CURVE SMOOTH"
);
},
{
closed = 1;
nodes = (
"168 343 LINE SMOOTH",
"173 338 OFFCURVE",
"194 333 OFFCURVE",
"231 329 CURVE SMOOTH",
"304 321 OFFCURVE",
"321 322 OFFCURVE",
"324 325 CURVE SMOOTH",
"325 327 OFFCURVE",
"326 332 OFFCURVE",
"326 341 CURVE SMOOTH",
"326 350 OFFCURVE",
"317 387 OFFCURVE",
"299 451 CURVE SMOOTH",
"281 516 OFFCURVE",
"266 548 OFFCURVE",
"255 548 CURVE SMOOTH",
"245 548 OFFCURVE",
"228 518 OFFCURVE",
"203 459 CURVE SMOOTH",
"178 400 OFFCURVE",
"166 364 OFFCURVE",
"166 350 CURVE SMOOTH",
"166 347 OFFCURVE",
"167 344 OFFCURVE",
"168 343 CURVE SMOOTH"
);
}
);
width = 488;
}
);
unicode = 0104;
},
{
glyphname = Aring;
lastChange = "2016-09-23 08:41:16 +0000";
layers = (
{
layerId = UUID0;
paths = (
{
closed = 1;
nodes = (
"340 774 LINE SMOOTH",
"340 722 OFFCURVE",
"300 689 OFFCURVE",
"252 689 CURVE SMOOTH",
"229 689 OFFCURVE",
"209 698 OFFCURVE",
"192 716 CURVE SMOOTH",
"175 734 OFFCURVE",
"167 754 OFFCURVE",
"167 777 CURVE SMOOTH",
"167 822 OFFCURVE",
"212 859 OFFCURVE",
"261 859 CURVE SMOOTH",
"312 859 OFFCURVE",
"340 823 OFFCURVE",
"340 774 CURVE SMOOTH"
);
},
{
closed = 1;
nodes = (
"259 809 LINE SMOOTH",
"242 809 OFFCURVE",
"226 795 OFFCURVE",
"226 778 CURVE SMOOTH",
"226 759 OFFCURVE",
"235 750 OFFCURVE",
"252 750 CURVE SMOOTH",
"273 750 OFFCURVE",
"284 760 OFFCURVE",
"284 779 CURVE SMOOTH",
"284 799 OFFCURVE",
"276 809 OFFCURVE",
"259 809 CURVE SMOOTH"
);
},
{
closed = 1;
nodes = (
"259 659 LINE SMOOTH",
"276 659 OFFCURVE",
"290 652 OFFCURVE",
"301 637 CURVE SMOOTH",
"312 622 OFFCURVE",
"327 592 OFFCURVE",
"345 546 CURVE SMOOTH",
"387 437 OFFCURVE",
"428 267 OFFCURVE",
"468 35 CURVE SMOOTH",
"469 30 OFFCURVE",
"473 -1 OFFCURVE",
"432 -1 CURVE SMOOTH",
"421 -1 OFFCURVE",
"411 2 OFFCURVE",
"403 7 CURVE SMOOTH",
"395 13 OFFCURVE",
"390 22 OFFCURVE",
"387 35 CURVE SMOOTH",
"372 112 LINE SMOOTH",
"356 197 OFFCURVE",
"345 241 OFFCURVE",
"340 244 CURVE SMOOTH",
"332 249 OFFCURVE",
"305 254 OFFCURVE",
"260 259 CURVE SMOOTH",
"215 264 OFFCURVE",
"186 267 OFFCURVE",
"171 267 CURVE SMOOTH",
"156 267 OFFCURVE",
"148 266 OFFCURVE",
"145 263 CURVE SMOOTH",
"133 252 OFFCURVE",
"117 171 OFFCURVE",
"96 20 CURVE",
"93 7 OFFCURVE",
"81 1 OFFCURVE",
"58 1 CURVE SMOOTH",
"35 1 OFFCURVE",
"24 11 OFFCURVE",
"24 30 CURVE SMOOTH",
"24 78 OFFCURVE",
"42 170 OFFCURVE",
"77 305 CURVE SMOOTH",
"112 440 OFFCURVE",
"142 530 OFFCURVE",
"165 574 CURVE SMOOTH",
"194 631 OFFCURVE",
"226 659 OFFCURVE",
"259 659 CURVE SMOOTH"
);
},
{
closed = 1;
nodes = (
"255 548 LINE SMOOTH",
"245 548 OFFCURVE",
"228 518 OFFCURVE",
"203 459 CURVE SMOOTH",
"178 400 OFFCURVE",
"166 364 OFFCURVE",
"166 350 CURVE SMOOTH",
"166 347 OFFCURVE",
"167 344 OFFCURVE",
"168 343 CURVE SMOOTH",
"173 338 OFFCURVE",
"194 333 OFFCURVE",
"231 329 CURVE SMOOTH",
"304 321 OFFCURVE",
"321 322 OFFCURVE",
"324 325 CURVE SMOOTH",
"325 327 OFFCURVE",
"326 332 OFFCURVE",
"326 341 CURVE SMOOTH",
"326 350 OFFCURVE",
"317 387 OFFCURVE",
"299 451 CURVE SMOOTH",
"281 516 OFFCURVE",
"266 548 OFFCURVE",
"255 548 CURVE SMOOTH"
);
}
);
width = 488;
}
);
unicode = 00C5;
},
{
glyphname = Aringacute;
lastChange = "2016-09-23 08:41:16 +0000";
layers = (
{
layerId = UUID0;
paths = (
{
closed = 1;
nodes = (
"258 1025 LINE SMOOTH",
"266 1048 OFFCURVE",
"299 1046 OFFCURVE",
"314 1030 CURVE SMOOTH",
"330 1014 OFFCURVE",
"327 1005 OFFCURVE",
"324 998 CURVE SMOOTH",
"313 968 OFFCURVE",
"295 940 OFFCURVE",
"270 913 CURVE SMOOTH",
"245 886 OFFCURVE",
"226 873 OFFCURVE",
"213 873 CURVE SMOOTH",
"175 873 OFFCURVE",
"159 909 OFFCURVE",
"188 932 CURVE SMOOTH",
"224 961 OFFCURVE",
"247 992 OFFCURVE",
"258 1025 CURVE SMOOTH"
);
},
{
closed = 1;
nodes = (
"340 774 LINE SMOOTH",
"340 722 OFFCURVE",
"300 689 OFFCURVE",
"252 689 CURVE SMOOTH",
"229 689 OFFCURVE",
"209 698 OFFCURVE",
"192 716 CURVE SMOOTH",
"175 734 OFFCURVE",
"167 754 OFFCURVE",
"167 777 CURVE SMOOTH",
"167 822 OFFCURVE",
"212 859 OFFCURVE",
"261 859 CURVE SMOOTH",
"312 859 OFFCURVE",
"340 823 OFFCURVE",
"340 774 CURVE SMOOTH"
);
},
{
closed = 1;
nodes = (
"259 809 LINE SMOOTH",
"242 809 OFFCURVE",
"226 795 OFFCURVE",
"226 778 CURVE SMOOTH",
"226 759 OFFCURVE",
"235 750 OFFCURVE",
"252 750 CURVE SMOOTH",
"273 750 OFFCURVE",
"284 760 OFFCURVE",
"284 779 CURVE SMOOTH",
"284 799 OFFCURVE",
"276 809 OFFCURVE",
"259 809 CURVE SMOOTH"
);
},
{
closed = 1;
nodes = (
"259 659 LINE SMOOTH",
"276 659 OFFCURVE",
"290 652 OFFCURVE",
"301 637 CURVE SMOOTH",
"312 622 OFFCURVE",
"327 592 OFFCURVE",
"345 546 CURVE SMOOTH",
"387 437 OFFCURVE",
"428 267 OFFCURVE",
"468 35 CURVE SMOOTH",
"469 30 OFFCURVE",
"473 -1 OFFCURVE",
"432 -1 CURVE SMOOTH",
"421 -1 OFFCURVE",
"411 2 OFFCURVE",
"403 7 CURVE SMOOTH",
"395 13 OFFCURVE",
"390 22 OFFCURVE",
"387 35 CURVE SMOOTH",
"372 112 LINE SMOOTH",
"356 197 OFFCURVE",
"345 241 OFFCURVE",
"340 244 CURVE SMOOTH",
"332 249 OFFCURVE",
"305 254 OFFCURVE",
"260 259 CURVE SMOOTH",
"215 264 OFFCURVE",
"186 267 OFFCURVE",
"171 267 CURVE SMOOTH",
"156 267 OFFCURVE",
"148 266 OFFCURVE",
"145 263 CURVE SMOOTH",
"133 252 OFFCURVE",
"117 171 OFFCURVE",
"96 20 CURVE",
"93 7 OFFCURVE",
"81 1 OFFCURVE",
"58 1 CURVE SMOOTH",
"35 1 OFFCURVE",
"24 11 OFFCURVE",
"24 30 CURVE SMOOTH",
"24 78 OFFCURVE",
"42 170 OFFCURVE",
"77 305 CURVE SMOOTH",
"112 440 OFFCURVE",
"142 530 OFFCURVE",
"165 574 CURVE SMOOTH",
"194 631 OFFCURVE",
"226 659 OFFCURVE",
"259 659 CURVE SMOOTH"
);
},
{
closed = 1;
nodes = (
"255 548 LINE SMOOTH",
"245 548 OFFCURVE",
"228 518 OFFCURVE",
"203 459 CURVE SMOOTH",
"178 400 OFFCURVE",
"166 364 OFFCURVE",
"166 350 CURVE SMOOTH",
"166 347 OFFCURVE",
"167 344 OFFCURVE",
"168 343 CURVE SMOOTH",
"173 338 OFFCURVE",
"194 333 OFFCURVE",
"231 329 CURVE SMOOTH",
"304 321 OFFCURVE",
"321 322 OFFCURVE",
"324 325 CURVE SMOOTH",
"325 327 OFFCURVE",
"326 332 OFFCURVE",
"326 341 CURVE SMOOTH",
"326 350 OFFCURVE",
"317 387 OFFCURVE",
"299 451 CURVE SMOOTH",
"281 516 OFFCURVE",
"266 548 OFFCURVE",
"255 548 CURVE SMOOTH"
);
}
);
width = 488;
}
);
unicode = 01FA;
},
{
glyphname = Aringbelow;
lastChange = "2016-09-23 08:41:16 +0000";
layers = (
{
layerId = UUID0;
paths = (
{
closed = 1;
nodes = (
"259 659 LINE SMOOTH",
"276 659 OFFCURVE",
"290 652 OFFCURVE",
"301 637 CURVE SMOOTH",
"312 622 OFFCURVE",
"327 592 OFFCURVE",
"345 546 CURVE SMOOTH",
"387 437 OFFCURVE",
"428 267 OFFCURVE",
"468 35 CURVE SMOOTH",
"469 30 OFFCURVE",
"473 -1 OFFCURVE",
"432 -1 CURVE SMOOTH",
"421 -1 OFFCURVE",
"411 2 OFFCURVE",
"403 7 CURVE SMOOTH",
"395 13 OFFCURVE",
"390 22 OFFCURVE",
"387 35 CURVE SMOOTH",
"372 112 LINE SMOOTH",
"356 197 OFFCURVE",
"345 241 OFFCURVE",
"340 244 CURVE SMOOTH",
"332 249 OFFCURVE",
"305 254 OFFCURVE",
"260 259 CURVE SMOOTH",
"215 264 OFFCURVE",
"186 267 OFFCURVE",
"171 267 CURVE SMOOTH",
"156 267 OFFCURVE",
"148 266 OFFCURVE",
"145 263 CURVE SMOOTH",
"133 252 OFFCURVE",
"117 171 OFFCURVE",
"96 20 CURVE",
"93 7 OFFCURVE",
"81 1 OFFCURVE",
"58 1 CURVE SMOOTH",
"35 1 OFFCURVE",
"24 11 OFFCURVE",
"24 30 CURVE SMOOTH",
"24 78 OFFCURVE",
"42 170 OFFCURVE",
"77 305 CURVE SMOOTH",
"112 440 OFFCURVE",
"142 530 OFFCURVE",
"165 574 CURVE SMOOTH",
"194 631 OFFCURVE",
"226 659 OFFCURVE",
"259 659 CURVE SMOOTH"
);
},
{
closed = 1;
nodes = (
"255 548 LINE SMOOTH",
"245 548 OFFCURVE",
"228 518 OFFCURVE",
"203 459 CURVE SMOOTH",
"178 400 OFFCURVE",
"166 364 OFFCURVE",
"166 350 CURVE SMOOTH",
"166 347 OFFCURVE",
"167 344 OFFCURVE",
"168 343 CURVE SMOOTH",
"173 338 OFFCURVE",
"194 333 OFFCURVE",
"231 329 CURVE SMOOTH",
"304 321 OFFCURVE",
"321 322 OFFCURVE",
"324 325 CURVE SMOOTH",
"325 327 OFFCURVE",
"326 332 OFFCURVE",
"326 341 CURVE SMOOTH",
"326 350 OFFCURVE",
"317 387 OFFCURVE",
"299 451 CURVE SMOOTH",
"281 516 OFFCURVE",
"266 548 OFFCURVE",
"255 548 CURVE SMOOTH"
);
},
{
closed = 1;
nodes = (
"332 -114 LINE SMOOTH",
"332 -166 OFFCURVE",
"292 -199 OFFCURVE",
"244 -199 CURVE SMOOTH",
"221 -199 OFFCURVE",
"201 -190 OFFCURVE",
"184 -172 CURVE SMOOTH",
"167 -154 OFFCURVE",
"159 -134 OFFCURVE",
"159 -111 CURVE SMOOTH",
"159 -66 OFFCURVE",
"204 -29 OFFCURVE",
"253 -29 CURVE SMOOTH",
"304 -29 OFFCURVE",
"332 -65 OFFCURVE",
"332 -114 CURVE SMOOTH"
);
},
{
closed = 1;
nodes = (
"251 -79 LINE SMOOTH",
"234 -79 OFFCURVE",
"218 -93 OFFCURVE",
"218 -110 CURVE SMOOTH",
"218 -129 OFFCURVE",
"227 -138 OFFCURVE",
"244 -138 CURVE SMOOTH",
"265 -138 OFFCURVE",
"276 -128 OFFCURVE",
"276 -108 CURVE SMOOTH",
"276 -89 OFFCURVE",
"268 -79 OFFCURVE",
"251 -79 CURVE SMOOTH"
);
}
);
width = 488;
}
);
unicode = 1E00;
},
{
glyphname = Atilde;
lastChange = "2016-09-23 08:41:16 +0000";
layers = (
{
layerId = UUID0;
paths = (
{
closed = 1;
nodes = (
"270 803 LINE SMOOTH",
"291 768 OFFCURVE",
"307 769 OFFCURVE",
"327 801 CURVE SMOOTH",
"358 848 OFFCURVE",
"390 814 OFFCURVE",
"390 788 CURVE SMOOTH",
"390 764 OFFCURVE",
"380 746 OFFCURVE",
"360 733 CURVE SMOOTH",
"341 720 OFFCURVE",
"322 714 OFFCURVE",
"303 714 CURVE SMOOTH",
"248 714 OFFCURVE",
"239 760 OFFCURVE",
"211 760 CURVE SMOOTH",
"207 760 OFFCURVE",
"199 752 OFFCURVE",
"186 737 CURVE SMOOTH",
"173 722 OFFCURVE",
"163 715 OFFCURVE",
"154 715 CURVE SMOOTH",
"137 715 OFFCURVE",
"120 733 OFFCURVE",
"120 760 CURVE SMOOTH",
"120 774 OFFCURVE",
"130 789 OFFCURVE",
"149 805 CURVE SMOOTH",
"169 821 OFFCURVE",
"188 829 OFFCURVE",
"205 829 CURVE SMOOTH",
"241 829 OFFCURVE",
"262 816 OFFCURVE",
"270 803 CURVE SMOOTH"
);
},
{
closed = 1;
nodes = (
"259 659 LINE SMOOTH",
"276 659 OFFCURVE",
"290 652 OFFCURVE",
"301 637 CURVE SMOOTH",
"312 622 OFFCURVE",
"327 592 OFFCURVE",
"345 546 CURVE SMOOTH",
"387 437 OFFCURVE",
"428 267 OFFCURVE",
"468 35 CURVE SMOOTH",
"469 30 OFFCURVE",
"473 -1 OFFCURVE",
"432 -1 CURVE SMOOTH",
"421 -1 OFFCURVE",
"411 2 OFFCURVE",
"403 7 CURVE SMOOTH",
"395 13 OFFCURVE",
"390 22 OFFCURVE",
"387 35 CURVE SMOOTH",
"372 112 LINE SMOOTH",
"356 197 OFFCURVE",
"345 241 OFFCURVE",
"340 244 CURVE SMOOTH",
"332 249 OFFCURVE",
"305 254 OFFCURVE",
"260 259 CURVE SMOOTH",
"215 264 OFFCURVE",
"186 267 OFFCURVE",
"171 267 CURVE SMOOTH",
"156 267 OFFCURVE",
"148 266 OFFCURVE",
"145 263 CURVE SMOOTH",
"133 252 OFFCURVE",
"117 171 OFFCURVE",
"96 20 CURVE",
"93 7 OFFCURVE",
"81 1 OFFCURVE",
"58 1 CURVE SMOOTH",
"35 1 OFFCURVE",
"24 11 OFFCURVE",
"24 30 CURVE SMOOTH",
"24 78 OFFCURVE",
"42 170 OFFCURVE",
"77 305 CURVE SMOOTH",
"112 440 OFFCURVE",
"142 530 OFFCURVE",
"165 574 CURVE SMOOTH",
"194 631 OFFCURVE",
"226 659 OFFCURVE",
"259 659 CURVE SMOOTH"
);
},
{
closed = 1;
nodes = (
"255 548 LINE SMOOTH",
"245 548 OFFCURVE",
"228 518 OFFCURVE",
"203 459 CURVE SMOOTH",
"178 400 OFFCURVE",
"166 364 OFFCURVE",
"166 350 CURVE SMOOTH",
"166 347 OFFCURVE",
"167 344 OFFCURVE",
"168 343 CURVE SMOOTH",
"173 338 OFFCURVE",
"194 333 OFFCURVE",
"231 329 CURVE SMOOTH",
"304 321 OFFCURVE",
"321 322 OFFCURVE",
"324 325 CURVE SMOOTH",
"325 327 OFFCURVE",
"326 332 OFFCURVE",
"326 341 CURVE SMOOTH",
"326 350 OFFCURVE",
"317 387 OFFCURVE",
"299 451 CURVE SMOOTH",
"281 516 OFFCURVE",
"266 548 OFFCURVE",
"255 548 CURVE SMOOTH"
);
}
);
width = 488;
}
);
unicode = 00C3;
},
{
glyphname = AE;
lastChange = "2016-09-23 08:41:16 +0000";
layers = (
{
layerId = UUID0;
paths = (
{
closed = 1;
nodes = (
"559 368 LINE",
"583 364 OFFCURVE",
"595 354 OFFCURVE",
"595 337 CURVE SMOOTH",
"595 320 OFFCURVE",
"577 300 OFFCURVE",
"556 295 CURVE",
"535 295 OFFCURVE",
"506 299 OFFCURVE",
"427 299 CURVE SMOOTH",
"401 299 LINE",
"407 102 LINE",
"407 76 LINE",
"595 79 LINE",
"617 76 OFFCURVE",
"628 66 OFFCURVE",
"628 50 CURVE SMOOTH",
"628 37 OFFCURVE",
"620 24 OFFCURVE",
"605 12 CURVE",
"597 7 OFFCURVE",
"590 3 OFFCURVE",
"583 1 CURVE",
"380 1 LINE",
"375 1 LINE SMOOTH",
"338 1 OFFCURVE",
"320 11 OFFCURVE",
"320 31 CURVE SMOOTH",
"320 31 OFFCURVE",
"321 117 OFFCURVE",
"323 289 CURVE",
"233 287 LINE",
"201 287 OFFCURVE",
"174 290 OFFCURVE",
"152 296 CURVE",
"140 247 OFFCURVE",
"130 192 OFFCURVE",
"123 131 CURVE",
"108 25 LINE SMOOTH",
"106 9 OFFCURVE",
"93 1 OFFCURVE",
"70 1 CURVE SMOOTH",
"47 1 OFFCURVE",
"36 10 OFFCURVE",
"36 29 CURVE SMOOTH",
"36 89 OFFCURVE",
"42 156 OFFCURVE",
"55 230 CURVE SMOOTH",
"68 305 OFFCURVE",
"91 370 OFFCURVE",
"124 427 CURVE SMOOTH",
"172 510 OFFCURVE",
"213 567 OFFCURVE",
"248 597 CURVE SMOOTH",
"283 628 OFFCURVE",
"325 643 OFFCURVE",
"372 643 CURVE SMOOTH",
"601 643 LINE",
"626 635 OFFCURVE",
"638 623 OFFCURVE",
"638 608 CURVE SMOOTH",
"638 576 OFFCURVE",
"599 560 OFFCURVE",
"522 560 CURVE SMOOTH",
"487 560 LINE SMOOTH",
"483 560 OFFCURVE",
"453 563 OFFCURVE",
"396 568 CURVE",
"396 467 OFFCURVE",
"397 401 OFFCURVE",
"400 372 CURVE"
);
},
{
closed = 1;
nodes = (
"313 563 LINE",
"269 534 OFFCURVE",
"212 465 OFFCURVE",
"172 373 CURVE",
"191 370 OFFCURVE",
"209 368 OFFCURVE",
"226 368 CURVE",
"317 372 LINE",
"318 381 OFFCURVE",
"318 394 OFFCURVE",
"318 411 CURVE SMOOTH",
"318 429 OFFCURVE",
"316 480 OFFCURVE",
"313 563 CURVE"
);
}
);
width = 661;
}
);
unicode = 00C6;
},
{
glyphname = AEacute;
lastChange = "2016-09-23 08:41:16 +0000";
layers = (
{
layerId = UUID0;
paths = (
{
closed = 1;
nodes = (
"351 861 LINE SMOOTH",
"359 884 OFFCURVE",
"392 882 OFFCURVE",
"407 866 CURVE SMOOTH",
"423 850 OFFCURVE",
"420 841 OFFCURVE",
"417 834 CURVE SMOOTH",
"406 804 OFFCURVE",
"388 776 OFFCURVE",
"363 749 CURVE SMOOTH",
"338 722 OFFCURVE",
"319 709 OFFCURVE",
"306 709 CURVE SMOOTH",
"268 709 OFFCURVE",
"251 745 OFFCURVE",
"282 768 CURVE",
"317 797 OFFCURVE",
"340 828 OFFCURVE",
"351 861 CURVE SMOOTH"
);
},
{
closed = 1;
nodes = (
"559 368 LINE",
"583 364 OFFCURVE",
"595 354 OFFCURVE",
"595 337 CURVE SMOOTH",
"595 320 OFFCURVE",
"577 300 OFFCURVE",
"556 295 CURVE",
"535 295 OFFCURVE",
"506 299 OFFCURVE",
"427 299 CURVE SMOOTH",
"401 299 LINE",
"407 102 LINE",
"407 76 LINE",
"595 79 LINE",
"617 76 OFFCURVE",
"628 66 OFFCURVE",
"628 50 CURVE SMOOTH",
"628 37 OFFCURVE",
"620 24 OFFCURVE",
"605 12 CURVE",
"597 7 OFFCURVE",
"590 3 OFFCURVE",
"583 1 CURVE",
"380 1 LINE",
"375 1 LINE SMOOTH",
"338 1 OFFCURVE",
"320 11 OFFCURVE",
"320 31 CURVE SMOOTH",
"323 289 LINE",
"233 287 LINE",
"201 287 OFFCURVE",
"174 290 OFFCURVE",
"152 296 CURVE",
"140 247 OFFCURVE",
"130 192 OFFCURVE",
"123 131 CURVE",
"108 25 LINE SMOOTH",
"106 9 OFFCURVE",
"93 1 OFFCURVE",
"70 1 CURVE SMOOTH",
"47 1 OFFCURVE",
"36 10 OFFCURVE",
"36 29 CURVE SMOOTH",
"36 89 OFFCURVE",
"42 156 OFFCURVE",
"55 230 CURVE SMOOTH",
"68 305 OFFCURVE",
"91 370 OFFCURVE",
"124 427 CURVE SMOOTH",
"172 510 OFFCURVE",
"213 567 OFFCURVE",
"248 597 CURVE SMOOTH",
"283 628 OFFCURVE",
"325 643 OFFCURVE",
"372 643 CURVE SMOOTH",
"601 643 LINE",
"626 635 OFFCURVE",
"638 623 OFFCURVE",
"638 608 CURVE SMOOTH",
"638 576 OFFCURVE",
"599 560 OFFCURVE",
"522 560 CURVE SMOOTH",
"487 560 LINE SMOOTH",
"483 560 OFFCURVE",
"453 563 OFFCURVE",
"396 568 CURVE",
"396 467 OFFCURVE",
"397 401 OFFCURVE",
"400 372 CURVE"
);
},
{
closed = 1;
nodes = (
"313 563 LINE",
"269 534 OFFCURVE",
"212 465 OFFCURVE",
"172 373 CURVE",
"191 370 OFFCURVE",
"209 368 OFFCURVE",
"226 368 CURVE",
"317 372 LINE",
"318 381 OFFCURVE",
"318 394 OFFCURVE",
"318 411 CURVE SMOOTH",
"318 429 OFFCURVE",
"316 480 OFFCURVE",
"313 563 CURVE"
);
}
);
width = 661;
}
);
unicode = 01FC;
},
{
glyphname = B;
lastChange = "2016-09-23 08:41:16 +0000";
layers = (
{
layerId = UUID0;
paths = (
{
closed = 1;
nodes = (
"198 2 LINE",
"69 5 LINE",
"62 33 OFFCURVE",
"57 159 OFFCURVE",
"56 383 CURVE SMOOTH",
"56 454 LINE SMOOTH",
"56 511 OFFCURVE",
"61 554 OFFCURVE",
"72 583 CURVE SMOOTH",
"83 613 OFFCURVE",
"105 637 OFFCURVE",
"139 655 CURVE SMOOTH",
"156 664 OFFCURVE",
"180 668 OFFCURVE",
"211 668 CURVE SMOOTH",
"242 668 OFFCURVE",
"266 666 OFFCURVE",
"283 662 CURVE SMOOTH",
"372 643 OFFCURVE",
"399 593 OFFCURVE",
"399 508 CURVE SMOOTH",
"399 449 OFFCURVE",
"383 405 OFFCURVE",
"352 377 CURVE",
"384 373 OFFCURVE",
"419 339 OFFCURVE",
"439 310 CURVE",
"456 283 OFFCURVE",
"465 247 OFFCURVE",
"465 201 CURVE SMOOTH",
"465 57 OFFCURVE",
"379 2 OFFCURVE",
"198 2 CURVE"
);
},
{
closed = 1;
nodes = (
"136 489 LINE",
"138 375 LINE",
"139 375 OFFCURVE",
"151 376 OFFCURVE",
"172 379 CURVE SMOOTH",
"193 382 OFFCURVE",
"211 386 OFFCURVE",
"226 389 CURVE SMOOTH",
"293 405 OFFCURVE",
"327 443 OFFCURVE",
"327 504 CURVE SMOOTH",
"327 564 OFFCURVE",
"288 591 OFFCURVE",
"231 591 CURVE SMOOTH",
"195 591 OFFCURVE",
"171 585 OFFCURVE",
"158 572 CURVE SMOOTH",
"147 561 OFFCURVE",
"141 557 OFFCURVE",
"138 541 CURVE SMOOTH",
"135 524 LINE",
"135 517 OFFCURVE",
"136 492 OFFCURVE",
"136 489 CURVE"
);
},
{
closed = 1;
nodes = (
"135 292 LINE",
"135 188 OFFCURVE",
"137 118 OFFCURVE",
"140 81 CURVE",
"218 81 OFFCURVE",
"273 86 OFFCURVE",
"304 96 CURVE SMOOTH",
"335 107 OFFCURVE",
"356 119 OFFCURVE",
"367 134 CURVE SMOOTH",
"390 165 OFFCURVE",
"384 205 OFFCURVE",
"383 218 CURVE",
"383 233 OFFCURVE",
"376 263 OFFCURVE",
"361 276 CURVE SMOOTH",
"354 283 OFFCURVE",
"344 290 OFFCURVE",
"330 296 CURVE SMOOTH",
"316 302 OFFCURVE",
"296 305 OFFCURVE",
"269 305 CURVE SMOOTH",
"243 305 OFFCURVE",
"198 301 OFFCURVE",
"135 292 CURVE"
);
}
);
width = 507;
}
);
unicode = 0042;
},
{
glyphname = C;
lastChange = "2019-02-11 15:59:23 +0000";
layers = (
{
layerId = UUID0;
paths = (
{
closed = 1;
nodes = (
"336 654 LINE SMOOTH",
"381 654 OFFCURVE",
"430 645 OFFCURVE",
"484 628 CURVE",
"520 600 OFFCURVE",
"528 270 OFFCURVE",
"482 270 CURVE",
"446 279 OFFCURVE",
"357 316 OFFCURVE",
"326 316 CURVE SMOOTH",
"254 316 OFFCURVE",
"220 549 OFFCURVE",
"183 506 CURVE SMOOTH",
"146 463 OFFCURVE",
"127 400 OFFCURVE",
"127 316 CURVE SMOOTH",
"127 232 OFFCURVE",
"149 166 OFFCURVE",
"193 119 CURVE SMOOTH",
"216 94 OFFCURVE",
"243 82 OFFCURVE",
"274 82 CURVE SMOOTH",
"305 82 OFFCURVE",
"355 99 OFFCURVE",
"424 132 CURVE SMOOTH",
"448 143 OFFCURVE",
"464 149 OFFCURVE",
"472 149 CURVE SMOOTH",
"489 149 OFFCURVE",
"498 140 OFFCURVE",
"498 122 CURVE SMOOTH",
"498 104 OFFCURVE",
"490 89 OFFCURVE",
"473 77 CURVE",
"416 47 OFFCURVE",
"371 27 OFFCURVE",
"339 16 CURVE SMOOTH",
"307 6 OFFCURVE",
"279 1 OFFCURVE",
"256 1 CURVE SMOOTH",
"208 1 OFFCURVE",
"167 19 OFFCURVE",
"133 54 CURVE SMOOTH",
"72 119 OFFCURVE",
"42 208 OFFCURVE",
"42 321 CURVE SMOOTH",
"42 434 OFFCURVE",
"71 518 OFFCURVE",
"128 572 CURVE SMOOTH",
"186 627 OFFCURVE",
"255 654 OFFCURVE",
"336 654 CURVE SMOOTH"
);
}
);
width = 548;
}
);
unicode = 0043;
},
{
glyphname = Cacute;
lastChange = "2016-09-23 08:41:16 +0000";
layers = (
{
layerId = UUID0;
paths = (
{
closed = 1;
nodes = (
"327 860 LINE SMOOTH",
"335 883 OFFCURVE",
"368 881 OFFCURVE",
"383 865 CURVE SMOOTH",
"399 849 OFFCURVE",
"396 840 OFFCURVE",
"393 833 CURVE SMOOTH",
"382 803 OFFCURVE",
"364 775 OFFCURVE",
"339 748 CURVE SMOOTH",
"314 721 OFFCURVE",
"295 708 OFFCURVE",
"282 708 CURVE SMOOTH",
"244 708 OFFCURVE",
"227 743 OFFCURVE",
"258 768 CURVE SMOOTH",
"293 797 OFFCURVE",
"316 827 OFFCURVE",
"327 860 CURVE SMOOTH"
);
},
{
closed = 1;
nodes = (
"336 654 LINE SMOOTH",
"381 654 OFFCURVE",
"430 645 OFFCURVE",
"484 628 CURVE",
"520 600 OFFCURVE",
"494 556 OFFCURVE",
"448 556 CURVE",
"412 565 OFFCURVE",
"378 570 OFFCURVE",
"347 570 CURVE SMOOTH",
"275 570 OFFCURVE",
"220 549 OFFCURVE",
"183 506 CURVE SMOOTH",
"146 463 OFFCURVE",
"127 400 OFFCURVE",
"127 316 CURVE SMOOTH",
"127 232 OFFCURVE",
"149 166 OFFCURVE",
"193 119 CURVE SMOOTH",
"216 94 OFFCURVE",
"243 82 OFFCURVE",
"274 82 CURVE SMOOTH",
"305 82 OFFCURVE",
"355 99 OFFCURVE",
"424 132 CURVE SMOOTH",
"448 143 OFFCURVE",
"464 149 OFFCURVE",
"472 149 CURVE SMOOTH",
"489 149 OFFCURVE",
"498 140 OFFCURVE",
"498 122 CURVE SMOOTH",
"498 104 OFFCURVE",
"490 89 OFFCURVE",
"473 77 CURVE",
"416 47 OFFCURVE",
"371 27 OFFCURVE",
"339 16 CURVE SMOOTH",
"307 6 OFFCURVE",
"279 1 OFFCURVE",
"256 1 CURVE SMOOTH",
"208 1 OFFCURVE",
"167 19 OFFCURVE",
"133 54 CURVE SMOOTH",
"72 119 OFFCURVE",
"42 208 OFFCURVE",
"42 321 CURVE SMOOTH",
"42 434 OFFCURVE",
"71 518 OFFCURVE",
"128 572 CURVE SMOOTH",
"186 627 OFFCURVE",
"255 654 OFFCURVE",
"336 654 CURVE SMOOTH"
);
}
);
width = 548;
}
);
unicode = 0106;
},
{
glyphname = Ccaron;
lastChange = "2019-02-11 15:59:29 +0000";
layers = (
{
layerId = UUID0;
paths = (
{
closed = 1;
nodes = (
"409 850 LINE SMOOTH",
"430 850 OFFCURVE",
"444 831 OFFCURVE",
"443 810 CURVE SMOOTH",
"443 800 OFFCURVE",
"426 782 OFFCURVE",
"391 757 CURVE SMOOTH",
"356 732 OFFCURVE",
"332 719 OFFCURVE",
"318 719 CURVE SMOOTH",
"303 719 OFFCURVE",
"279 732 OFFCURVE",
"247 758 CURVE SMOOTH",
"215 785 OFFCURVE",
"199 806 OFFCURVE",
"199 821 CURVE SMOOTH",
"199 840 OFFCURVE",
"221 855 OFFCURVE",
"234 854 CURVE SMOOTH",
"241 854 OFFCURVE",
"254 846 OFFCURVE",
"274 831 CURVE SMOOTH",
"295 816 OFFCURVE",
"311 801 OFFCURVE",
"322 787 CURVE",
"364 829 OFFCURVE",
"393 850 OFFCURVE",
"409 850 CURVE SMOOTH"
);
},
{
closed = 1;
nodes = (
"336 654 LINE SMOOTH",
"381 654 OFFCURVE",
"430 645 OFFCURVE",
"484 628 CURVE",
"520 600 OFFCURVE",
"494 556 OFFCURVE",
"448 556 CURVE",
"412 565 OFFCURVE",
"378 570 OFFCURVE",
"347 570 CURVE SMOOTH",
"275 570 OFFCURVE",
"439 399 OFFCURVE",
"402 356 CURVE SMOOTH",
"365 313 OFFCURVE",
"127 400 OFFCURVE",
"127 316 CURVE SMOOTH",
"127 232 OFFCURVE",
"149 166 OFFCURVE",
"193 119 CURVE SMOOTH",
"216 94 OFFCURVE",
"243 82 OFFCURVE",
"274 82 CURVE SMOOTH",
"305 82 OFFCURVE",
"355 99 OFFCURVE",
"424 132 CURVE SMOOTH",
"448 143 OFFCURVE",
"464 149 OFFCURVE",
"472 149 CURVE SMOOTH",
"489 149 OFFCURVE",
"498 140 OFFCURVE",
"498 122 CURVE SMOOTH",
"498 104 OFFCURVE",
"490 89 OFFCURVE",
"473 77 CURVE",
"416 47 OFFCURVE",
"371 27 OFFCURVE",
"339 16 CURVE SMOOTH",
"307 6 OFFCURVE",
"279 1 OFFCURVE",
"256 1 CURVE SMOOTH",
"208 1 OFFCURVE",
"167 19 OFFCURVE",
"133 54 CURVE SMOOTH",
"72 119 OFFCURVE",
"42 208 OFFCURVE",
"42 321 CURVE SMOOTH",
"42 434 OFFCURVE",
"71 518 OFFCURVE",
"128 572 CURVE SMOOTH",
"186 627 OFFCURVE",
"255 654 OFFCURVE",
"336 654 CURVE SMOOTH"
);
}
);
width = 548;
}
);
unicode = 010C;
},
{
glyphname = Ccedilla;
lastChange = "2016-09-23 08:41:16 +0000";
layers = (
{
layerId = UUID0;
paths = (
{
closed = 1;
nodes = (
"339 -17 LINE",
"372 -13 LINE",
"387 -13 OFFCURVE",
"399 -16 OFFCURVE",
"408 -21 CURVE SMOOTH",
"422 -29 OFFCURVE",
"431 -45 OFFCURVE",
"436 -70 CURVE SMOOTH",
"438 -81 OFFCURVE",
"439 -90 OFFCURVE",
"439 -99 CURVE SMOOTH",
"439 -143 OFFCURVE",
"405 -182 OFFCURVE",
"342 -182 CURVE SMOOTH",
"311 -182 OFFCURVE",
"286 -178 OFFCURVE",
"267 -169 CURVE SMOOTH",
"230 -152 OFFCURVE",
"236 -125 OFFCURVE",
"247 -112 CURVE SMOOTH",
"258 -99 OFFCURVE",
"263 -98 OFFCURVE",
"296 -115 CURVE SMOOTH",
"345 -141 OFFCURVE",
"386 -121 OFFCURVE",
"386 -98 CURVE SMOOTH",
"386 -79 OFFCURVE",
"381 -67 OFFCURVE",
"371 -64 CURVE SMOOTH",
"366 -63 OFFCURVE",
"351 -62 OFFCURVE",
"319 -65 CURVE",
"289 -65 OFFCURVE",
"274 -47 OFFCURVE",
"274 -12 CURVE SMOOTH",
"274 2 LINE",
"270 1 OFFCURVE",
"264 1 OFFCURVE",
"256 1 CURVE SMOOTH",
"208 1 OFFCURVE",
"167 19 OFFCURVE",
"133 54 CURVE SMOOTH",
"72 119 OFFCURVE",
"42 208 OFFCURVE",
"42 321 CURVE SMOOTH",
"42 434 OFFCURVE",
"71 518 OFFCURVE",
"128 572 CURVE SMOOTH",
"186 627 OFFCURVE",
"255 654 OFFCURVE",
"336 654 CURVE SMOOTH",
"381 654 OFFCURVE",
"430 645 OFFCURVE",
"484 628 CURVE",
"520 600 OFFCURVE",
"494 556 OFFCURVE",
"448 556 CURVE",
"412 565 OFFCURVE",
"378 570 OFFCURVE",
"347 570 CURVE SMOOTH",
"275 570 OFFCURVE",
"220 549 OFFCURVE",
"183 506 CURVE SMOOTH",
"146 463 OFFCURVE",
"127 400 OFFCURVE",
"127 316 CURVE SMOOTH",
"127 232 OFFCURVE",
"149 166 OFFCURVE",
"193 119 CURVE SMOOTH",
"216 94 OFFCURVE",
"243 82 OFFCURVE",
"274 82 CURVE SMOOTH",
"305 82 OFFCURVE",
"355 99 OFFCURVE",
"424 132 CURVE SMOOTH",
"448 143 OFFCURVE",
"464 149 OFFCURVE",
"472 149 CURVE SMOOTH",
"489 149 OFFCURVE",
"498 140 OFFCURVE",
"498 122 CURVE SMOOTH",
"498 104 OFFCURVE",
"490 89 OFFCURVE",
"473 77 CURVE",
"419 49 OFFCURVE",
"372 28 OFFCURVE",
"333 15 CURVE",
"332 4 OFFCURVE",
"330 -17 OFFCURVE",
"339 -17 CURVE"
);
}
);
width = 548;
}
);
unicode = 00C7;
},
{
glyphname = Ccircumflex;
lastChange = "2016-09-23 08:41:16 +0000";
layers = (
{
layerId = UUID0;
paths = (
{
closed = 1;
nodes = (
"445 754 LINE SMOOTH",
"445 745 OFFCURVE",
"441 737 OFFCURVE",
"433 730 CURVE SMOOTH",
"425 723 OFFCURVE",
"418 720 OFFCURVE",
"413 720 CURVE SMOOTH",
"408 720 OFFCURVE",
"394 731 OFFCURVE",
"369 752 CURVE SMOOTH",
"344 773 OFFCURVE",
"329 784 OFFCURVE",
"323 784 CURVE SMOOTH",
"317 784 OFFCURVE",
"303 773 OFFCURVE",
"280 751 CURVE SMOOTH",
"258 729 OFFCURVE",
"242 718 OFFCURVE",
"233 718 CURVE SMOOTH",
"224 718 OFFCURVE",
"216 722 OFFCURVE",
"209 729 CURVE",
"203 737 OFFCURVE",
"200 746 OFFCURVE",
"200 756 CURVE SMOOTH",
"200 767 OFFCURVE",
"217 785 OFFCURVE",
"251 812 CURVE SMOOTH",
"285 839 OFFCURVE",
"309 852 OFFCURVE",
"324 852 CURVE SMOOTH",
"339 852 OFFCURVE",
"363 839 OFFCURVE",
"396 814 CURVE SMOOTH",
"429 789 OFFCURVE",
"445 769 OFFCURVE",
"445 754 CURVE SMOOTH"
);
},
{
closed = 1;
nodes = (
"336 654 LINE SMOOTH",
"381 654 OFFCURVE",
"430 645 OFFCURVE",
"484 628 CURVE",
"520 600 OFFCURVE",
"494 556 OFFCURVE",
"448 556 CURVE",
"412 565 OFFCURVE",
"378 570 OFFCURVE",
"347 570 CURVE SMOOTH",
"275 570 OFFCURVE",
"220 549 OFFCURVE",
"183 506 CURVE SMOOTH",
"146 463 OFFCURVE",
"127 400 OFFCURVE",
"127 316 CURVE SMOOTH",
"127 232 OFFCURVE",
"149 166 OFFCURVE",
"193 119 CURVE SMOOTH",
"216 94 OFFCURVE",
"243 82 OFFCURVE",
"274 82 CURVE SMOOTH",
"305 82 OFFCURVE",
"355 99 OFFCURVE",
"424 132 CURVE SMOOTH",
"448 143 OFFCURVE",
"464 149 OFFCURVE",
"472 149 CURVE SMOOTH",
"489 149 OFFCURVE",
"498 140 OFFCURVE",
"498 122 CURVE SMOOTH",
"498 104 OFFCURVE",
"490 89 OFFCURVE",
"473 77 CURVE",
"416 47 OFFCURVE",
"371 27 OFFCURVE",
"339 16 CURVE SMOOTH",
"307 6 OFFCURVE",
"279 1 OFFCURVE",
"256 1 CURVE SMOOTH",
"208 1 OFFCURVE",
"167 19 OFFCURVE",
"133 54 CURVE SMOOTH",
"72 119 OFFCURVE",
"42 208 OFFCURVE",
"42 321 CURVE SMOOTH",
"42 434 OFFCURVE",
"71 518 OFFCURVE",
"128 572 CURVE SMOOTH",
"186 627 OFFCURVE",
"255 654 OFFCURVE",
"336 654 CURVE SMOOTH"
);
}
);
width = 548;
}
);
unicode = 0108;
},
{
glyphname = Cdotaccent;
lastChange = "2016-09-23 08:41:16 +0000";
layers = (
{
layerId = UUID0;
paths = (
{
closed = 1;
nodes = (
"322 828 LINE SMOOTH",
"360 826 OFFCURVE",
"394 771 OFFCURVE",
"354 738 CURVE",
"322 702 OFFCURVE",
"268 723 OFFCURVE",
"268 776 CURVE SMOOTH",
"268 808 OFFCURVE",
"285 825 OFFCURVE",
"320 828 CURVE SMOOTH"
);
},
{
closed = 1;
nodes = (
"336 654 LINE SMOOTH",
"381 654 OFFCURVE",
"430 645 OFFCURVE",
"484 628 CURVE",
"520 600 OFFCURVE",
"494 556 OFFCURVE",
"448 556 CURVE",
"412 565 OFFCURVE",
"378 570 OFFCURVE",
"347 570 CURVE SMOOTH",
"275 570 OFFCURVE",
"220 549 OFFCURVE",
"183 506 CURVE SMOOTH",
"146 463 OFFCURVE",
"127 400 OFFCURVE",
"127 316 CURVE SMOOTH",
"127 232 OFFCURVE",
"149 166 OFFCURVE",
"193 119 CURVE SMOOTH",
"216 94 OFFCURVE",
"243 82 OFFCURVE",
"274 82 CURVE SMOOTH",
"305 82 OFFCURVE",
"355 99 OFFCURVE",
"424 132 CURVE SMOOTH",
"448 143 OFFCURVE",
"464 149 OFFCURVE",
"472 149 CURVE SMOOTH",
"489 149 OFFCURVE",
"498 140 OFFCURVE",
"498 122 CURVE SMOOTH",
"498 104 OFFCURVE",
"490 89 OFFCURVE",
"473 77 CURVE",
"416 47 OFFCURVE",
"371 27 OFFCURVE",
"339 16 CURVE SMOOTH",
"307 6 OFFCURVE",
"279 1 OFFCURVE",
"256 1 CURVE SMOOTH",
"208 1 OFFCURVE",
"167 19 OFFCURVE",
"133 54 CURVE SMOOTH",
"72 119 OFFCURVE",
"42 208 OFFCURVE",
"42 321 CURVE SMOOTH",
"42 434 OFFCURVE",
"71 518 OFFCURVE",
"128 572 CURVE SMOOTH",
"186 627 OFFCURVE",
"255 654 OFFCURVE",
"336 654 CURVE SMOOTH"
);
}
);
width = 548;
}
);
unicode = 010A;
},
{
glyphname = D;
lastChange = "2016-09-23 08:41:16 +0000";
layers = (
{
layerId = UUID0;
paths = (
{
closed = 1;
nodes = (
"59 32 LINE",
"39 47 OFFCURVE",
"40 67 OFFCURVE",
"55 79 CURVE",
"42 174 OFFCURVE",
"36 284 OFFCURVE",
"36 407 CURVE SMOOTH",
"36 444 OFFCURVE",
"38 517 OFFCURVE",
"41 625 CURVE",
"50 659 OFFCURVE",
"104 667 OFFCURVE",
"108 661 CURVE",
"203 634 OFFCURVE",
"286 583 OFFCURVE",
"357 506 CURVE SMOOTH",
"428 430 OFFCURVE",
"465 339 OFFCURVE",
"468 232 CURVE",
"468 115 OFFCURVE",
"419 41 OFFCURVE",
"322 11 CURVE SMOOTH",
"266 -6 OFFCURVE",
"199 -4 OFFCURVE",
"152 5 CURVE",
"157 -6 OFFCURVE",
"162 -26 OFFCURVE",
"139 -42 CURVE",
"128 -51 OFFCURVE",
"115 -55 OFFCURVE",
"100 -55 CURVE SMOOTH",
"85 -55 OFFCURVE",
"76 -46 OFFCURVE",
"72 -28 CURVE SMOOTH"
);
},
{
closed = 1;
nodes = (
"119 415 LINE SMOOTH",
"119 298 OFFCURVE",
"126 188 OFFCURVE",
"139 83 CURVE",
"155 78 OFFCURVE",
"182 76 OFFCURVE",
"220 76 CURVE SMOOTH",
"258 76 OFFCURVE",
"294 82 OFFCURVE",
"329 95 CURVE SMOOTH",
"364 108 OFFCURVE",
"383 126 OFFCURVE",
"385 151 CURVE SMOOTH",
"387 170 OFFCURVE",
"388 184 OFFCURVE",
"388 194 CURVE SMOOTH",
"388 367 OFFCURVE",
"291 507 OFFCURVE",
"124 576 CURVE",
"121 497 OFFCURVE",
"119 444 OFFCURVE",
"119 415 CURVE SMOOTH"
);
}
);
width = 475;
}
);
unicode = 0044;
},
{
glyphname = Eth;
lastChange = "2016-09-23 08:41:16 +0000";
layers = (
{
layerId = UUID0;
paths = (
{
closed = 1;
nodes = (
"127 79 LINE",
"118 146 OFFCURVE",
"112 225 OFFCURVE",
"109 317 CURVE",
"72 317 LINE",
"48 320 OFFCURVE",
"36 333 OFFCURVE",
"36 355 CURVE SMOOTH",
"36 375 OFFCURVE",
"50 391 OFFCURVE",
"73 392 CURVE",
"109 392 LINE",
"109 505 OFFCURVE",
"110 582 OFFCURVE",
"113 625 CURVE",
"118 642 OFFCURVE",
"130 654 OFFCURVE",
"149 660 CURVE",
"165 663 OFFCURVE",
"176 662 OFFCURVE",
"180 661 CURVE SMOOTH",
"275 634 OFFCURVE",
"358 583 OFFCURVE",
"429 506 CURVE SMOOTH",
"500 430 OFFCURVE",
"537 339 OFFCURVE",
"540 232 CURVE",
"540 115 OFFCURVE",
"491 41 OFFCURVE",
"394 11 CURVE SMOOTH",
"338 -6 OFFCURVE",
"271 -4 OFFCURVE",
"224 5 CURVE",
"229 -6 OFFCURVE",
"234 -26 OFFCURVE",
"211 -42 CURVE",
"200 -51 OFFCURVE",
"187 -55 OFFCURVE",
"172 -55 CURVE SMOOTH",
"157 -55 OFFCURVE",
"148 -46 OFFCURVE",
"144 -28 CURVE SMOOTH",
"131 32 LINE",
"111 45 OFFCURVE",
"112 67 OFFCURVE",
"127 79 CURVE"
);
},
{
closed = 1;
nodes = (
"192 392 LINE",
"265 392 LINE",
"285 387 OFFCURVE",
"295 374 OFFCURVE",
"295 353 CURVE SMOOTH",
"295 333 OFFCURVE",
"285 321 OFFCURVE",
"264 317 CURVE",
"193 317 LINE",
"196 234 OFFCURVE",
"202 156 OFFCURVE",
"211 83 CURVE",
"227 78 OFFCURVE",
"254 76 OFFCURVE",
"292 76 CURVE SMOOTH",
"330 76 OFFCURVE",
"366 82 OFFCURVE",
"401 95 CURVE SMOOTH",
"436 108 OFFCURVE",
"455 126 OFFCURVE",
"457 151 CURVE SMOOTH",
"459 170 OFFCURVE",
"460 184 OFFCURVE",
"460 194 CURVE SMOOTH",
"460 367 OFFCURVE",
"363 507 OFFCURVE",
"196 576 CURVE",
"193 543 OFFCURVE",
"192 482 OFFCURVE",
"192 392 CURVE"
);
}
);
width = 589;
}
);
unicode = 00D0;
},
{
glyphname = Dcaron;
lastChange = "2016-09-23 08:41:16 +0000";
layers = (
{
layerId = UUID0;
paths = (
{
closed = 1;
nodes = (
"316 850 LINE SMOOTH",
"337 850 OFFCURVE",
"351 831 OFFCURVE",
"350 810 CURVE SMOOTH",
"350 800 OFFCURVE",
"333 782 OFFCURVE",
"298 757 CURVE SMOOTH",
"263 732 OFFCURVE",
"239 719 OFFCURVE",
"225 719 CURVE SMOOTH",
"210 719 OFFCURVE",
"186 732 OFFCURVE",
"154 758 CURVE SMOOTH",
"122 785 OFFCURVE",
"106 806 OFFCURVE",
"106 821 CURVE SMOOTH",
"106 840 OFFCURVE",
"128 855 OFFCURVE",
"141 854 CURVE SMOOTH",
"148 854 OFFCURVE",
"161 846 OFFCURVE",
"181 831 CURVE SMOOTH",
"202 816 OFFCURVE",
"218 801 OFFCURVE",
"229 787 CURVE",
"271 829 OFFCURVE",
"300 850 OFFCURVE",
"316 850 CURVE SMOOTH"
);
},
{
closed = 1;
nodes = (
"59 32 LINE",
"39 47 OFFCURVE",
"40 67 OFFCURVE",
"55 79 CURVE",
"42 174 OFFCURVE",
"36 284 OFFCURVE",
"36 407 CURVE SMOOTH",
"36 444 OFFCURVE",
"38 517 OFFCURVE",
"41 625 CURVE",
"50 659 OFFCURVE",
"104 667 OFFCURVE",
"108 661 CURVE",
"203 634 OFFCURVE",
"286 583 OFFCURVE",
"357 506 CURVE SMOOTH",
"428 430 OFFCURVE",
"465 339 OFFCURVE",
"468 232 CURVE",
"468 115 OFFCURVE",
"419 41 OFFCURVE",
"322 11 CURVE SMOOTH",
"266 -6 OFFCURVE",
"199 -4 OFFCURVE",
"152 5 CURVE",
"157 -6 OFFCURVE",
"162 -26 OFFCURVE",
"139 -42 CURVE",
"128 -51 OFFCURVE",
"115 -55 OFFCURVE",
"100 -55 CURVE SMOOTH",
"85 -55 OFFCURVE",
"76 -46 OFFCURVE",
"72 -28 CURVE SMOOTH"
);
},
{
closed = 1;
nodes = (
"119 415 LINE SMOOTH",
"119 298 OFFCURVE",
"126 188 OFFCURVE",
"139 83 CURVE",
"155 78 OFFCURVE",
"182 76 OFFCURVE",
"220 76 CURVE SMOOTH",
"258 76 OFFCURVE",
"294 82 OFFCURVE",
"329 95 CURVE SMOOTH",
"364 108 OFFCURVE",
"383 126 OFFCURVE",
"385 151 CURVE SMOOTH",
"387 170 OFFCURVE",
"388 184 OFFCURVE",
"388 194 CURVE SMOOTH",
"388 367 OFFCURVE",
"291 507 OFFCURVE",
"124 576 CURVE",
"121 497 OFFCURVE",
"119 444 OFFCURVE",
"119 415 CURVE SMOOTH"
);
}
);
width = 475;
}
);
unicode = 010E;
},
{
glyphname = Dcroat;
lastChange = "2016-09-23 08:41:16 +0000";
layers = (
{
layerId = UUID0;
paths = (
{
closed = 1;
nodes = (
"292 -2 LINE SMOOTH",
"260 -2 OFFCURVE",
"232 0 OFFCURVE",
"209 5 CURVE",
"214 -7 OFFCURVE",
"217 -20 OFFCURVE",
"200 -40 CURVE SMOOTH",
"191 -50 OFFCURVE",
"179 -55 OFFCURVE",
"164 -55 CURVE SMOOTH",
"149 -55 OFFCURVE",
"139 -51 OFFCURVE",
"135 -42 CURVE SMOOTH",
"131 -34 OFFCURVE",
"125 -9 OFFCURVE",
"116 32 CURVE",
"96 47 OFFCURVE",
"97 67 OFFCURVE",
"112 79 CURVE",
"103 146 OFFCURVE",
"97 225 OFFCURVE",
"94 317 CURVE",
"31 320 OFFCURVE",
"21 328 OFFCURVE",
"21 355 CURVE SMOOTH",
"21 383 OFFCURVE",
"34 391 OFFCURVE",
"94 392 CURVE",
"94 505 OFFCURVE",
"95 582 OFFCURVE",
"98 625 CURVE",
"102 640 OFFCURVE",
"110 650 OFFCURVE",
"122 655 CURVE SMOOTH",
"147 666 OFFCURVE",
"157 664 OFFCURVE",
"165 661 CURVE",
"260 634 OFFCURVE",
"343 583 OFFCURVE",
"414 506 CURVE SMOOTH",
"485 430 OFFCURVE",
"522 339 OFFCURVE",
"525 232 CURVE",
"525 152 OFFCURVE",
"503 93 OFFCURVE",
"460 55 CURVE SMOOTH",
"417 17 OFFCURVE",
"361 -2 OFFCURVE",
"292 -2 CURVE SMOOTH"
);
},
{
closed = 1;
nodes = (
"178 317 LINE",
"181 234 OFFCURVE",
"187 156 OFFCURVE",
"196 83 CURVE",
"212 78 OFFCURVE",
"233 76 OFFCURVE",
"259 76 CURVE SMOOTH",
"396 76 OFFCURVE",
"445 111 OFFCURVE",
"445 194 CURVE SMOOTH",
"445 367 OFFCURVE",
"348 507 OFFCURVE",
"181 576 CURVE",
"178 543 OFFCURVE",
"177 482 OFFCURVE",
"177 392 CURVE",
"226 389 OFFCURVE",
"255 386 OFFCURVE",
"265 382 CURVE SMOOTH",
"275 379 OFFCURVE",
"280 369 OFFCURVE",
"280 353 CURVE SMOOTH",
"280 338 OFFCURVE",
"275 328 OFFCURVE",
"265 325 CURVE SMOOTH",
"256 322 OFFCURVE",
"227 319 OFFCURVE",
"178 317 CURVE"
);
}
);
width = 550;
}
);
unicode = 0110;
},
{
glyphname = E;
lastChange = "2016-09-23 08:41:16 +0000";
layers = (
{
layerId = UUID0;
paths = (
{
closed = 1;
nodes = (
"55 344 LINE",
"36 356 OFFCURVE",
"37 382 OFFCURVE",
"52 401 CURVE",
"49 468 OFFCURVE",
"48 538 OFFCURVE",
"48 612 CURVE",
"56 644 OFFCURVE",
"71 657 OFFCURVE",
"103 661 CURVE",
"191 657 OFFCURVE",
"286 655 OFFCURVE",
"389 655 CURVE",
"414 650 OFFCURVE",
"427 639 OFFCURVE",
"427 622 CURVE SMOOTH",
"427 594 OFFCURVE",
"400 578 OFFCURVE",
"345 573 CURVE SMOOTH",
"330 572 OFFCURVE",
"314 572 OFFCURVE",
"297 572 CURVE SMOOTH",
"232 572 LINE SMOOTH",
"219 572 OFFCURVE",
"184 575 OFFCURVE",
"127 580 CURVE",
"127 497 OFFCURVE",
"128 439 OFFCURVE",
"131 408 CURVE",
"166 407 OFFCURVE",
"234 407 OFFCURVE",
"335 407 CURVE",
"359 402 OFFCURVE",
"371 391 OFFCURVE",
"371 374 CURVE SMOOTH",
"371 357 OFFCURVE",
"361 344 OFFCURVE",
"342 335 CURVE SMOOTH",
"340 334 OFFCURVE",
"336 332 OFFCURVE",
"331 331 CURVE",
"158 334 LINE SMOOTH",
"147 334 OFFCURVE",
"139 333 OFFCURVE",
"132 332 CURVE",
"136 160 LINE",
"136 121 OFFCURVE",
"135 94 OFFCURVE",
"133 77 CURVE",
"365 80 LINE",
"386 77 OFFCURVE",
"397 68 OFFCURVE",
"397 53 CURVE SMOOTH",
"397 33 OFFCURVE",
"376 9 OFFCURVE",
"352 4 CURVE",
"96 0 LINE SMOOTH",
"65 0 OFFCURVE",
"55 10 OFFCURVE",
"55 37 CURVE",
"58 56 OFFCURVE",
"59 86 OFFCURVE",
"59 127 CURVE SMOOTH",
"59 197 LINE"
);
}
);
width = 442;
}
);
unicode = 0045;
},
{
glyphname = Eacute;
lastChange = "2016-09-23 08:41:16 +0000";
layers = (
{
layerId = UUID0;
paths = (
{
closed = 1;
nodes = (
"238 860 LINE SMOOTH",
"246 883 OFFCURVE",
"279 881 OFFCURVE",
"294 865 CURVE SMOOTH",
"310 849 OFFCURVE",
"307 840 OFFCURVE",
"304 833 CURVE SMOOTH",
"293 803 OFFCURVE",
"275 775 OFFCURVE",
"250 748 CURVE SMOOTH",
"225 721 OFFCURVE",
"206 708 OFFCURVE",
"193 708 CURVE SMOOTH",
"154 708 OFFCURVE",
"139 743 OFFCURVE",
"168 768 CURVE SMOOTH",
"204 797 OFFCURVE",
"227 827 OFFCURVE",
"238 860 CURVE SMOOTH"
);
},
{
closed = 1;
nodes = (
"55 344 LINE",
"36 356 OFFCURVE",
"37 382 OFFCURVE",
"52 401 CURVE",
"49 468 OFFCURVE",
"48 538 OFFCURVE",
"48 612 CURVE",
"56 644 OFFCURVE",
"71 657 OFFCURVE",
"103 661 CURVE",
"191 657 OFFCURVE",
"286 655 OFFCURVE",
"389 655 CURVE",
"414 650 OFFCURVE",
"427 639 OFFCURVE",
"427 622 CURVE SMOOTH",
"427 594 OFFCURVE",
"400 578 OFFCURVE",
"345 573 CURVE SMOOTH",
"330 572 OFFCURVE",
"314 572 OFFCURVE",
"297 572 CURVE SMOOTH",
"232 572 LINE SMOOTH",
"219 572 OFFCURVE",
"184 575 OFFCURVE",
"127 580 CURVE",
"127 497 OFFCURVE",
"128 439 OFFCURVE",
"131 408 CURVE",
"166 407 OFFCURVE",
"234 407 OFFCURVE",
"335 407 CURVE",
"359 402 OFFCURVE",
"371 391 OFFCURVE",
"371 374 CURVE SMOOTH",
"371 357 OFFCURVE",
"361 344 OFFCURVE",
"342 335 CURVE SMOOTH",
"340 334 OFFCURVE",
"336 332 OFFCURVE",
"331 331 CURVE",
"158 334 LINE SMOOTH",
"147 334 OFFCURVE",
"139 333 OFFCURVE",
"132 332 CURVE",
"136 160 LINE",
"136 121 OFFCURVE",
"135 94 OFFCURVE",
"133 77 CURVE",
"365 80 LINE",
"386 77 OFFCURVE",
"397 68 OFFCURVE",
"397 53 CURVE SMOOTH",
"397 33 OFFCURVE",
"376 9 OFFCURVE",
"352 4 CURVE",
"96 0 LINE SMOOTH",
"65 0 OFFCURVE",
"55 10 OFFCURVE",
"55 37 CURVE",
"58 56 OFFCURVE",
"59 86 OFFCURVE",
"59 127 CURVE SMOOTH",
"59 197 LINE"
);
}
);
width = 442;
}
);
unicode = 00C9;
},
{
glyphname = Ebreve;
lastChange = "2016-09-23 08:41:16 +0000";
layers = (
{
layerId = UUID0;
paths = (
{
closed = 1;
nodes = (
"358 797 LINE",
"358 769 OFFCURVE",
"345 745 OFFCURVE",
"319 726 CURVE SMOOTH",
"294 707 OFFCURVE",
"265 697 OFFCURVE",
"232 697 CURVE SMOOTH",
"199 697 OFFCURVE",
"170 706 OFFCURVE",
"143 725 CURVE SMOOTH",
"117 744 OFFCURVE",
"104 768 OFFCURVE",
"104 798 CURVE SMOOTH",
"104 819 OFFCURVE",
"119 837 OFFCURVE",
"143 837 CURVE SMOOTH",
"155 837 OFFCURVE",
"164 830 OFFCURVE",
"171 816 CURVE SMOOTH",
"186 789 OFFCURVE",
"188 782 OFFCURVE",
"204 770 CURVE SMOOTH",
"212 765 OFFCURVE",
"222 762 OFFCURVE",
"235 762 CURVE SMOOTH",
"262 762 OFFCURVE",
"274 776 OFFCURVE",
"293 808 CURVE SMOOTH",
"324 857 OFFCURVE",
"360 825 OFFCURVE",
"358 797 CURVE"
);
},
{
closed = 1;
nodes = (
"55 344 LINE",
"36 356 OFFCURVE",
"37 382 OFFCURVE",
"52 401 CURVE",
"49 468 OFFCURVE",
"48 538 OFFCURVE",
"48 612 CURVE",
"56 644 OFFCURVE",
"71 657 OFFCURVE",
"103 661 CURVE",
"191 657 OFFCURVE",
"286 655 OFFCURVE",
"389 655 CURVE",
"414 650 OFFCURVE",
"427 639 OFFCURVE",
"427 622 CURVE SMOOTH",
"427 594 OFFCURVE",
"400 578 OFFCURVE",
"345 573 CURVE SMOOTH",
"330 572 OFFCURVE",
"314 572 OFFCURVE",
"297 572 CURVE SMOOTH",
"232 572 LINE SMOOTH",
"219 572 OFFCURVE",
"184 575 OFFCURVE",
"127 580 CURVE",
"127 497 OFFCURVE",
"128 439 OFFCURVE",
"131 408 CURVE",
"166 407 OFFCURVE",
"234 407 OFFCURVE",
"335 407 CURVE",
"359 402 OFFCURVE",
"371 391 OFFCURVE",
"371 374 CURVE SMOOTH",
"371 357 OFFCURVE",
"361 344 OFFCURVE",
"342 335 CURVE SMOOTH",
"340 334 OFFCURVE",
"336 332 OFFCURVE",
"331 331 CURVE",
"158 334 LINE SMOOTH",
"147 334 OFFCURVE",
"139 333 OFFCURVE",
"132 332 CURVE",
"136 160 LINE",
"136 121 OFFCURVE",
"135 94 OFFCURVE",
"133 77 CURVE",
"365 80 LINE",
"386 77 OFFCURVE",
"397 68 OFFCURVE",
"397 53 CURVE SMOOTH",
"397 33 OFFCURVE",
"376 9 OFFCURVE",
"352 4 CURVE",
"96 0 LINE SMOOTH",
"65 0 OFFCURVE",
"55 10 OFFCURVE",
"55 37 CURVE",
"58 56 OFFCURVE",
"59 86 OFFCURVE",
"59 127 CURVE SMOOTH",
"59 197 LINE"
);
}
);
width = 442;
}
);
unicode = 0114;
},
{
glyphname = Ecaron;
lastChange = "2016-09-23 08:41:16 +0000";
layers = (
{
layerId = UUID0;
paths = (
{
closed = 1;
nodes = (
"320 850 LINE SMOOTH",
"341 850 OFFCURVE",
"355 831 OFFCURVE",
"354 810 CURVE SMOOTH",
"354 800 OFFCURVE",
"337 782 OFFCURVE",
"302 757 CURVE SMOOTH",
"267 732 OFFCURVE",
"243 719 OFFCURVE",
"229 719 CURVE SMOOTH",
"214 719 OFFCURVE",
"190 732 OFFCURVE",
"158 758 CURVE SMOOTH",
"126 785 OFFCURVE",
"110 806 OFFCURVE",
"110 821 CURVE SMOOTH",
"110 840 OFFCURVE",
"132 855 OFFCURVE",
"145 854 CURVE SMOOTH",
"152 854 OFFCURVE",
"165 846 OFFCURVE",
"185 831 CURVE SMOOTH",
"206 816 OFFCURVE",
"222 801 OFFCURVE",
"233 787 CURVE",
"275 829 OFFCURVE",
"304 850 OFFCURVE",
"320 850 CURVE SMOOTH"
);
},
{
closed = 1;
nodes = (
"55 344 LINE",
"36 356 OFFCURVE",
"37 382 OFFCURVE",
"52 401 CURVE",
"49 468 OFFCURVE",
"48 538 OFFCURVE",
"48 612 CURVE",
"56 644 OFFCURVE",
"71 657 OFFCURVE",
"103 661 CURVE",
"191 657 OFFCURVE",
"286 655 OFFCURVE",
"389 655 CURVE",
"414 650 OFFCURVE",
"427 639 OFFCURVE",
"427 622 CURVE SMOOTH",
"427 594 OFFCURVE",
"400 578 OFFCURVE",
"345 573 CURVE SMOOTH",
"330 572 OFFCURVE",
"314 572 OFFCURVE",
"297 572 CURVE SMOOTH",
"232 572 LINE SMOOTH",
"219 572 OFFCURVE",
"184 575 OFFCURVE",
"127 580 CURVE",
"127 497 OFFCURVE",
"128 439 OFFCURVE",
"131 408 CURVE",
"166 407 OFFCURVE",
"234 407 OFFCURVE",
"335 407 CURVE",
"359 402 OFFCURVE",
"371 391 OFFCURVE",
"371 374 CURVE SMOOTH",
"371 357 OFFCURVE",
"361 344 OFFCURVE",
"342 335 CURVE SMOOTH",
"340 334 OFFCURVE",
"336 332 OFFCURVE",
"331 331 CURVE",
"158 334 LINE SMOOTH",
"147 334 OFFCURVE",
"139 333 OFFCURVE",
"132 332 CURVE",
"136 160 LINE",
"136 121 OFFCURVE",
"135 94 OFFCURVE",
"133 77 CURVE",
"365 80 LINE",
"386 77 OFFCURVE",
"397 68 OFFCURVE",
"397 53 CURVE SMOOTH",
"397 33 OFFCURVE",
"376 9 OFFCURVE",
"352 4 CURVE",
"96 0 LINE SMOOTH",
"65 0 OFFCURVE",
"55 10 OFFCURVE",
"55 37 CURVE",
"58 56 OFFCURVE",
"59 86 OFFCURVE",
"59 127 CURVE SMOOTH",
"59 197 LINE"
);
}
);
width = 442;
}
);
unicode = 011A;
},
{
glyphname = Ecircumflex;
lastChange = "2016-09-23 08:41:16 +0000";
layers = (
{
layerId = UUID0;
paths = (
{
closed = 1;
nodes = (
"356 754 LINE SMOOTH",
"356 745 OFFCURVE",
"352 737 OFFCURVE",
"344 730 CURVE SMOOTH",
"336 723 OFFCURVE",
"329 720 OFFCURVE",
"324 720 CURVE SMOOTH",
"319 720 OFFCURVE",
"304 731 OFFCURVE",
"280 752 CURVE SMOOTH",
"256 773 OFFCURVE",
"241 784 OFFCURVE",
"234 784 CURVE SMOOTH",
"228 784 OFFCURVE",
"214 773 OFFCURVE",
"191 751 CURVE SMOOTH",
"169 729 OFFCURVE",
"153 718 OFFCURVE",
"144 718 CURVE SMOOTH",
"135 718 OFFCURVE",
"127 722 OFFCURVE",
"120 729 CURVE",
"114 737 OFFCURVE",
"111 746 OFFCURVE",
"111 756 CURVE SMOOTH",
"111 767 OFFCURVE",
"128 785 OFFCURVE",
"162 812 CURVE SMOOTH",
"196 839 OFFCURVE",
"220 852 OFFCURVE",
"235 852 CURVE SMOOTH",
"250 852 OFFCURVE",
"274 839 OFFCURVE",
"307 814 CURVE SMOOTH",
"340 789 OFFCURVE",
"356 769 OFFCURVE",
"356 754 CURVE SMOOTH"
);
},
{
closed = 1;
nodes = (
"55 344 LINE",
"36 356 OFFCURVE",
"37 382 OFFCURVE",
"52 401 CURVE",
"49 468 OFFCURVE",
"48 538 OFFCURVE",
"48 612 CURVE",
"56 644 OFFCURVE",
"71 657 OFFCURVE",
"103 661 CURVE",
"191 657 OFFCURVE",
"286 655 OFFCURVE",
"389 655 CURVE",
"414 650 OFFCURVE",
"427 639 OFFCURVE",
"427 622 CURVE SMOOTH",
"427 594 OFFCURVE",
"400 578 OFFCURVE",
"345 573 CURVE SMOOTH",
"330 572 OFFCURVE",
"314 572 OFFCURVE",
"297 572 CURVE SMOOTH",
"232 572 LINE SMOOTH",
"219 572 OFFCURVE",
"184 575 OFFCURVE",
"127 580 CURVE",
"127 497 OFFCURVE",
"128 439 OFFCURVE",
"131 408 CURVE",
"166 407 OFFCURVE",
"234 407 OFFCURVE",
"335 407 CURVE",
"359 402 OFFCURVE",
"371 391 OFFCURVE",
"371 374 CURVE SMOOTH",
"371 357 OFFCURVE",
"361 344 OFFCURVE",
"342 335 CURVE SMOOTH",
"340 334 OFFCURVE",
"336 332 OFFCURVE",
"331 331 CURVE",
"158 334 LINE SMOOTH",
"147 334 OFFCURVE",
"139 333 OFFCURVE",
"132 332 CURVE",
"136 160 LINE",
"136 121 OFFCURVE",
"135 94 OFFCURVE",
"133 77 CURVE",
"365 80 LINE",
"386 77 OFFCURVE",
"397 68 OFFCURVE",
"397 53 CURVE SMOOTH",
"397 33 OFFCURVE",
"376 9 OFFCURVE",
"352 4 CURVE",
"96 0 LINE SMOOTH",
"65 0 OFFCURVE",
"55 10 OFFCURVE",
"55 37 CURVE",
"58 56 OFFCURVE",
"59 86 OFFCURVE",
"59 127 CURVE SMOOTH",
"59 197 LINE"
);
}
);
width = 442;
}
);
unicode = 00CA;
},
{
glyphname = Ecircumflexacute;
lastChange = "2016-09-23 08:41:16 +0000";
layers = (
{
layerId = UUID0;
paths = (
{
closed = 1;
nodes = (
"399 966 LINE SMOOTH",
"407 989 OFFCURVE",
"440 987 OFFCURVE",
"455 971 CURVE SMOOTH",
"471 955 OFFCURVE",
"468 946 OFFCURVE",
"465 939 CURVE SMOOTH",
"454 909 OFFCURVE",
"436 881 OFFCURVE",
"411 854 CURVE SMOOTH",
"386 827 OFFCURVE",
"367 814 OFFCURVE",
"354 814 CURVE SMOOTH",
"316 814 OFFCURVE",
"299 849 OFFCURVE",
"330 874 CURVE SMOOTH",
"365 903 OFFCURVE",
"388 933 OFFCURVE",
"399 966 CURVE SMOOTH"
);
},
{
closed = 1;
nodes = (
"356 754 LINE SMOOTH",
"356 745 OFFCURVE",
"352 737 OFFCURVE",
"344 730 CURVE SMOOTH",
"336 723 OFFCURVE",
"329 720 OFFCURVE",
"324 720 CURVE SMOOTH",
"319 720 OFFCURVE",
"304 731 OFFCURVE",
"280 752 CURVE SMOOTH",
"256 773 OFFCURVE",
"241 784 OFFCURVE",
"234 784 CURVE SMOOTH",
"228 784 OFFCURVE",
"214 773 OFFCURVE",
"191 751 CURVE SMOOTH",
"169 729 OFFCURVE",
"153 718 OFFCURVE",
"144 718 CURVE SMOOTH",
"135 718 OFFCURVE",
"127 722 OFFCURVE",
"120 729 CURVE",
"114 737 OFFCURVE",
"111 746 OFFCURVE",
"111 756 CURVE SMOOTH",
"111 767 OFFCURVE",
"128 785 OFFCURVE",
"162 812 CURVE SMOOTH",
"196 839 OFFCURVE",
"220 852 OFFCURVE",
"235 852 CURVE SMOOTH",
"250 852 OFFCURVE",
"274 839 OFFCURVE",
"307 814 CURVE SMOOTH",
"340 789 OFFCURVE",
"356 769 OFFCURVE",
"356 754 CURVE SMOOTH"
);
},
{
closed = 1;
nodes = (
"55 344 LINE",
"36 356 OFFCURVE",
"37 382 OFFCURVE",
"52 401 CURVE",
"49 468 OFFCURVE",
"48 538 OFFCURVE",
"48 612 CURVE",
"56 644 OFFCURVE",
"71 657 OFFCURVE",
"103 661 CURVE",
"191 657 OFFCURVE",
"286 655 OFFCURVE",
"389 655 CURVE",
"414 650 OFFCURVE",
"427 639 OFFCURVE",
"427 622 CURVE SMOOTH",
"427 594 OFFCURVE",
"400 578 OFFCURVE",
"345 573 CURVE SMOOTH",
"330 572 OFFCURVE",
"314 572 OFFCURVE",
"297 572 CURVE SMOOTH",
"232 572 LINE SMOOTH",
"219 572 OFFCURVE",
"184 575 OFFCURVE",
"127 580 CURVE",
"127 497 OFFCURVE",
"128 439 OFFCURVE",
"131 408 CURVE",
"166 407 OFFCURVE",
"234 407 OFFCURVE",
"335 407 CURVE",
"359 402 OFFCURVE",
"371 391 OFFCURVE",
"371 374 CURVE SMOOTH",
"371 357 OFFCURVE",
"361 344 OFFCURVE",
"342 335 CURVE SMOOTH",
"340 334 OFFCURVE",
"336 332 OFFCURVE",
"331 331 CURVE",
"158 334 LINE SMOOTH",
"147 334 OFFCURVE",
"139 333 OFFCURVE",
"132 332 CURVE",
"136 160 LINE",
"136 121 OFFCURVE",
"135 94 OFFCURVE",
"133 77 CURVE",
"365 80 LINE",
"386 77 OFFCURVE",
"397 68 OFFCURVE",
"397 53 CURVE SMOOTH",
"397 33 OFFCURVE",
"376 9 OFFCURVE",
"352 4 CURVE",
"96 0 LINE SMOOTH",
"65 0 OFFCURVE",
"55 10 OFFCURVE",
"55 37 CURVE",
"58 56 OFFCURVE",
"59 86 OFFCURVE",
"59 127 CURVE SMOOTH",
"59 197 LINE"
);
}
);
width = 442;
}
);
unicode = 1EBE;
},
{
glyphname = Ecircumflexdotbelow;
lastChange = "2016-09-23 08:41:16 +0000";
layers = (
{
layerId = UUID0;
paths = (
{
closed = 1;
nodes = (
"356 754 LINE SMOOTH",
"356 745 OFFCURVE",
"352 737 OFFCURVE",
"344 730 CURVE SMOOTH",
"336 723 OFFCURVE",
"329 720 OFFCURVE",
"324 720 CURVE SMOOTH",
"319 720 OFFCURVE",
"304 731 OFFCURVE",
"280 752 CURVE SMOOTH",
"256 773 OFFCURVE",
"241 784 OFFCURVE",
"234 784 CURVE SMOOTH",
"228 784 OFFCURVE",
"214 773 OFFCURVE",
"191 751 CURVE SMOOTH",
"169 729 OFFCURVE",
"153 718 OFFCURVE",
"144 718 CURVE SMOOTH",
"135 718 OFFCURVE",
"127 722 OFFCURVE",
"120 729 CURVE",
"114 737 OFFCURVE",
"111 746 OFFCURVE",
"111 756 CURVE SMOOTH",
"111 767 OFFCURVE",
"128 785 OFFCURVE",
"162 812 CURVE SMOOTH",
"196 839 OFFCURVE",
"220 852 OFFCURVE",
"235 852 CURVE SMOOTH",
"250 852 OFFCURVE",
"274 839 OFFCURVE",
"307 814 CURVE SMOOTH",
"340 789 OFFCURVE",
"356 769 OFFCURVE",
"356 754 CURVE SMOOTH"
);
},
{
closed = 1;
nodes = (
"55 344 LINE",
"36 356 OFFCURVE",
"37 382 OFFCURVE",
"52 401 CURVE",
"49 468 OFFCURVE",
"48 538 OFFCURVE",
"48 612 CURVE",
"56 644 OFFCURVE",
"71 657 OFFCURVE",
"103 661 CURVE",
"191 657 OFFCURVE",
"286 655 OFFCURVE",
"389 655 CURVE",
"414 650 OFFCURVE",
"427 639 OFFCURVE",
"427 622 CURVE SMOOTH",
"427 594 OFFCURVE",
"400 578 OFFCURVE",
"345 573 CURVE SMOOTH",
"330 572 OFFCURVE",
"314 572 OFFCURVE",
"297 572 CURVE SMOOTH",
"232 572 LINE SMOOTH",
"219 572 OFFCURVE",
"184 575 OFFCURVE",
"127 580 CURVE",
"127 497 OFFCURVE",
"128 439 OFFCURVE",
"131 408 CURVE",
"166 407 OFFCURVE",
"234 407 OFFCURVE",
"335 407 CURVE",
"359 402 OFFCURVE",
"371 391 OFFCURVE",
"371 374 CURVE SMOOTH",
"371 357 OFFCURVE",
"361 344 OFFCURVE",
"342 335 CURVE SMOOTH",
"340 334 OFFCURVE",
"336 332 OFFCURVE",
"331 331 CURVE",
"158 334 LINE SMOOTH",
"147 334 OFFCURVE",
"139 333 OFFCURVE",
"132 332 CURVE",
"136 160 LINE",
"136 121 OFFCURVE",
"135 94 OFFCURVE",
"133 77 CURVE",
"365 80 LINE",
"386 77 OFFCURVE",
"397 68 OFFCURVE",
"397 53 CURVE SMOOTH",
"397 33 OFFCURVE",
"376 9 OFFCURVE",
"352 4 CURVE",
"96 0 LINE SMOOTH",
"65 0 OFFCURVE",
"55 10 OFFCURVE",
"55 37 CURVE",
"58 56 OFFCURVE",
"59 86 OFFCURVE",
"59 127 CURVE SMOOTH",
"59 197 LINE"
);
},
{
closed = 1;
nodes = (
"178 -82 LINE",
"181 -67 OFFCURVE",
"185 -55 OFFCURVE",
"192 -48 CURVE",
"215 -17 OFFCURVE",
"275 -45 OFFCURVE",
"272 -82 CURVE",
"272 -106 OFFCURVE",
"247 -134 OFFCURVE",
"223 -134 CURVE SMOOTH",
"200 -134 OFFCURVE",
"181 -114 OFFCURVE",
"178 -82 CURVE"
);
}
);
width = 442;
}
);
unicode = 1EC6;
},
{
glyphname = Ecircumflexgrave;
lastChange = "2016-09-23 08:41:16 +0000";
layers = (
{
layerId = UUID0;
paths = (
{
closed = 1;
nodes = (
"413 795 LINE",
"401 776 OFFCURVE",
"383 778 OFFCURVE",
"358 791 CURVE SMOOTH",
"346 798 OFFCURVE",
"331 810 OFFCURVE",
"312 828 CURVE SMOOTH",
"294 846 OFFCURVE",
"280 863 OFFCURVE",
"271 880 CURVE SMOOTH",
"254 915 OFFCURVE",
"257 922 OFFCURVE",
"260 933 CURVE SMOOTH",
"267 953 OFFCURVE",
"300 958 OFFCURVE",
"303 954 CURVE",
"313 951 OFFCURVE",
"327 935 OFFCURVE",
"344 906 CURVE SMOOTH",
"361 877 OFFCURVE",
"380 858 OFFCURVE",
"401 847 CURVE SMOOTH",
"422 836 OFFCURVE",
"424 806 OFFCURVE",
"413 795 CURVE"
);
},
{
closed = 1;
nodes = (
"356 754 LINE SMOOTH",
"356 745 OFFCURVE",
"352 737 OFFCURVE",
"344 730 CURVE SMOOTH",
"336 723 OFFCURVE",
"329 720 OFFCURVE",
"324 720 CURVE SMOOTH",
"319 720 OFFCURVE",
"304 731 OFFCURVE",
"280 752 CURVE SMOOTH",
"256 773 OFFCURVE",
"241 784 OFFCURVE",
"234 784 CURVE SMOOTH",
"228 784 OFFCURVE",
"214 773 OFFCURVE",
"191 751 CURVE SMOOTH",
"169 729 OFFCURVE",
"153 718 OFFCURVE",
"144 718 CURVE SMOOTH",
"135 718 OFFCURVE",
"127 722 OFFCURVE",
"120 729 CURVE",
"114 737 OFFCURVE",
"111 746 OFFCURVE",
"111 756 CURVE SMOOTH",
"111 767 OFFCURVE",
"128 785 OFFCURVE",
"162 812 CURVE SMOOTH",
"196 839 OFFCURVE",
"220 852 OFFCURVE",
"235 852 CURVE SMOOTH",
"250 852 OFFCURVE",
"274 839 OFFCURVE",
"307 814 CURVE SMOOTH",
"340 789 OFFCURVE",
"356 769 OFFCURVE",
"356 754 CURVE SMOOTH"
);
},
{
closed = 1;
nodes = (
"55 344 LINE",
"36 356 OFFCURVE",
"37 382 OFFCURVE",
"52 401 CURVE",
"49 468 OFFCURVE",
"48 538 OFFCURVE",
"48 612 CURVE",
"56 644 OFFCURVE",
"71 657 OFFCURVE",
"103 661 CURVE",
"191 657 OFFCURVE",
"286 655 OFFCURVE",
"389 655 CURVE",
"414 650 OFFCURVE",
"427 639 OFFCURVE",
"427 622 CURVE SMOOTH",
"427 594 OFFCURVE",
"400 578 OFFCURVE",
"345 573 CURVE SMOOTH",
"330 572 OFFCURVE",
"314 572 OFFCURVE",
"297 572 CURVE SMOOTH",
"232 572 LINE SMOOTH",
"219 572 OFFCURVE",
"184 575 OFFCURVE",
"127 580 CURVE",
"127 497 OFFCURVE",
"128 439 OFFCURVE",
"131 408 CURVE",
"166 407 OFFCURVE",
"234 407 OFFCURVE",
"335 407 CURVE",
"359 402 OFFCURVE",
"371 391 OFFCURVE",
"371 374 CURVE SMOOTH",
"371 357 OFFCURVE",
"361 344 OFFCURVE",
"342 335 CURVE SMOOTH",
"340 334 OFFCURVE",
"336 332 OFFCURVE",
"331 331 CURVE",
"158 334 LINE SMOOTH",
"147 334 OFFCURVE",
"139 333 OFFCURVE",
"132 332 CURVE",
"136 160 LINE",
"136 121 OFFCURVE",
"135 94 OFFCURVE",
"133 77 CURVE",
"365 80 LINE",
"386 77 OFFCURVE",
"397 68 OFFCURVE",
"397 53 CURVE SMOOTH",
"397 33 OFFCURVE",
"376 9 OFFCURVE",
"352 4 CURVE",
"96 0 LINE SMOOTH",
"65 0 OFFCURVE",
"55 10 OFFCURVE",
"55 37 CURVE",
"58 56 OFFCURVE",
"59 86 OFFCURVE",
"59 127 CURVE SMOOTH",
"59 197 LINE"
);
}
);
width = 442;
}
);
unicode = 1EC0;
},
{
glyphname = Ecircumflexhookabove;
lastChange = "2016-09-23 08:41:16 +0000";
layers = (
{
layerId = UUID0;
paths = (
{
closed = 1;
nodes = (
"345 984 LINE SMOOTH",
"367 984 OFFCURVE",
"384 977 OFFCURVE",
"396 963 CURVE SMOOTH",
"408 950 OFFCURVE",
"414 938 OFFCURVE",
"414 929 CURVE SMOOTH",
"414 920 OFFCURVE",
"413 913 OFFCURVE",
"411 908 CURVE SMOOTH",
"409 903 OFFCURVE",
"398 883 OFFCURVE",
"378 849 CURVE SMOOTH",
"365 829 OFFCURVE",
"353 819 OFFCURVE",
"340 819 CURVE SMOOTH",
"336 819 OFFCURVE",
"332 820 OFFCURVE",
"329 821 CURVE SMOOTH",
"320 824 OFFCURVE",
"317 831 OFFCURVE",
"318 840 CURVE",
"327 879 OFFCURVE",
"384 924 OFFCURVE",
"344 933 CURVE",
"322 935 OFFCURVE",
"325 882 OFFCURVE",
"284 911 CURVE",
"279 918 OFFCURVE",
"277 926 OFFCURVE",
"279 937 CURVE SMOOTH",
"283 958 OFFCURVE",
"311 984 OFFCURVE",
"342 984 CURVE SMOOTH"
);
},
{
closed = 1;
nodes = (
"356 754 LINE SMOOTH",
"356 745 OFFCURVE",
"352 737 OFFCURVE",
"344 730 CURVE SMOOTH",
"336 723 OFFCURVE",
"329 720 OFFCURVE",
"324 720 CURVE SMOOTH",
"319 720 OFFCURVE",
"304 731 OFFCURVE",
"280 752 CURVE SMOOTH",
"256 773 OFFCURVE",
"241 784 OFFCURVE",
"234 784 CURVE SMOOTH",
"228 784 OFFCURVE",
"214 773 OFFCURVE",
"191 751 CURVE SMOOTH",
"169 729 OFFCURVE",
"153 718 OFFCURVE",
"144 718 CURVE SMOOTH",
"135 718 OFFCURVE",
"127 722 OFFCURVE",
"120 729 CURVE",
"114 737 OFFCURVE",
"111 746 OFFCURVE",
"111 756 CURVE SMOOTH",
"111 767 OFFCURVE",
"128 785 OFFCURVE",
"162 812 CURVE SMOOTH",
"196 839 OFFCURVE",
"220 852 OFFCURVE",
"235 852 CURVE SMOOTH",
"250 852 OFFCURVE",
"274 839 OFFCURVE",
"307 814 CURVE SMOOTH",
"340 789 OFFCURVE",
"356 769 OFFCURVE",
"356 754 CURVE SMOOTH"
);
},
{
closed = 1;
nodes = (
"55 344 LINE",
"36 356 OFFCURVE",
"37 382 OFFCURVE",
"52 401 CURVE",
"49 468 OFFCURVE",
"48 538 OFFCURVE",
"48 612 CURVE",
"56 644 OFFCURVE",
"71 657 OFFCURVE",
"103 661 CURVE",
"191 657 OFFCURVE",
"286 655 OFFCURVE",
"389 655 CURVE",
"414 650 OFFCURVE",
"427 639 OFFCURVE",
"427 622 CURVE SMOOTH",
"427 594 OFFCURVE",
"400 578 OFFCURVE",
"345 573 CURVE SMOOTH",
"330 572 OFFCURVE",
"314 572 OFFCURVE",
"297 572 CURVE SMOOTH",
"232 572 LINE SMOOTH",
"219 572 OFFCURVE",
"184 575 OFFCURVE",
"127 580 CURVE",
"127 497 OFFCURVE",
"128 439 OFFCURVE",
"131 408 CURVE",
"166 407 OFFCURVE",
"234 407 OFFCURVE",
"335 407 CURVE",
"359 402 OFFCURVE",
"371 391 OFFCURVE",
"371 374 CURVE SMOOTH",
"371 357 OFFCURVE",
"361 344 OFFCURVE",
"342 335 CURVE SMOOTH",
"340 334 OFFCURVE",
"336 332 OFFCURVE",
"331 331 CURVE",
"158 334 LINE SMOOTH",
"147 334 OFFCURVE",
"139 333 OFFCURVE",
"132 332 CURVE",
"136 160 LINE",
"136 121 OFFCURVE",
"135 94 OFFCURVE",
"133 77 CURVE",
"365 80 LINE",
"386 77 OFFCURVE",
"397 68 OFFCURVE",
"397 53 CURVE SMOOTH",
"397 33 OFFCURVE",
"376 9 OFFCURVE",
"352 4 CURVE",
"96 0 LINE SMOOTH",
"65 0 OFFCURVE",
"55 10 OFFCURVE",
"55 37 CURVE",
"58 56 OFFCURVE",
"59 86 OFFCURVE",
"59 127 CURVE SMOOTH",
"59 197 LINE"
);
}
);
width = 442;
}
);
unicode = 1EC2;
},
{
glyphname = Ecircumflextilde;
lastChange = "2016-09-23 08:41:16 +0000";
layers = (
{
layerId = UUID0;
paths = (
{
closed = 1;
nodes = (
"248 956 LINE SMOOTH",
"269 921 OFFCURVE",
"285 922 OFFCURVE",
"305 954 CURVE SMOOTH",
"336 1001 OFFCURVE",
"368 967 OFFCURVE",
"368 941 CURVE SMOOTH",
"368 917 OFFCURVE",
"358 899 OFFCURVE",
"338 886 CURVE SMOOTH",
"319 873 OFFCURVE",
"300 867 OFFCURVE",
"281 867 CURVE SMOOTH",
"226 867 OFFCURVE",
"217 913 OFFCURVE",
"189 913 CURVE SMOOTH",
"185 913 OFFCURVE",
"177 905 OFFCURVE",
"164 890 CURVE SMOOTH",
"151 875 OFFCURVE",
"141 868 OFFCURVE",
"132 868 CURVE SMOOTH",
"115 868 OFFCURVE",
"98 886 OFFCURVE",
"98 913 CURVE SMOOTH",
"98 927 OFFCURVE",
"108 942 OFFCURVE",
"127 958 CURVE SMOOTH",
"147 974 OFFCURVE",
"166 982 OFFCURVE",
"183 982 CURVE SMOOTH",
"219 982 OFFCURVE",
"240 969 OFFCURVE",
"248 956 CURVE SMOOTH"
);
},
{
closed = 1;
nodes = (
"356 754 LINE SMOOTH",
"356 745 OFFCURVE",
"352 737 OFFCURVE",
"344 730 CURVE SMOOTH",
"336 723 OFFCURVE",
"329 720 OFFCURVE",
"324 720 CURVE SMOOTH",
"319 720 OFFCURVE",
"304 731 OFFCURVE",
"280 752 CURVE SMOOTH",
"256 773 OFFCURVE",
"241 784 OFFCURVE",
"234 784 CURVE SMOOTH",
"228 784 OFFCURVE",
"214 773 OFFCURVE",
"191 751 CURVE SMOOTH",
"169 729 OFFCURVE",
"153 718 OFFCURVE",
"144 718 CURVE SMOOTH",
"135 718 OFFCURVE",
"127 722 OFFCURVE",
"120 729 CURVE",
"114 737 OFFCURVE",
"111 746 OFFCURVE",
"111 756 CURVE SMOOTH",
"111 767 OFFCURVE",
"128 785 OFFCURVE",
"162 812 CURVE SMOOTH",
"196 839 OFFCURVE",
"220 852 OFFCURVE",
"235 852 CURVE SMOOTH",
"250 852 OFFCURVE",
"274 839 OFFCURVE",
"307 814 CURVE SMOOTH",
"340 789 OFFCURVE",
"356 769 OFFCURVE",
"356 754 CURVE SMOOTH"
);
},
{
closed = 1;
nodes = (
"55 344 LINE",
"36 356 OFFCURVE",
"37 382 OFFCURVE",
"52 401 CURVE",
"49 468 OFFCURVE",
"48 538 OFFCURVE",
"48 612 CURVE",
"56 644 OFFCURVE",
"71 657 OFFCURVE",
"103 661 CURVE",
"191 657 OFFCURVE",
"286 655 OFFCURVE",
"389 655 CURVE",
"414 650 OFFCURVE",
"427 639 OFFCURVE",
"427 622 CURVE SMOOTH",
"427 594 OFFCURVE",
"400 578 OFFCURVE",
"345 573 CURVE SMOOTH",
"330 572 OFFCURVE",
"314 572 OFFCURVE",
"297 572 CURVE SMOOTH",
"232 572 LINE SMOOTH",
"219 572 OFFCURVE",
"184 575 OFFCURVE",
"127 580 CURVE",
"127 497 OFFCURVE",
"128 439 OFFCURVE",
"131 408 CURVE",
"166 407 OFFCURVE",
"234 407 OFFCURVE",
"335 407 CURVE",
"359 402 OFFCURVE",
"371 391 OFFCURVE",
"371 374 CURVE SMOOTH",
"371 357 OFFCURVE",
"361 344 OFFCURVE",
"342 335 CURVE SMOOTH",
"340 334 OFFCURVE",
"336 332 OFFCURVE",
"331 331 CURVE",
"158 334 LINE SMOOTH",
"147 334 OFFCURVE",
"139 333 OFFCURVE",
"132 332 CURVE",
"136 160 LINE",
"136 121 OFFCURVE",
"135 94 OFFCURVE",
"133 77 CURVE",
"365 80 LINE",
"386 77 OFFCURVE",
"397 68 OFFCURVE",
"397 53 CURVE SMOOTH",
"397 33 OFFCURVE",
"376 9 OFFCURVE",
"352 4 CURVE",
"96 0 LINE SMOOTH",
"65 0 OFFCURVE",
"55 10 OFFCURVE",
"55 37 CURVE",
"58 56 OFFCURVE",
"59 86 OFFCURVE",
"59 127 CURVE SMOOTH",
"59 197 LINE"
);
}
);
width = 442;
}
);
unicode = 1EC4;
},
{
glyphname = Edieresis;
lastChange = "2016-09-23 08:41:16 +0000";
layers = (
{
layerId = UUID0;
paths = (
{
closed = 1;
nodes = (
"143 712 LINE SMOOTH",
"118 712 OFFCURVE",
"103 725 OFFCURVE",
"98 751 CURVE",
"98 782 OFFCURVE",
"125 809 OFFCURVE",
"152 809 CURVE SMOOTH",
"180 809 OFFCURVE",
"197 789 OFFCURVE",
"198 757 CURVE",
"194 730 OFFCURVE",
"171 712 OFFCURVE",
"143 712 CURVE SMOOTH"
);
},
{
closed = 1;
nodes = (
"323 808 LINE SMOOTH",
"347 808 OFFCURVE",
"366 793 OFFCURVE",
"367 769 CURVE",
"362 697 OFFCURVE",
"265 702 OFFCURVE",
"269 763 CURVE",
"269 793 OFFCURVE",
"287 808 OFFCURVE",
"323 808 CURVE SMOOTH"
);
},
{
closed = 1;
nodes = (
"55 344 LINE",
"36 356 OFFCURVE",
"37 382 OFFCURVE",
"52 401 CURVE",
"49 468 OFFCURVE",
"48 538 OFFCURVE",
"48 612 CURVE",
"56 644 OFFCURVE",
"71 657 OFFCURVE",
"103 661 CURVE",
"191 657 OFFCURVE",
"286 655 OFFCURVE",
"389 655 CURVE",
"414 650 OFFCURVE",
"427 639 OFFCURVE",
"427 622 CURVE SMOOTH",
"427 594 OFFCURVE",
"400 578 OFFCURVE",
"345 573 CURVE SMOOTH",
"330 572 OFFCURVE",
"314 572 OFFCURVE",
"297 572 CURVE SMOOTH",
"232 572 LINE SMOOTH",
"219 572 OFFCURVE",
"184 575 OFFCURVE",
"127 580 CURVE",
"127 497 OFFCURVE",
"128 439 OFFCURVE",
"131 408 CURVE",
"166 407 OFFCURVE",
"234 407 OFFCURVE",
"335 407 CURVE",
"359 402 OFFCURVE",
"371 391 OFFCURVE",
"371 374 CURVE SMOOTH",
"371 357 OFFCURVE",
"361 344 OFFCURVE",
"342 335 CURVE SMOOTH",
"340 334 OFFCURVE",
"336 332 OFFCURVE",
"331 331 CURVE",
"158 334 LINE SMOOTH",
"147 334 OFFCURVE",
"139 333 OFFCURVE",
"132 332 CURVE",
"136 160 LINE",
"136 121 OFFCURVE",
"135 94 OFFCURVE",
"133 77 CURVE",
"365 80 LINE",
"386 77 OFFCURVE",
"397 68 OFFCURVE",
"397 53 CURVE SMOOTH",
"397 33 OFFCURVE",
"376 9 OFFCURVE",
"352 4 CURVE",
"96 0 LINE SMOOTH",
"65 0 OFFCURVE",
"55 10 OFFCURVE",
"55 37 CURVE",
"58 56 OFFCURVE",
"59 86 OFFCURVE",
"59 127 CURVE SMOOTH",
"59 197 LINE"
);
}
);
width = 442;
}
);
unicode = 00CB;
},
{
glyphname = Edotaccent;
lastChange = "2016-09-23 08:41:16 +0000";
layers = (
{
layerId = UUID0;
paths = (
{
closed = 1;
nodes = (
"233 828 LINE SMOOTH",
"271 826 OFFCURVE",
"305 771 OFFCURVE",
"265 738 CURVE",
"233 702 OFFCURVE",
"179 723 OFFCURVE",
"179 776 CURVE SMOOTH",
"179 808 OFFCURVE",
"196 825 OFFCURVE",
"231 828 CURVE SMOOTH"
);
},
{
closed = 1;
nodes = (
"55 344 LINE",
"36 356 OFFCURVE",
"37 382 OFFCURVE",
"52 401 CURVE",
"49 468 OFFCURVE",
"48 538 OFFCURVE",
"48 612 CURVE",
"56 644 OFFCURVE",
"71 657 OFFCURVE",
"103 661 CURVE",
"191 657 OFFCURVE",
"286 655 OFFCURVE",
"389 655 CURVE",
"414 650 OFFCURVE",
"427 639 OFFCURVE",
"427 622 CURVE SMOOTH",
"427 594 OFFCURVE",
"400 578 OFFCURVE",
"345 573 CURVE SMOOTH",
"330 572 OFFCURVE",
"314 572 OFFCURVE",
"297 572 CURVE SMOOTH",
"232 572 LINE SMOOTH",
"219 572 OFFCURVE",
"184 575 OFFCURVE",
"127 580 CURVE",
"127 497 OFFCURVE",
"128 439 OFFCURVE",
"131 408 CURVE",
"166 407 OFFCURVE",
"234 407 OFFCURVE",
"335 407 CURVE",
"359 402 OFFCURVE",
"371 391 OFFCURVE",
"371 374 CURVE SMOOTH",
"371 357 OFFCURVE",
"361 344 OFFCURVE",
"342 335 CURVE SMOOTH",
"340 334 OFFCURVE",
"336 332 OFFCURVE",
"331 331 CURVE",
"158 334 LINE SMOOTH",
"147 334 OFFCURVE",
"139 333 OFFCURVE",
"132 332 CURVE",
"136 160 LINE",
"136 121 OFFCURVE",
"135 94 OFFCURVE",
"133 77 CURVE",
"365 80 LINE",
"386 77 OFFCURVE",
"397 68 OFFCURVE",
"397 53 CURVE SMOOTH",
"397 33 OFFCURVE",
"376 9 OFFCURVE",
"352 4 CURVE",
"96 0 LINE SMOOTH",
"65 0 OFFCURVE",
"55 10 OFFCURVE",
"55 37 CURVE",
"58 56 OFFCURVE",
"59 86 OFFCURVE",
"59 127 CURVE SMOOTH",
"59 197 LINE"
);
}
);
width = 442;
}
);
unicode = 0116;
},
{
glyphname = Edotbelow;
lastChange = "2016-09-23 08:41:16 +0000";
layers = (
{
layerId = UUID0;
paths = (
{
closed = 1;
nodes = (
"55 344 LINE",
"36 356 OFFCURVE",
"37 382 OFFCURVE",
"52 401 CURVE",
"49 468 OFFCURVE",
"48 538 OFFCURVE",
"48 612 CURVE",
"56 644 OFFCURVE",
"71 657 OFFCURVE",
"103 661 CURVE",
"191 657 OFFCURVE",
"286 655 OFFCURVE",
"389 655 CURVE",
"414 650 OFFCURVE",
"427 639 OFFCURVE",
"427 622 CURVE SMOOTH",
"427 594 OFFCURVE",
"400 578 OFFCURVE",
"345 573 CURVE SMOOTH",
"330 572 OFFCURVE",
"314 572 OFFCURVE",
"297 572 CURVE SMOOTH",
"232 572 LINE SMOOTH",
"219 572 OFFCURVE",
"184 575 OFFCURVE",
"127 580 CURVE",
"127 497 OFFCURVE",
"128 439 OFFCURVE",
"131 408 CURVE",
"166 407 OFFCURVE",
"234 407 OFFCURVE",
"335 407 CURVE",
"359 402 OFFCURVE",
"371 391 OFFCURVE",
"371 374 CURVE SMOOTH",
"371 357 OFFCURVE",
"361 344 OFFCURVE",
"342 335 CURVE SMOOTH",
"340 334 OFFCURVE",
"336 332 OFFCURVE",
"331 331 CURVE",
"158 334 LINE SMOOTH",
"147 334 OFFCURVE",
"139 333 OFFCURVE",
"132 332 CURVE",
"136 160 LINE",
"136 121 OFFCURVE",
"135 94 OFFCURVE",
"133 77 CURVE",
"365 80 LINE",
"386 77 OFFCURVE",
"397 68 OFFCURVE",
"397 53 CURVE SMOOTH",
"397 33 OFFCURVE",
"376 9 OFFCURVE",
"352 4 CURVE",
"96 0 LINE SMOOTH",
"65 0 OFFCURVE",
"55 10 OFFCURVE",
"55 37 CURVE",
"58 56 OFFCURVE",
"59 86 OFFCURVE",
"59 127 CURVE SMOOTH",
"59 197 LINE"
);
},
{
closed = 1;
nodes = (
"178 -82 LINE",
"181 -67 OFFCURVE",
"185 -55 OFFCURVE",
"192 -48 CURVE",
"215 -17 OFFCURVE",
"275 -45 OFFCURVE",
"272 -82 CURVE",
"272 -106 OFFCURVE",
"247 -134 OFFCURVE",
"223 -134 CURVE SMOOTH",
"200 -134 OFFCURVE",
"181 -114 OFFCURVE",
"178 -82 CURVE"
);
}
);
width = 442;
}
);
unicode = 1EB8;
},
{
glyphname = Egrave;
lastChange = "2016-09-23 08:41:16 +0000";
layers = (
{
layerId = UUID0;
paths = (
{
closed = 1;
nodes = (
"305 711 LINE",
"293 692 OFFCURVE",
"275 694 OFFCURVE",
"250 707 CURVE SMOOTH",
"238 714 OFFCURVE",
"223 726 OFFCURVE",
"204 744 CURVE SMOOTH",
"186 762 OFFCURVE",
"172 779 OFFCURVE",
"163 796 CURVE SMOOTH",
"146 831 OFFCURVE",
"149 838 OFFCURVE",
"152 849 CURVE SMOOTH",
"159 869 OFFCURVE",
"192 874 OFFCURVE",
"195 870 CURVE",
"205 867 OFFCURVE",
"219 851 OFFCURVE",
"236 822 CURVE SMOOTH",
"253 793 OFFCURVE",
"272 774 OFFCURVE",
"293 763 CURVE SMOOTH",
"314 752 OFFCURVE",
"316 722 OFFCURVE",
"305 711 CURVE"
);
},
{
closed = 1;
nodes = (
"55 344 LINE",
"36 356 OFFCURVE",
"37 382 OFFCURVE",
"52 401 CURVE",
"49 468 OFFCURVE",
"48 538 OFFCURVE",
"48 612 CURVE",
"56 644 OFFCURVE",
"71 657 OFFCURVE",
"103 661 CURVE",
"191 657 OFFCURVE",
"286 655 OFFCURVE",
"389 655 CURVE",
"414 650 OFFCURVE",
"427 639 OFFCURVE",
"427 622 CURVE SMOOTH",
"427 594 OFFCURVE",
"400 578 OFFCURVE",
"345 573 CURVE SMOOTH",
"330 572 OFFCURVE",
"314 572 OFFCURVE",
"297 572 CURVE SMOOTH",
"232 572 LINE SMOOTH",
"219 572 OFFCURVE",
"184 575 OFFCURVE",
"127 580 CURVE",
"127 497 OFFCURVE",
"128 439 OFFCURVE",
"131 408 CURVE",
"166 407 OFFCURVE",
"234 407 OFFCURVE",
"335 407 CURVE",
"359 402 OFFCURVE",
"371 391 OFFCURVE",
"371 374 CURVE SMOOTH",
"371 357 OFFCURVE",
"361 344 OFFCURVE",
"342 335 CURVE SMOOTH",
"340 334 OFFCURVE",
"336 332 OFFCURVE",
"331 331 CURVE",
"158 334 LINE SMOOTH",
"147 334 OFFCURVE",
"139 333 OFFCURVE",
"132 332 CURVE",
"136 160 LINE",
"136 121 OFFCURVE",
"135 94 OFFCURVE",
"133 77 CURVE",
"365 80 LINE",
"386 77 OFFCURVE",
"397 68 OFFCURVE",
"397 53 CURVE SMOOTH",
"397 33 OFFCURVE",
"376 9 OFFCURVE",
"352 4 CURVE",
"96 0 LINE SMOOTH",
"65 0 OFFCURVE",
"55 10 OFFCURVE",
"55 37 CURVE",
"58 56 OFFCURVE",
"59 86 OFFCURVE",
"59 127 CURVE SMOOTH",
"59 197 LINE"
);
}
);
width = 442;
}
);
unicode = 00C8;
},
{
glyphname = Ehookabove;
lastChange = "2016-09-23 08:41:16 +0000";
layers = (
{
layerId = UUID0;
paths = (
{
closed = 1;
nodes = (
"234 859 LINE SMOOTH",
"256 859 OFFCURVE",
"273 852 OFFCURVE",
"285 838 CURVE SMOOTH",
"297 825 OFFCURVE",
"303 813 OFFCURVE",
"303 804 CURVE SMOOTH",
"303 795 OFFCURVE",
"302 788 OFFCURVE",
"300 783 CURVE SMOOTH",
"298 778 OFFCURVE",
"287 758 OFFCURVE",
"267 724 CURVE SMOOTH",
"254 704 OFFCURVE",
"242 694 OFFCURVE",
"229 694 CURVE SMOOTH",
"225 694 OFFCURVE",
"221 695 OFFCURVE",
"218 696 CURVE SMOOTH",
"209 699 OFFCURVE",
"206 706 OFFCURVE",
"208 715 CURVE SMOOTH",
"215 754 OFFCURVE",
"273 799 OFFCURVE",
"233 808 CURVE",
"222 808 OFFCURVE",
"219 801 OFFCURVE",
"214 793 CURVE SMOOTH",
"209 783 OFFCURVE",
"193 764 OFFCURVE",
"173 786 CURVE",
"168 793 OFFCURVE",
"166 801 OFFCURVE",
"168 812 CURVE SMOOTH",
"172 833 OFFCURVE",
"200 859 OFFCURVE",
"231 859 CURVE SMOOTH"
);
},
{
closed = 1;
nodes = (
"55 344 LINE",
"36 356 OFFCURVE",
"37 382 OFFCURVE",
"52 401 CURVE",
"49 468 OFFCURVE",
"48 538 OFFCURVE",
"48 612 CURVE",
"56 644 OFFCURVE",
"71 657 OFFCURVE",
"103 661 CURVE",
"191 657 OFFCURVE",
"286 655 OFFCURVE",
"389 655 CURVE",
"414 650 OFFCURVE",
"427 639 OFFCURVE",
"427 622 CURVE SMOOTH",
"427 594 OFFCURVE",
"400 578 OFFCURVE",
"345 573 CURVE SMOOTH",
"330 572 OFFCURVE",
"314 572 OFFCURVE",
"297 572 CURVE SMOOTH",
"232 572 LINE SMOOTH",
"219 572 OFFCURVE",
"184 575 OFFCURVE",
"127 580 CURVE",
"127 497 OFFCURVE",
"128 439 OFFCURVE",
"131 408 CURVE",
"166 407 OFFCURVE",
"234 407 OFFCURVE",
"335 407 CURVE",
"359 402 OFFCURVE",
"371 391 OFFCURVE",
"371 374 CURVE SMOOTH",
"371 357 OFFCURVE",
"361 344 OFFCURVE",
"342 335 CURVE SMOOTH",
"340 334 OFFCURVE",
"336 332 OFFCURVE",
"331 331 CURVE",
"158 334 LINE SMOOTH",
"147 334 OFFCURVE",
"139 333 OFFCURVE",
"132 332 CURVE",
"136 160 LINE",
"136 121 OFFCURVE",
"135 94 OFFCURVE",
"133 77 CURVE",
"365 80 LINE",
"386 77 OFFCURVE",
"397 68 OFFCURVE",
"397 53 CURVE SMOOTH",
"397 33 OFFCURVE",
"376 9 OFFCURVE",
"352 4 CURVE",
"96 0 LINE SMOOTH",
"65 0 OFFCURVE",
"55 10 OFFCURVE",
"55 37 CURVE",
"58 56 OFFCURVE",
"59 86 OFFCURVE",
"59 127 CURVE SMOOTH",
"59 197 LINE"
);
}
);
width = 442;
}
);
unicode = 1EBA;
},
{
glyphname = Emacron;
lastChange = "2016-09-23 08:41:16 +0000";
layers = (
{
layerId = UUID0;
paths = (
{
closed = 1;
nodes = (
"103 796 LINE",
"220 793 LINE",
"313 793 OFFCURVE",
"357 798 OFFCURVE",
"365 798 CURVE SMOOTH",
"370 798 OFFCURVE",
"375 796 OFFCURVE",
"382 791 CURVE SMOOTH",
"395 782 OFFCURVE",
"393 775 OFFCURVE",
"393 756 CURVE SMOOTH",
"393 733 OFFCURVE",
"380 720 OFFCURVE",
"354 717 CURVE",
"289 712 OFFCURVE",
"203 712 OFFCURVE",
"95 717 CURVE SMOOTH",
"73 718 OFFCURVE",
"62 727 OFFCURVE",
"62 745 CURVE SMOOTH",
"62 779 OFFCURVE",
"76 796 OFFCURVE",
"103 796 CURVE"
);
},
{
closed = 1;
nodes = (
"55 344 LINE",
"36 356 OFFCURVE",
"37 382 OFFCURVE",
"52 401 CURVE",
"49 468 OFFCURVE",
"48 538 OFFCURVE",
"48 612 CURVE",
"56 644 OFFCURVE",
"71 657 OFFCURVE",
"103 661 CURVE",
"191 657 OFFCURVE",
"286 655 OFFCURVE",
"389 655 CURVE",
"414 650 OFFCURVE",
"427 639 OFFCURVE",
"427 622 CURVE SMOOTH",
"427 594 OFFCURVE",
"400 578 OFFCURVE",
"345 573 CURVE SMOOTH",
"330 572 OFFCURVE",
"314 572 OFFCURVE",
"297 572 CURVE SMOOTH",
"232 572 LINE SMOOTH",
"219 572 OFFCURVE",
"184 575 OFFCURVE",
"127 580 CURVE",
"127 497 OFFCURVE",
"128 439 OFFCURVE",
"131 408 CURVE",
"166 407 OFFCURVE",
"234 407 OFFCURVE",
"335 407 CURVE",
"359 402 OFFCURVE",
"371 391 OFFCURVE",
"371 374 CURVE SMOOTH",
"371 357 OFFCURVE",
"361 344 OFFCURVE",
"342 335 CURVE SMOOTH",
"340 334 OFFCURVE",
"336 332 OFFCURVE",
"331 331 CURVE",
"158 334 LINE SMOOTH",
"147 334 OFFCURVE",
"139 333 OFFCURVE",
"132 332 CURVE",
"136 160 LINE",
"136 121 OFFCURVE",
"135 94 OFFCURVE",
"133 77 CURVE",
"365 80 LINE",
"386 77 OFFCURVE",
"397 68 OFFCURVE",
"397 53 CURVE SMOOTH",
"397 33 OFFCURVE",
"376 9 OFFCURVE",
"352 4 CURVE",
"96 0 LINE SMOOTH",
"65 0 OFFCURVE",
"55 10 OFFCURVE",
"55 37 CURVE",
"58 56 OFFCURVE",
"59 86 OFFCURVE",
"59 127 CURVE SMOOTH",
"59 197 LINE"
);
}
);
width = 442;
}
);
unicode = 0112;
},
{
glyphname = Eogonek;
lastChange = "2016-09-23 08:41:16 +0000";
layers = (
{
layerId = UUID0;
paths = (
{
closed = 1;
nodes = (
"351 -160 LINE SMOOTH",
"322 -157 OFFCURVE",
"301 -144 OFFCURVE",
"288 -123 CURVE SMOOTH",
"261 -80 OFFCURVE",
"262 -37 OFFCURVE",
"285 3 CURVE",
"96 0 LINE SMOOTH",
"65 0 OFFCURVE",
"55 10 OFFCURVE",
"55 37 CURVE",
"58 56 OFFCURVE",
"59 86 OFFCURVE",
"59 127 CURVE SMOOTH",
"59 197 LINE",
"55 344 LINE",
"36 356 OFFCURVE",
"37 382 OFFCURVE",
"52 401 CURVE",
"49 468 OFFCURVE",
"48 538 OFFCURVE",
"48 612 CURVE",
"56 644 OFFCURVE",
"71 657 OFFCURVE",
"103 661 CURVE",
"191 657 OFFCURVE",
"286 655 OFFCURVE",
"389 655 CURVE",
"414 650 OFFCURVE",
"427 639 OFFCURVE",
"427 622 CURVE SMOOTH",
"427 594 OFFCURVE",
"400 578 OFFCURVE",
"345 573 CURVE SMOOTH",
"330 572 OFFCURVE",
"314 572 OFFCURVE",
"297 572 CURVE SMOOTH",
"232 572 LINE SMOOTH",
"219 572 OFFCURVE",
"184 575 OFFCURVE",
"127 580 CURVE",
"127 497 OFFCURVE",
"128 439 OFFCURVE",
"131 408 CURVE",
"166 407 OFFCURVE",
"234 407 OFFCURVE",
"335 407 CURVE",
"359 402 OFFCURVE",
"371 391 OFFCURVE",
"371 374 CURVE SMOOTH",
"371 357 OFFCURVE",
"361 344 OFFCURVE",
"342 335 CURVE SMOOTH",
"340 334 OFFCURVE",
"336 332 OFFCURVE",
"331 331 CURVE",
"158 334 LINE SMOOTH",
"147 334 OFFCURVE",
"139 333 OFFCURVE",
"132 332 CURVE",
"136 160 LINE",
"136 121 OFFCURVE",
"135 94 OFFCURVE",
"133 77 CURVE",
"365 80 LINE",
"386 77 OFFCURVE",
"397 68 OFFCURVE",
"397 53 CURVE SMOOTH",
"397 40 OFFCURVE",
"391 29 OFFCURVE",
"379 18 CURVE",
"377 15 OFFCURVE",
"371 9 OFFCURVE",
"361 1 CURVE SMOOTH",
"338 -18 OFFCURVE",
"326 -38 OFFCURVE",
"326 -61 CURVE SMOOTH",
"326 -107 OFFCURVE",
"363 -115 OFFCURVE",
"386 -98 CURVE",
"409 -83 OFFCURVE",
"422 -56 OFFCURVE",
"448 -86 CURVE",
"459 -95 OFFCURVE",
"458 -102 OFFCURVE",
"451 -114 CURVE SMOOTH",
"445 -126 OFFCURVE",
"437 -135 OFFCURVE",
"427 -141 CURVE",
"410 -154 OFFCURVE",
"390 -161 OFFCURVE",
"369 -161 CURVE SMOOTH",
"363 -161 OFFCURVE",
"357 -161 OFFCURVE",
"351 -160 CURVE SMOOTH"
);
}
);
width = 442;
}
);
unicode = 0118;
},
{
glyphname = Etilde;
lastChange = "2016-09-23 08:41:16 +0000";
layers = (
{
layerId = UUID0;
paths = (
{
closed = 1;
nodes = (
"246 804 LINE SMOOTH",
"267 769 OFFCURVE",
"283 770 OFFCURVE",
"303 802 CURVE SMOOTH",
"334 849 OFFCURVE",
"366 815 OFFCURVE",
"366 789 CURVE SMOOTH",
"366 765 OFFCURVE",
"356 747 OFFCURVE",
"336 734 CURVE SMOOTH",
"317 721 OFFCURVE",
"298 715 OFFCURVE",
"279 715 CURVE SMOOTH",
"224 715 OFFCURVE",
"215 761 OFFCURVE",
"187 761 CURVE SMOOTH",
"183 761 OFFCURVE",
"175 753 OFFCURVE",
"162 738 CURVE SMOOTH",
"149 723 OFFCURVE",
"139 716 OFFCURVE",
"130 716 CURVE SMOOTH",
"113 716 OFFCURVE",
"96 734 OFFCURVE",
"96 761 CURVE SMOOTH",
"96 775 OFFCURVE",
"106 790 OFFCURVE",
"125 806 CURVE SMOOTH",
"145 822 OFFCURVE",
"164 830 OFFCURVE",
"181 830 CURVE SMOOTH",
"217 830 OFFCURVE",
"238 817 OFFCURVE",
"246 804 CURVE SMOOTH"
);
},
{
closed = 1;
nodes = (
"55 344 LINE",
"36 356 OFFCURVE",
"37 382 OFFCURVE",
"52 401 CURVE",
"49 468 OFFCURVE",
"48 538 OFFCURVE",
"48 612 CURVE",
"56 644 OFFCURVE",
"71 657 OFFCURVE",
"103 661 CURVE",
"191 657 OFFCURVE",
"286 655 OFFCURVE",
"389 655 CURVE",
"414 650 OFFCURVE",
"427 639 OFFCURVE",
"427 622 CURVE SMOOTH",
"427 594 OFFCURVE",
"400 578 OFFCURVE",
"345 573 CURVE SMOOTH",
"330 572 OFFCURVE",
"314 572 OFFCURVE",
"297 572 CURVE SMOOTH",
"232 572 LINE SMOOTH",
"219 572 OFFCURVE",
"184 575 OFFCURVE",
"127 580 CURVE",
"127 497 OFFCURVE",
"128 439 OFFCURVE",
"131 408 CURVE",
"166 407 OFFCURVE",
"234 407 OFFCURVE",
"335 407 CURVE",
"359 402 OFFCURVE",
"371 391 OFFCURVE",
"371 374 CURVE SMOOTH",
"371 357 OFFCURVE",
"361 344 OFFCURVE",
"342 335 CURVE SMOOTH",
"340 334 OFFCURVE",
"336 332 OFFCURVE",
"331 331 CURVE",
"158 334 LINE SMOOTH",
"147 334 OFFCURVE",
"139 333 OFFCURVE",
"132 332 CURVE",
"136 160 LINE",
"136 121 OFFCURVE",
"135 94 OFFCURVE",
"133 77 CURVE",
"365 80 LINE",
"386 77 OFFCURVE",
"397 68 OFFCURVE",
"397 53 CURVE SMOOTH",
"397 33 OFFCURVE",
"376 9 OFFCURVE",
"352 4 CURVE",
"96 0 LINE SMOOTH",
"65 0 OFFCURVE",
"55 10 OFFCURVE",
"55 37 CURVE",
"58 56 OFFCURVE",
"59 86 OFFCURVE",
"59 127 CURVE SMOOTH",
"59 197 LINE"
);
}
);
width = 442;
}
);
unicode = 1EBC;
},
{
glyphname = F;
lastChange = "2016-09-23 08:41:16 +0000";
layers = (
{
layerId = UUID0;
paths = (
{
closed = 1;
nodes = (
"210 648 LINE",
"321 650 LINE",
"370 650 OFFCURVE",
"395 637 OFFCURVE",
"395 611 CURVE SMOOTH",
"395 586 OFFCURVE",
"384 580 OFFCURVE",
"377 578 CURVE SMOOTH",
"361 573 OFFCURVE",
"350 572 OFFCURVE",
"346 572 CURVE",
"326 568 OFFCURVE",
"258 564 OFFCURVE",
"112 572 CURVE",
"112 388 LINE",
"316 388 LINE SMOOTH",
"331 388 OFFCURVE",
"346 372 OFFCURVE",
"346 356 CURVE SMOOTH",
"346 325 OFFCURVE",
"333 310 OFFCURVE",
"307 310 CURVE SMOOTH",
"112 310 LINE",
"116 48 LINE SMOOTH",
"116 14 OFFCURVE",
"104 -3 OFFCURVE",
"81 -3 CURVE SMOOTH",
"58 -3 OFFCURVE",
"45 12 OFFCURVE",
"41 43 CURVE SMOOTH",
"39 53 OFFCURVE",
"38 138 OFFCURVE",
"37 297 CURVE",
"37 457 OFFCURVE",
"36 549 OFFCURVE",
"35 573 CURVE",
"10 570 OFFCURVE",
"-2 584 OFFCURVE",
"-2 615 CURVE SMOOTH",
"-2 631 OFFCURVE",
"16 656 OFFCURVE",
"25 657 CURVE SMOOTH",
"30 658 OFFCURVE",
"37 658 OFFCURVE",
"44 658 CURVE SMOOTH",
"52 658 OFFCURVE",
"71 657 OFFCURVE",
"101 654 CURVE SMOOTH",
"142 650 OFFCURVE",
"179 648 OFFCURVE",
"210 648 CURVE"
);
}
);
width = 375;
}
);
unicode = 0046;
},
{
glyphname = G;
lastChange = "2016-09-23 08:41:16 +0000";
layers = (
{
layerId = UUID0;
paths = (
{
closed = 1;
nodes = (
"331 664 LINE SMOOTH",
"363 664 OFFCURVE",
"395 656 OFFCURVE",
"426 640 CURVE SMOOTH",
"458 624 OFFCURVE",
"474 606 OFFCURVE",
"474 586 CURVE SMOOTH",
"474 555 OFFCURVE",
"461 540 OFFCURVE",
"436 540 CURVE SMOOTH",
"427 540 OFFCURVE",
"410 546 OFFCURVE",
"387 558 CURVE SMOOTH",
"364 570 OFFCURVE",
"344 576 OFFCURVE",
"328 576 CURVE SMOOTH",
"271 576 OFFCURVE",
"223 550 OFFCURVE",
"184 499 CURVE SMOOTH",
"146 448 OFFCURVE",
"127 382 OFFCURVE",
"127 303 CURVE SMOOTH",
"127 244 OFFCURVE",
"140 192 OFFCURVE",
"166 147 CURVE SMOOTH",
"192 102 OFFCURVE",
"223 80 OFFCURVE",
"258 80 CURVE SMOOTH",
"330 80 OFFCURVE",
"373 136 OFFCURVE",
"373 196 CURVE",
"375 242 OFFCURVE",
"364 277 OFFCURVE",
"315 281 CURVE",
"284 281 OFFCURVE",
"251 295 OFFCURVE",
"251 318 CURVE SMOOTH",
"251 341 OFFCURVE",
"265 364 OFFCURVE",
"288 368 CURVE",
"333 368 OFFCURVE",
"364 363 OFFCURVE",
"379 354 CURVE SMOOTH",
"395 345 OFFCURVE",
"407 337 OFFCURVE",
"415 331 CURVE SMOOTH",
"423 325 OFFCURVE",
"430 315 OFFCURVE",
"435 301 CURVE SMOOTH",
"446 273 OFFCURVE",
"451 262 OFFCURVE",
"454 221 CURVE",
"455 186 OFFCURVE",
"456 146 OFFCURVE",
"456 99 CURVE SMOOTH",
"456 53 OFFCURVE",
"453 25 OFFCURVE",
"446 14 CURVE SMOOTH",
"440 5 OFFCURVE",
"430 1 OFFCURVE",
"416 0 CURVE",
"388 0 OFFCURVE",
"380 8 OFFCURVE",
"377 49 CURVE",
"345 21 OFFCURVE",
"289 -1 OFFCURVE",
"252 -1 CURVE SMOOTH",
"193 -1 OFFCURVE",
"144 30 OFFCURVE",
"104 92 CURVE SMOOTH",
"64 155 OFFCURVE",
"44 230 OFFCURVE",
"44 318 CURVE SMOOTH",
"44 411 OFFCURVE",
"77 508 OFFCURVE",
"129 569 CURVE SMOOTH",
"184 632 OFFCURVE",
"251 664 OFFCURVE",
"331 664 CURVE SMOOTH"
);
}
);
width = 480;
}
);
unicode = 0047;
},
{
glyphname = Gbreve;
lastChange = "2016-09-23 08:41:16 +0000";
layers = (
{
layerId = UUID0;
paths = (
{
closed = 1;
nodes = (
"410 801 LINE",
"410 773 OFFCURVE",
"397 749 OFFCURVE",
"371 730 CURVE SMOOTH",
"346 711 OFFCURVE",
"317 701 OFFCURVE",
"284 701 CURVE SMOOTH",
"251 701 OFFCURVE",
"222 710 OFFCURVE",
"195 729 CURVE SMOOTH",
"169 748 OFFCURVE",
"156 772 OFFCURVE",
"156 802 CURVE SMOOTH",
"156 823 OFFCURVE",
"171 841 OFFCURVE",
"195 841 CURVE SMOOTH",
"207 841 OFFCURVE",
"216 834 OFFCURVE",
"223 820 CURVE SMOOTH",
"238 793 OFFCURVE",
"240 786 OFFCURVE",
"256 774 CURVE SMOOTH",
"264 769 OFFCURVE",
"274 766 OFFCURVE",
"287 766 CURVE SMOOTH",
"314 766 OFFCURVE",
"326 780 OFFCURVE",
"345 812 CURVE SMOOTH",
"376 861 OFFCURVE",
"412 829 OFFCURVE",
"410 801 CURVE"
);
},
{
closed = 1;
nodes = (
"331 664 LINE SMOOTH",
"363 664 OFFCURVE",
"395 656 OFFCURVE",
"426 640 CURVE SMOOTH",
"458 624 OFFCURVE",
"474 606 OFFCURVE",
"474 586 CURVE SMOOTH",
"474 555 OFFCURVE",
"461 540 OFFCURVE",
"436 540 CURVE SMOOTH",
"427 540 OFFCURVE",
"410 546 OFFCURVE",
"387 558 CURVE SMOOTH",
"364 570 OFFCURVE",
"344 576 OFFCURVE",
"328 576 CURVE SMOOTH",
"271 576 OFFCURVE",
"223 550 OFFCURVE",
"184 499 CURVE SMOOTH",
"146 448 OFFCURVE",
"127 382 OFFCURVE",
"127 303 CURVE SMOOTH",
"127 244 OFFCURVE",
"140 192 OFFCURVE",
"166 147 CURVE SMOOTH",
"192 102 OFFCURVE",
"223 80 OFFCURVE",
"258 80 CURVE SMOOTH",
"330 80 OFFCURVE",
"373 136 OFFCURVE",
"373 196 CURVE",
"375 242 OFFCURVE",
"364 277 OFFCURVE",
"315 281 CURVE",
"284 281 OFFCURVE",
"251 295 OFFCURVE",
"251 318 CURVE SMOOTH",
"251 341 OFFCURVE",
"265 364 OFFCURVE",
"288 368 CURVE",
"333 368 OFFCURVE",
"364 363 OFFCURVE",
"379 354 CURVE SMOOTH",
"395 345 OFFCURVE",
"407 337 OFFCURVE",
"415 331 CURVE SMOOTH",
"423 325 OFFCURVE",
"430 315 OFFCURVE",
"435 301 CURVE SMOOTH",
"446 273 OFFCURVE",
"451 262 OFFCURVE",
"454 221 CURVE",
"455 186 OFFCURVE",
"456 146 OFFCURVE",
"456 99 CURVE SMOOTH",
"456 53 OFFCURVE",
"453 25 OFFCURVE",
"446 14 CURVE SMOOTH",
"440 5 OFFCURVE",
"430 1 OFFCURVE",
"416 0 CURVE",
"388 0 OFFCURVE",
"380 8 OFFCURVE",
"377 49 CURVE",
"345 21 OFFCURVE",
"289 -1 OFFCURVE",
"252 -1 CURVE SMOOTH",
"193 -1 OFFCURVE",
"144 30 OFFCURVE",
"104 92 CURVE SMOOTH",
"64 155 OFFCURVE",
"44 230 OFFCURVE",
"44 318 CURVE SMOOTH",
"44 411 OFFCURVE",
"77 508 OFFCURVE",
"129 569 CURVE SMOOTH",
"184 632 OFFCURVE",
"251 664 OFFCURVE",
"331 664 CURVE SMOOTH"
);
}
);
width = 480;
}
);
unicode = 011E;
},
{
glyphname = Gcircumflex;
lastChange = "2016-09-23 08:41:16 +0000";
layers = (
{
layerId = UUID0;
paths = (
{
closed = 1;
nodes = (
"408 758 LINE SMOOTH",
"408 749 OFFCURVE",
"404 741 OFFCURVE",
"396 734 CURVE SMOOTH",
"388 727 OFFCURVE",
"381 724 OFFCURVE",
"376 724 CURVE SMOOTH",
"371 724 OFFCURVE",
"356 735 OFFCURVE",
"332 756 CURVE SMOOTH",
"308 777 OFFCURVE",
"293 788 OFFCURVE",
"286 788 CURVE SMOOTH",
"280 788 OFFCURVE",
"266 777 OFFCURVE",
"243 755 CURVE SMOOTH",
"221 733 OFFCURVE",
"205 722 OFFCURVE",
"196 722 CURVE SMOOTH",
"187 722 OFFCURVE",
"179 726 OFFCURVE",
"172 733 CURVE",
"166 741 OFFCURVE",
"163 750 OFFCURVE",
"163 760 CURVE SMOOTH",
"163 771 OFFCURVE",
"180 789 OFFCURVE",
"214 816 CURVE SMOOTH",
"248 843 OFFCURVE",
"272 856 OFFCURVE",
"287 856 CURVE SMOOTH",
"302 856 OFFCURVE",
"326 843 OFFCURVE",
"359 818 CURVE SMOOTH",
"392 793 OFFCURVE",
"408 773 OFFCURVE",
"408 758 CURVE SMOOTH"
);
},
{
closed = 1;
nodes = (
"331 664 LINE SMOOTH",
"363 664 OFFCURVE",
"395 656 OFFCURVE",
"426 640 CURVE SMOOTH",
"458 624 OFFCURVE",
"474 606 OFFCURVE",
"474 586 CURVE SMOOTH",
"474 555 OFFCURVE",
"461 540 OFFCURVE",
"436 540 CURVE SMOOTH",
"427 540 OFFCURVE",
"410 546 OFFCURVE",
"387 558 CURVE SMOOTH",
"364 570 OFFCURVE",
"344 576 OFFCURVE",
"328 576 CURVE SMOOTH",
"271 576 OFFCURVE",
"223 550 OFFCURVE",
"184 499 CURVE SMOOTH",
"146 448 OFFCURVE",
"127 382 OFFCURVE",
"127 303 CURVE SMOOTH",
"127 244 OFFCURVE",
"140 192 OFFCURVE",
"166 147 CURVE SMOOTH",
"192 102 OFFCURVE",
"223 80 OFFCURVE",
"258 80 CURVE SMOOTH",
"330 80 OFFCURVE",
"373 136 OFFCURVE",
"373 196 CURVE",
"375 242 OFFCURVE",
"364 277 OFFCURVE",
"315 281 CURVE",
"284 281 OFFCURVE",
"251 295 OFFCURVE",
"251 318 CURVE SMOOTH",
"251 341 OFFCURVE",
"265 364 OFFCURVE",
"288 368 CURVE",
"333 368 OFFCURVE",
"364 363 OFFCURVE",
"379 354 CURVE SMOOTH",
"395 345 OFFCURVE",
"407 337 OFFCURVE",
"415 331 CURVE SMOOTH",
"423 325 OFFCURVE",
"430 315 OFFCURVE",
"435 301 CURVE SMOOTH",
"446 273 OFFCURVE",
"451 262 OFFCURVE",
"454 221 CURVE",
"455 186 OFFCURVE",
"456 146 OFFCURVE",
"456 99 CURVE SMOOTH",
"456 53 OFFCURVE",
"453 25 OFFCURVE",
"446 14 CURVE SMOOTH",
"440 5 OFFCURVE",
"430 1 OFFCURVE",
"416 0 CURVE",
"388 0 OFFCURVE",
"380 8 OFFCURVE",
"377 49 CURVE",
"345 21 OFFCURVE",
"289 -1 OFFCURVE",
"252 -1 CURVE SMOOTH",
"193 -1 OFFCURVE",
"144 30 OFFCURVE",
"104 92 CURVE SMOOTH",
"64 155 OFFCURVE",
"44 230 OFFCURVE",
"44 318 CURVE SMOOTH",
"44 411 OFFCURVE",
"77 508 OFFCURVE",
"129 569 CURVE SMOOTH",
"184 632 OFFCURVE",
"251 664 OFFCURVE",
"331 664 CURVE SMOOTH"
);
}
);
width = 480;
}
);
unicode = 011C;
},
{
glyphname = Gcommaaccent;
lastChange = "2016-09-23 08:41:16 +0000";
layers = (
{
layerId = UUID0;
paths = (
{
closed = 1;
nodes = (
"331 664 LINE SMOOTH",
"363 664 OFFCURVE",
"395 656 OFFCURVE",
"426 640 CURVE SMOOTH",
"458 624 OFFCURVE",
"474 606 OFFCURVE",
"474 586 CURVE SMOOTH",
"474 555 OFFCURVE",
"461 540 OFFCURVE",
"436 540 CURVE SMOOTH",
"427 540 OFFCURVE",
"410 546 OFFCURVE",
"387 558 CURVE SMOOTH",
"364 570 OFFCURVE",
"344 576 OFFCURVE",
"328 576 CURVE SMOOTH",
"271 576 OFFCURVE",
"223 550 OFFCURVE",
"184 499 CURVE SMOOTH",
"146 448 OFFCURVE",
"127 382 OFFCURVE",
"127 303 CURVE SMOOTH",
"127 244 OFFCURVE",
"140 192 OFFCURVE",
"166 147 CURVE SMOOTH",
"192 102 OFFCURVE",
"223 80 OFFCURVE",
"258 80 CURVE SMOOTH",
"330 80 OFFCURVE",
"373 136 OFFCURVE",
"373 196 CURVE",
"375 242 OFFCURVE",
"364 277 OFFCURVE",
"315 281 CURVE",
"284 281 OFFCURVE",
"251 295 OFFCURVE",
"251 318 CURVE SMOOTH",
"251 341 OFFCURVE",
"265 364 OFFCURVE",
"288 368 CURVE",
"333 368 OFFCURVE",
"364 363 OFFCURVE",
"379 354 CURVE SMOOTH",
"395 345 OFFCURVE",
"407 337 OFFCURVE",
"415 331 CURVE SMOOTH",
"423 325 OFFCURVE",
"430 315 OFFCURVE",
"435 301 CURVE SMOOTH",
"446 273 OFFCURVE",
"451 262 OFFCURVE",
"454 221 CURVE",
"455 186 OFFCURVE",
"456 146 OFFCURVE",
"456 99 CURVE SMOOTH",
"456 53 OFFCURVE",
"453 25 OFFCURVE",
"446 14 CURVE SMOOTH",
"440 5 OFFCURVE",
"430 1 OFFCURVE",
"416 0 CURVE",
"388 0 OFFCURVE",
"380 8 OFFCURVE",
"377 49 CURVE",
"345 21 OFFCURVE",
"289 -1 OFFCURVE",
"252 -1 CURVE SMOOTH",
"193 -1 OFFCURVE",
"144 30 OFFCURVE",
"104 92 CURVE SMOOTH",
"64 155 OFFCURVE",
"44 230 OFFCURVE",
"44 318 CURVE SMOOTH",
"44 411 OFFCURVE",
"77 508 OFFCURVE",
"129 569 CURVE SMOOTH",
"184 632 OFFCURVE",
"251 664 OFFCURVE",
"331 664 CURVE SMOOTH"
);
},
{
closed = 1;
nodes = (
"336 -91 LINE",
"327 -119 OFFCURVE",
"310 -146 OFFCURVE",
"285 -171 CURVE SMOOTH",
"260 -196 OFFCURVE",
"241 -209 OFFCURVE",
"228 -209 CURVE SMOOTH",
"192 -209 OFFCURVE",
"178 -174 OFFCURVE",
"202 -145 CURVE",
"211 -136 OFFCURVE",
"222 -123 OFFCURVE",
"237 -107 CURVE SMOOTH",
"268 -76 OFFCURVE",
"278 -40 OFFCURVE",
"302 -40 CURVE",
"340 -44 OFFCURVE",
"343 -81 OFFCURVE",
"336 -91 CURVE"
);
}
);
width = 480;
}
);
unicode = 0122;
},
{
glyphname = Gdotaccent;
lastChange = "2016-09-23 08:41:16 +0000";
layers = (
{
layerId = UUID0;
paths = (
{
closed = 1;
nodes = (
"285 832 LINE SMOOTH",
"323 830 OFFCURVE",
"357 775 OFFCURVE",
"317 742 CURVE",
"285 706 OFFCURVE",
"231 727 OFFCURVE",
"231 780 CURVE SMOOTH",
"231 812 OFFCURVE",
"248 829 OFFCURVE",
"283 832 CURVE SMOOTH"
);
},
{
closed = 1;
nodes = (
"331 664 LINE SMOOTH",
"363 664 OFFCURVE",
"395 656 OFFCURVE",
"426 640 CURVE SMOOTH",
"458 624 OFFCURVE",
"474 606 OFFCURVE",
"474 586 CURVE SMOOTH",
"474 555 OFFCURVE",
"461 540 OFFCURVE",
"436 540 CURVE SMOOTH",
"427 540 OFFCURVE",
"410 546 OFFCURVE",
"387 558 CURVE SMOOTH",
"364 570 OFFCURVE",
"344 576 OFFCURVE",
"328 576 CURVE SMOOTH",
"271 576 OFFCURVE",
"223 550 OFFCURVE",
"184 499 CURVE SMOOTH",
"146 448 OFFCURVE",
"127 382 OFFCURVE",
"127 303 CURVE SMOOTH",
"127 244 OFFCURVE",
"140 192 OFFCURVE",
"166 147 CURVE SMOOTH",
"192 102 OFFCURVE",
"223 80 OFFCURVE",
"258 80 CURVE SMOOTH",
"330 80 OFFCURVE",
"373 136 OFFCURVE",
"373 196 CURVE",
"375 242 OFFCURVE",
"364 277 OFFCURVE",
"315 281 CURVE",
"284 281 OFFCURVE",
"251 295 OFFCURVE",
"251 318 CURVE SMOOTH",
"251 341 OFFCURVE",
"265 364 OFFCURVE",
"288 368 CURVE",
"333 368 OFFCURVE",
"364 363 OFFCURVE",
"379 354 CURVE SMOOTH",
"395 345 OFFCURVE",
"407 337 OFFCURVE",
"415 331 CURVE SMOOTH",
"423 325 OFFCURVE",
"430 315 OFFCURVE",
"435 301 CURVE SMOOTH",
"446 273 OFFCURVE",
"451 262 OFFCURVE",
"454 221 CURVE",
"455 186 OFFCURVE",
"456 146 OFFCURVE",
"456 99 CURVE SMOOTH",
"456 53 OFFCURVE",
"453 25 OFFCURVE",
"446 14 CURVE SMOOTH",
"440 5 OFFCURVE",
"430 1 OFFCURVE",
"416 0 CURVE",
"388 0 OFFCURVE",
"380 8 OFFCURVE",
"377 49 CURVE",
"345 21 OFFCURVE",
"289 -1 OFFCURVE",
"252 -1 CURVE SMOOTH",
"193 -1 OFFCURVE",
"144 30 OFFCURVE",
"104 92 CURVE SMOOTH",
"64 155 OFFCURVE",
"44 230 OFFCURVE",
"44 318 CURVE SMOOTH",
"44 411 OFFCURVE",
"77 508 OFFCURVE",
"129 569 CURVE SMOOTH",
"184 632 OFFCURVE",
"251 664 OFFCURVE",
"331 664 CURVE SMOOTH"
);
}
);
width = 480;
}
);
unicode = 0120;
},
{
glyphname = H;
lastChange = "2016-09-23 08:41:16 +0000";
layers = (
{
layerId = UUID0;
paths = (
{
closed = 1;
nodes = (
"132 383 LINE",
"184 374 OFFCURVE",
"232 370 OFFCURVE",
"275 370 CURVE SMOOTH",
"318 370 OFFCURVE",
"346 370 OFFCURVE",
"358 371 CURVE",
"357 422 OFFCURVE",
"356 470 OFFCURVE",
"356 517 CURVE SMOOTH",
"356 612 LINE SMOOTH",
"356 629 OFFCURVE",
"357 639 OFFCURVE",
"358 643 CURVE SMOOTH",
"361 652 OFFCURVE",
"375 662 OFFCURVE",
"403 662 CURVE SMOOTH",
"423 662 OFFCURVE",
"433 650 OFFCURVE",
"433 626 CURVE SMOOTH",
"433 272 LINE SMOOTH",
"433 199 OFFCURVE",
"431 118 OFFCURVE",
"428 30 CURVE SMOOTH",
"427 11 OFFCURVE",
"411 1 OFFCURVE",
"379 1 CURVE SMOOTH",
"363 1 OFFCURVE",
"355 11 OFFCURVE",
"355 30 CURVE SMOOTH",
"359 295 LINE",
"316 292 OFFCURVE",
"244 289 OFFCURVE",
"132 305 CURVE",
"132 217 OFFCURVE",
"136 125 OFFCURVE",
"144 29 CURVE SMOOTH",
"145 18 OFFCURVE",
"140 10 OFFCURVE",
"130 4 CURVE SMOOTH",
"120 -1 OFFCURVE",
"107 -4 OFFCURVE",
"92 -4 CURVE SMOOTH",
"77 -4 OFFCURVE",
"69 4 OFFCURVE",
"68 19 CURVE SMOOTH",
"59 114 OFFCURVE",
"55 207 OFFCURVE",
"55 299 CURVE",
"61 611 LINE SMOOTH",
"61 638 OFFCURVE",
"85 650 OFFCURVE",
"108 650 CURVE SMOOTH",
"127 650 OFFCURVE",
"136 641 OFFCURVE",
"136 623 CURVE SMOOTH"
);
}
);
width = 468;
}
);
unicode = 0048;
},
{
glyphname = Hbar;
lastChange = "2016-09-23 08:41:16 +0000";
layers = (
{
layerId = UUID0;
paths = (
{
closed = 1;
nodes = (
"16 500 LINE SMOOTH",
"16 535 OFFCURVE",
"29 552 OFFCURVE",
"55 552 CURVE SMOOTH",
"58 552 OFFCURVE",
"60 552 OFFCURVE",
"63 551 CURVE",
"67 551 LINE",
"67 611 LINE SMOOTH",
"67 638 OFFCURVE",
"91 650 OFFCURVE",
"114 650 CURVE SMOOTH",
"133 650 OFFCURVE",
"142 641 OFFCURVE",
"142 623 CURVE SMOOTH",
"141 544 LINE",
"214 539 OFFCURVE",
"287 536 OFFCURVE",
"362 536 CURVE",
"362 625 LINE SMOOTH",
"362 644 OFFCURVE",
"364 662 OFFCURVE",
"409 662 CURVE SMOOTH",
"429 662 OFFCURVE",
"439 651 OFFCURVE",
"439 629 CURVE SMOOTH",
"439 539 LINE",
"446 539 LINE SMOOTH",
"478 541 OFFCURVE",
"486 511 OFFCURVE",
"482 507 CURVE",
"482 475 OFFCURVE",
"469 459 OFFCURVE",
"443 458 CURVE SMOOTH",
"439 458 LINE",
"439 272 LINE SMOOTH",
"439 199 OFFCURVE",
"437 118 OFFCURVE",
"434 30 CURVE SMOOTH",
"433 11 OFFCURVE",
"417 1 OFFCURVE",
"385 1 CURVE SMOOTH",
"369 1 OFFCURVE",
"361 11 OFFCURVE",
"361 30 CURVE SMOOTH",
"365 295 LINE",
"322 292 OFFCURVE",
"250 289 OFFCURVE",
"138 305 CURVE",
"138 217 OFFCURVE",
"142 125 OFFCURVE",
"150 29 CURVE SMOOTH",
"151 18 OFFCURVE",
"146 10 OFFCURVE",
"136 4 CURVE SMOOTH",
"126 -1 OFFCURVE",
"113 -4 OFFCURVE",
"98 -4 CURVE SMOOTH",
"83 -4 OFFCURVE",
"75 4 OFFCURVE",
"74 19 CURVE SMOOTH",
"57 208 OFFCURVE",
"61 322 OFFCURVE",
"62 367 CURVE SMOOTH",
"65 468 LINE",
"51 469 LINE SMOOTH",
"28 471 OFFCURVE",
"16 481 OFFCURVE",
"16 500 CURVE SMOOTH"
);
},
{
closed = 1;
nodes = (
"364 371 LINE",
"363 388 OFFCURVE",
"362 417 OFFCURVE",
"362 456 CURVE",
"285 456 OFFCURVE",
"211 458 OFFCURVE",
"139 462 CURVE",
"138 383 LINE",
"190 374 OFFCURVE",
"238 370 OFFCURVE",
"281 370 CURVE SMOOTH",
"324 370 OFFCURVE",
"352 370 OFFCURVE",
"364 371 CURVE"
);
}
);
width = 500;
}
);
unicode = 0126;
},
{
glyphname = Hcircumflex;
lastChange = "2016-09-23 08:41:16 +0000";
layers = (
{
layerId = UUID0;
paths = (
{
closed = 1;
nodes = (
"359 754 LINE SMOOTH",
"359 745 OFFCURVE",
"355 737 OFFCURVE",
"347 730 CURVE SMOOTH",
"339 723 OFFCURVE",
"332 720 OFFCURVE",
"327 720 CURVE SMOOTH",
"322 720 OFFCURVE",
"308 731 OFFCURVE",
"283 752 CURVE SMOOTH",
"258 773 OFFCURVE",
"243 784 OFFCURVE",
"237 784 CURVE SMOOTH",
"231 784 OFFCURVE",
"217 773 OFFCURVE",
"194 751 CURVE SMOOTH",
"172 729 OFFCURVE",
"156 718 OFFCURVE",
"147 718 CURVE SMOOTH",
"138 718 OFFCURVE",
"130 722 OFFCURVE",
"123 729 CURVE",
"117 737 OFFCURVE",
"114 746 OFFCURVE",
"114 756 CURVE SMOOTH",
"114 767 OFFCURVE",
"131 785 OFFCURVE",
"165 812 CURVE SMOOTH",
"199 839 OFFCURVE",
"223 852 OFFCURVE",
"238 852 CURVE SMOOTH",
"253 852 OFFCURVE",
"277 839 OFFCURVE",
"310 814 CURVE SMOOTH",
"343 789 OFFCURVE",
"359 769 OFFCURVE",
"359 754 CURVE SMOOTH"
);
},
{
closed = 1;
nodes = (
"132 383 LINE",
"184 374 OFFCURVE",
"232 370 OFFCURVE",
"275 370 CURVE SMOOTH",
"318 370 OFFCURVE",
"346 370 OFFCURVE",
"358 371 CURVE",
"357 422 OFFCURVE",
"356 470 OFFCURVE",
"356 517 CURVE SMOOTH",
"356 612 LINE SMOOTH",
"356 629 OFFCURVE",
"357 639 OFFCURVE",
"358 643 CURVE SMOOTH",
"361 652 OFFCURVE",
"375 662 OFFCURVE",
"403 662 CURVE SMOOTH",
"423 662 OFFCURVE",
"433 650 OFFCURVE",
"433 626 CURVE SMOOTH",
"433 272 LINE SMOOTH",
"433 199 OFFCURVE",
"431 118 OFFCURVE",
"428 30 CURVE SMOOTH",
"427 11 OFFCURVE",
"411 1 OFFCURVE",
"379 1 CURVE SMOOTH",
"363 1 OFFCURVE",
"355 11 OFFCURVE",
"355 30 CURVE SMOOTH",
"359 295 LINE",
"316 292 OFFCURVE",
"244 289 OFFCURVE",
"132 305 CURVE",
"132 217 OFFCURVE",
"136 125 OFFCURVE",
"144 29 CURVE SMOOTH",
"145 18 OFFCURVE",
"140 10 OFFCURVE",
"130 4 CURVE SMOOTH",
"120 -1 OFFCURVE",
"107 -4 OFFCURVE",
"92 -4 CURVE SMOOTH",
"77 -4 OFFCURVE",
"69 4 OFFCURVE",
"68 19 CURVE SMOOTH",
"59 114 OFFCURVE",
"55 207 OFFCURVE",
"55 299 CURVE",
"61 611 LINE SMOOTH",
"61 638 OFFCURVE",
"85 650 OFFCURVE",
"108 650 CURVE SMOOTH",
"127 650 OFFCURVE",
"136 641 OFFCURVE",
"136 623 CURVE SMOOTH"
);
}
);
width = 468;
}
);
unicode = 0124;
},
{
glyphname = I;
lastChange = "2016-09-23 08:41:16 +0000";
layers = (
{
layerId = UUID0;
paths = (
{
closed = 1;
nodes = (
"160 623 LINE",
"164 276 LINE",
"164 182 OFFCURVE",
"161 102 OFFCURVE",
"156 37 CURVE",
"153 17 OFFCURVE",
"127 -1 OFFCURVE",
"104 -1 CURVE SMOOTH",
"85 -1 OFFCURVE",
"76 9 OFFCURVE",
"76 28 CURVE",
"83 95 OFFCURVE",
"86 177 OFFCURVE",
"86 276 CURVE",
"80 612 LINE",
"83 637 OFFCURVE",
"149 669 OFFCURVE",
"160 623 CURVE"
);
}
);
width = 235;
}
);
unicode = 0049;
},
{
glyphname = IJ;
lastChange = "2016-09-23 08:41:16 +0000";
layers = (
{
layerId = UUID0;
paths = (
{
closed = 1;
nodes = (
"555 644 LINE SMOOTH",
"569 464 OFFCURVE",
"576 350 OFFCURVE",
"576 302 CURVE SMOOTH",
"576 255 OFFCURVE",
"575 219 OFFCURVE",
"574 195 CURVE SMOOTH",
"571 147 OFFCURVE",
"561 84 OFFCURVE",
"542 52 CURVE SMOOTH",
"519 15 OFFCURVE",
"484 -4 OFFCURVE",
"435 -4 CURVE SMOOTH",
"338 -4 OFFCURVE",
"270 63 OFFCURVE",
"270 184 CURVE SMOOTH",
"270 204 OFFCURVE",
"295 224 OFFCURVE",
"319 224 CURVE SMOOTH",
"334 224 OFFCURVE",
"343 210 OFFCURVE",
"346 183 CURVE SMOOTH",
"355 106 OFFCURVE",
"384 67 OFFCURVE",
"433 67 CURVE SMOOTH",
"465 67 OFFCURVE",
"485 89 OFFCURVE",
"493 132 CURVE SMOOTH",
"500 169 OFFCURVE",
"503 208 OFFCURVE",
"503 251 CURVE SMOOTH",
"503 294 OFFCURVE",
"498 367 OFFCURVE",
"488 470 CURVE SMOOTH",
"479 573 OFFCURVE",
"474 628 OFFCURVE",
"474 635 CURVE SMOOTH",
"474 650 OFFCURVE",
"501 668 OFFCURVE",
"521 668 CURVE SMOOTH",
"542 668 OFFCURVE",
"554 657 OFFCURVE",
"555 644 CURVE SMOOTH"
);
},
{
closed = 1;
nodes = (
"160 623 LINE",
"164 276 LINE",
"164 182 OFFCURVE",
"161 102 OFFCURVE",
"156 37 CURVE",
"153 17 OFFCURVE",
"127 -1 OFFCURVE",
"104 -1 CURVE SMOOTH",
"85 -1 OFFCURVE",
"76 9 OFFCURVE",
"76 28 CURVE",
"83 95 OFFCURVE",
"86 177 OFFCURVE",
"86 276 CURVE",
"80 612 LINE",
"83 637 OFFCURVE",
"149 669 OFFCURVE",
"160 623 CURVE"
);
}
);
width = 605;
}
);
unicode = 0132;
},
{
glyphname = Iacute;
lastChange = "2016-09-23 08:41:16 +0000";
layers = (
{
layerId = UUID0;
paths = (
{
closed = 1;
nodes = (
"125 860 LINE SMOOTH",
"133 883 OFFCURVE",
"166 881 OFFCURVE",
"181 865 CURVE SMOOTH",
"197 849 OFFCURVE",
"194 840 OFFCURVE",
"191 833 CURVE SMOOTH",
"180 803 OFFCURVE",
"162 775 OFFCURVE",
"137 748 CURVE SMOOTH",
"112 721 OFFCURVE",
"93 708 OFFCURVE",
"80 708 CURVE SMOOTH",
"42 708 OFFCURVE",
"25 743 OFFCURVE",
"56 768 CURVE SMOOTH",
"91 797 OFFCURVE",
"114 827 OFFCURVE",
"125 860 CURVE SMOOTH"
);
},
{
closed = 1;
nodes = (
"160 623 LINE",
"164 276 LINE",
"164 182 OFFCURVE",
"161 102 OFFCURVE",
"156 37 CURVE",
"153 17 OFFCURVE",
"127 -1 OFFCURVE",
"104 -1 CURVE SMOOTH",
"85 -1 OFFCURVE",
"76 9 OFFCURVE",
"76 28 CURVE",
"83 95 OFFCURVE",
"86 177 OFFCURVE",
"86 276 CURVE",
"80 612 LINE",
"83 637 OFFCURVE",
"149 669 OFFCURVE",
"160 623 CURVE"
);
}
);
width = 235;
}
);
unicode = 00CD;
},
{
glyphname = Ibreve;
lastChange = "2016-09-23 08:41:16 +0000";
layers = (
{
layerId = UUID0;
paths = (
{
closed = 1;
nodes = (
"245 797 LINE",
"245 769 OFFCURVE",
"232 745 OFFCURVE",
"206 726 CURVE SMOOTH",
"181 707 OFFCURVE",
"152 697 OFFCURVE",
"119 697 CURVE SMOOTH",
"86 697 OFFCURVE",
"57 706 OFFCURVE",
"30 725 CURVE SMOOTH",
"4 744 OFFCURVE",
"-9 768 OFFCURVE",
"-9 798 CURVE SMOOTH",
"-9 819 OFFCURVE",
"6 837 OFFCURVE",
"30 837 CURVE SMOOTH",
"42 837 OFFCURVE",
"51 830 OFFCURVE",
"58 816 CURVE SMOOTH",
"73 789 OFFCURVE",
"75 782 OFFCURVE",
"91 770 CURVE SMOOTH",
"99 765 OFFCURVE",
"109 762 OFFCURVE",
"122 762 CURVE SMOOTH",
"149 762 OFFCURVE",
"161 776 OFFCURVE",
"180 808 CURVE SMOOTH",
"211 857 OFFCURVE",
"247 825 OFFCURVE",
"245 797 CURVE"
);
},
{
closed = 1;
nodes = (
"160 623 LINE",
"164 276 LINE",
"164 182 OFFCURVE",
"161 102 OFFCURVE",
"156 37 CURVE",
"153 17 OFFCURVE",
"127 -1 OFFCURVE",
"104 -1 CURVE SMOOTH",
"85 -1 OFFCURVE",
"76 9 OFFCURVE",
"76 28 CURVE",
"83 95 OFFCURVE",
"86 177 OFFCURVE",
"86 276 CURVE",
"80 612 LINE",
"83 637 OFFCURVE",
"149 669 OFFCURVE",
"160 623 CURVE"
);
}
);
width = 235;
}
);
unicode = 012C;
},
{
glyphname = Icaron;
lastChange = "2016-09-23 08:41:16 +0000";
layers = (
{
layerId = UUID0;
paths = (
{
closed = 1;
nodes = (
"208 850 LINE SMOOTH",
"229 850 OFFCURVE",
"243 831 OFFCURVE",
"242 810 CURVE SMOOTH",
"242 800 OFFCURVE",
"225 782 OFFCURVE",
"190 757 CURVE SMOOTH",
"155 732 OFFCURVE",
"131 719 OFFCURVE",
"117 719 CURVE SMOOTH",
"102 719 OFFCURVE",
"78 732 OFFCURVE",
"46 758 CURVE SMOOTH",
"14 785 OFFCURVE",
"-2 806 OFFCURVE",
"-2 821 CURVE SMOOTH",
"-2 840 OFFCURVE",
"20 855 OFFCURVE",
"33 854 CURVE SMOOTH",
"40 854 OFFCURVE",
"53 846 OFFCURVE",
"73 831 CURVE SMOOTH",
"94 816 OFFCURVE",
"110 801 OFFCURVE",
"121 787 CURVE",
"163 829 OFFCURVE",
"192 850 OFFCURVE",
"208 850 CURVE SMOOTH"
);
},
{
closed = 1;
nodes = (
"161 623 LINE",
"165 276 LINE",
"165 182 OFFCURVE",
"162 102 OFFCURVE",
"157 37 CURVE",
"154 17 OFFCURVE",
"128 -1 OFFCURVE",
"105 -1 CURVE SMOOTH",
"86 -1 OFFCURVE",
"77 9 OFFCURVE",
"77 28 CURVE",
"84 95 OFFCURVE",
"87 177 OFFCURVE",
"87 276 CURVE",
"81 612 LINE",
"84 637 OFFCURVE",
"150 669 OFFCURVE",
"161 623 CURVE"
);
}
);
width = 235;
}
);
unicode = 01CF;
},
{
glyphname = Icircumflex;
lastChange = "2016-09-23 08:41:16 +0000";
layers = (
{
layerId = UUID0;
paths = (
{
closed = 1;
nodes = (
"243 754 LINE SMOOTH",
"243 745 OFFCURVE",
"239 737 OFFCURVE",
"231 730 CURVE SMOOTH",
"223 723 OFFCURVE",
"216 720 OFFCURVE",
"211 720 CURVE SMOOTH",
"206 720 OFFCURVE",
"192 731 OFFCURVE",
"167 752 CURVE SMOOTH",
"142 773 OFFCURVE",
"127 784 OFFCURVE",
"121 784 CURVE SMOOTH",
"115 784 OFFCURVE",
"101 773 OFFCURVE",
"78 751 CURVE SMOOTH",
"56 729 OFFCURVE",
"40 718 OFFCURVE",
"31 718 CURVE SMOOTH",
"22 718 OFFCURVE",
"14 722 OFFCURVE",
"7 729 CURVE",
"1 737 OFFCURVE",
"-2 746 OFFCURVE",
"-2 756 CURVE SMOOTH",
"-2 767 OFFCURVE",
"15 785 OFFCURVE",
"49 812 CURVE SMOOTH",
"83 839 OFFCURVE",
"107 852 OFFCURVE",
"122 852 CURVE SMOOTH",
"137 852 OFFCURVE",
"161 839 OFFCURVE",
"194 814 CURVE SMOOTH",
"227 789 OFFCURVE",
"243 769 OFFCURVE",
"243 754 CURVE SMOOTH"
);
},
{
closed = 1;
nodes = (
"160 623 LINE",
"164 276 LINE",
"164 182 OFFCURVE",
"161 102 OFFCURVE",
"156 37 CURVE",
"153 17 OFFCURVE",
"127 -1 OFFCURVE",
"104 -1 CURVE SMOOTH",
"85 -1 OFFCURVE",
"76 9 OFFCURVE",
"76 28 CURVE",
"83 95 OFFCURVE",
"86 177 OFFCURVE",
"86 276 CURVE",
"80 612 LINE",
"83 637 OFFCURVE",
"149 669 OFFCURVE",
"160 623 CURVE"
);
}
);
width = 235;
}
);
unicode = 00CE;
},
{
glyphname = Idieresis;
lastChange = "2016-09-23 08:41:16 +0000";
layers = (
{
layerId = UUID0;
paths = (
{
closed = 1;
nodes = (
"30 712 LINE SMOOTH",
"5 712 OFFCURVE",
"-10 725 OFFCURVE",
"-15 751 CURVE",
"-15 782 OFFCURVE",
"12 809 OFFCURVE",
"39 809 CURVE SMOOTH",
"67 809 OFFCURVE",
"84 789 OFFCURVE",
"85 757 CURVE",
"81 730 OFFCURVE",
"58 712 OFFCURVE",
"30 712 CURVE SMOOTH"
);
},
{
closed = 1;
nodes = (
"210 808 LINE SMOOTH",
"234 808 OFFCURVE",
"253 793 OFFCURVE",
"254 769 CURVE",
"249 697 OFFCURVE",
"152 702 OFFCURVE",
"156 763 CURVE",
"156 793 OFFCURVE",
"174 808 OFFCURVE",
"210 808 CURVE SMOOTH"
);
},
{
closed = 1;
nodes = (
"160 623 LINE",
"164 276 LINE",
"164 182 OFFCURVE",
"161 102 OFFCURVE",
"156 37 CURVE",
"153 17 OFFCURVE",
"127 -1 OFFCURVE",
"104 -1 CURVE SMOOTH",
"85 -1 OFFCURVE",
"76 9 OFFCURVE",
"76 28 CURVE",
"83 95 OFFCURVE",
"86 177 OFFCURVE",
"86 276 CURVE",
"80 612 LINE",
"83 637 OFFCURVE",
"149 669 OFFCURVE",
"160 623 CURVE"
);
}
);
width = 235;
}
);
unicode = 00CF;
},
{
glyphname = Idot;
lastChange = "2016-09-23 08:41:16 +0000";
layers = (
{
layerId = UUID0;
paths = (
{
closed = 1;
nodes = (
"120 828 LINE SMOOTH",
"158 826 OFFCURVE",
"192 771 OFFCURVE",
"152 738 CURVE",
"120 702 OFFCURVE",
"66 723 OFFCURVE",
"66 776 CURVE SMOOTH",
"66 808 OFFCURVE",
"83 825 OFFCURVE",
"118 828 CURVE SMOOTH"
);
},
{
closed = 1;
nodes = (
"160 623 LINE",
"164 276 LINE",
"164 182 OFFCURVE",
"161 102 OFFCURVE",
"156 37 CURVE",
"153 17 OFFCURVE",
"127 -1 OFFCURVE",
"104 -1 CURVE SMOOTH",
"85 -1 OFFCURVE",
"76 9 OFFCURVE",
"76 28 CURVE",
"83 95 OFFCURVE",
"86 177 OFFCURVE",
"86 276 CURVE",
"80 612 LINE",
"83 637 OFFCURVE",
"149 669 OFFCURVE",
"160 623 CURVE"
);
}
);
width = 235;
}
);
unicode = 0130;
},
{
glyphname = Idotbelow;
lastChange = "2016-09-23 08:41:16 +0000";
layers = (
{
layerId = UUID0;
paths = (
{
closed = 1;
nodes = (
"160 623 LINE",
"164 276 LINE",
"164 182 OFFCURVE",
"161 102 OFFCURVE",
"156 37 CURVE",
"153 17 OFFCURVE",
"127 -1 OFFCURVE",
"104 -1 CURVE SMOOTH",
"85 -1 OFFCURVE",
"76 9 OFFCURVE",
"76 28 CURVE",
"83 95 OFFCURVE",
"86 177 OFFCURVE",
"86 276 CURVE",
"80 612 LINE",
"83 637 OFFCURVE",
"149 669 OFFCURVE",
"160 623 CURVE"
);
},
{
closed = 1;
nodes = (
"64 -93 LINE",
"67 -78 OFFCURVE",
"71 -66 OFFCURVE",
"78 -59 CURVE",
"101 -28 OFFCURVE",
"161 -56 OFFCURVE",
"158 -93 CURVE",
"158 -117 OFFCURVE",
"133 -145 OFFCURVE",
"109 -145 CURVE SMOOTH",
"86 -145 OFFCURVE",
"67 -125 OFFCURVE",
"64 -93 CURVE"
);
}
);
width = 235;
}
);
unicode = 1ECA;
},
{
glyphname = Igrave;
lastChange = "2016-09-23 08:41:16 +0000";
layers = (
{
layerId = UUID0;
paths = (
{
closed = 1;
nodes = (
"180 763 LINE SMOOTH",
"192 757 OFFCURVE",
"198 744 OFFCURVE",
"198 725 CURVE SMOOTH",
"198 720 OFFCURVE",
"196 715 OFFCURVE",
"192 711 CURVE",
"180 692 OFFCURVE",
"162 694 OFFCURVE",
"137 707 CURVE SMOOTH",
"125 714 OFFCURVE",
"110 726 OFFCURVE",
"91 744 CURVE SMOOTH",
"73 762 OFFCURVE",
"60 779 OFFCURVE",
"51 796 CURVE SMOOTH",
"34 831 OFFCURVE",
"38 838 OFFCURVE",
"39 849 CURVE",
"46 869 OFFCURVE",
"79 874 OFFCURVE",
"82 870 CURVE",
"92 867 OFFCURVE",
"106 851 OFFCURVE",
"123 822 CURVE SMOOTH",
"140 793 OFFCURVE",
"159 774 OFFCURVE",
"180 763 CURVE SMOOTH"
);
},
{
closed = 1;
nodes = (
"160 623 LINE",
"164 276 LINE",
"164 182 OFFCURVE",
"161 102 OFFCURVE",
"156 37 CURVE",
"153 17 OFFCURVE",
"127 -1 OFFCURVE",
"104 -1 CURVE SMOOTH",
"85 -1 OFFCURVE",
"76 9 OFFCURVE",
"76 28 CURVE",
"83 95 OFFCURVE",
"86 177 OFFCURVE",
"86 276 CURVE",
"80 612 LINE",
"83 637 OFFCURVE",
"149 669 OFFCURVE",
"160 623 CURVE"
);
}
);
width = 235;
}
);
unicode = 00CC;
},
{
glyphname = Ihookabove;
lastChange = "2016-09-23 08:41:16 +0000";
layers = (
{
layerId = UUID0;
paths = (
{
closed = 1;
nodes = (
"121 859 LINE SMOOTH",
"143 859 OFFCURVE",
"160 852 OFFCURVE",
"172 838 CURVE SMOOTH",
"184 825 OFFCURVE",
"190 813 OFFCURVE",
"190 804 CURVE SMOOTH",
"190 795 OFFCURVE",
"189 788 OFFCURVE",
"187 783 CURVE SMOOTH",
"185 778 OFFCURVE",
"174 758 OFFCURVE",
"154 724 CURVE SMOOTH",
"141 704 OFFCURVE",
"129 694 OFFCURVE",
"116 694 CURVE SMOOTH",
"112 694 OFFCURVE",
"108 695 OFFCURVE",
"105 696 CURVE SMOOTH",
"96 699 OFFCURVE",
"93 706 OFFCURVE",
"94 715 CURVE",
"103 754 OFFCURVE",
"160 799 OFFCURVE",
"120 808 CURVE",
"109 808 OFFCURVE",
"106 801 OFFCURVE",
"101 793 CURVE",
"96 782 OFFCURVE",
"82 764 OFFCURVE",
"60 786 CURVE SMOOTH",
"52 795 OFFCURVE",
"53 805 OFFCURVE",
"56 818 CURVE SMOOTH",
"59 831 OFFCURVE",
"87 859 OFFCURVE",
"118 859 CURVE SMOOTH"
);
},
{
closed = 1;
nodes = (
"160 623 LINE",
"164 276 LINE",
"164 182 OFFCURVE",
"161 102 OFFCURVE",
"156 37 CURVE",
"153 17 OFFCURVE",
"127 -1 OFFCURVE",
"104 -1 CURVE SMOOTH",
"85 -1 OFFCURVE",
"76 9 OFFCURVE",
"76 28 CURVE",
"83 95 OFFCURVE",
"86 177 OFFCURVE",
"86 276 CURVE",
"80 612 LINE",
"83 637 OFFCURVE",
"149 669 OFFCURVE",
"160 623 CURVE"
);
}
);
width = 235;
}
);
unicode = 1EC8;
},
{
glyphname = Imacron;
lastChange = "2016-09-23 08:41:16 +0000";
layers = (
{
layerId = UUID0;
paths = (
{
closed = 1;
nodes = (
"-10 796 LINE",
"107 793 LINE",
"200 793 OFFCURVE",
"244 798 OFFCURVE",
"252 798 CURVE SMOOTH",
"257 798 OFFCURVE",
"262 796 OFFCURVE",
"269 791 CURVE SMOOTH",
"282 782 OFFCURVE",
"280 775 OFFCURVE",
"280 756 CURVE SMOOTH",
"280 733 OFFCURVE",
"267 720 OFFCURVE",
"241 717 CURVE",
"176 712 OFFCURVE",
"89 712 OFFCURVE",
"-18 717 CURVE SMOOTH",
"-40 718 OFFCURVE",
"-51 727 OFFCURVE",
"-51 745 CURVE SMOOTH",
"-51 779 OFFCURVE",
"-37 796 OFFCURVE",
"-10 796 CURVE"
);
},
{
closed = 1;
nodes = (
"160 623 LINE",
"164 276 LINE",
"164 182 OFFCURVE",
"161 102 OFFCURVE",
"156 37 CURVE",
"153 17 OFFCURVE",
"127 -1 OFFCURVE",
"104 -1 CURVE SMOOTH",
"85 -1 OFFCURVE",
"76 9 OFFCURVE",
"76 28 CURVE",
"83 95 OFFCURVE",
"86 177 OFFCURVE",
"86 276 CURVE",
"80 612 LINE",
"83 637 OFFCURVE",
"149 669 OFFCURVE",
"160 623 CURVE"
);
}
);
width = 235;
}
);
unicode = 012A;
},
{
glyphname = Iogonek;
lastChange = "2016-09-23 08:41:16 +0000";
layers = (
{
layerId = UUID0;
paths = (
{
closed = 1;
nodes = (
"160 623 LINE",
"164 276 LINE",
"164 182 OFFCURVE",
"161 102 OFFCURVE",
"156 37 CURVE",
"153 26 OFFCURVE",
"151 20 OFFCURVE",
"132 4 CURVE SMOOTH",
"108 -15 OFFCURVE",
"96 -36 OFFCURVE",
"96 -58 CURVE SMOOTH",
"96 -104 OFFCURVE",
"133 -112 OFFCURVE",
"156 -95 CURVE",
"179 -80 OFFCURVE",
"192 -53 OFFCURVE",
"218 -83 CURVE",
"229 -92 OFFCURVE",
"228 -99 OFFCURVE",
"221 -111 CURVE SMOOTH",
"215 -123 OFFCURVE",
"207 -132 OFFCURVE",
"197 -138 CURVE",
"180 -151 OFFCURVE",
"160 -158 OFFCURVE",
"139 -158 CURVE SMOOTH",
"133 -158 OFFCURVE",
"127 -158 OFFCURVE",
"121 -157 CURVE SMOOTH",
"92 -154 OFFCURVE",
"71 -141 OFFCURVE",
"58 -120 CURVE SMOOTH",
"45 -99 OFFCURVE",
"38 -78 OFFCURVE",
"38 -57 CURVE SMOOTH",
"38 -20 OFFCURVE",
"51 10 OFFCURVE",
"77 35 CURVE",
"83 103 OFFCURVE",
"86 183 OFFCURVE",
"86 276 CURVE",
"80 612 LINE",
"83 637 OFFCURVE",
"149 669 OFFCURVE",
"160 623 CURVE"
);
}
);
width = 235;
}
);
unicode = 012E;
},
{
glyphname = Itilde;
lastChange = "2016-09-23 08:41:16 +0000";
layers = (
{
layerId = UUID0;
paths = (
{
closed = 1;
nodes = (
"133 804 LINE SMOOTH",
"154 769 OFFCURVE",
"170 770 OFFCURVE",
"190 802 CURVE SMOOTH",
"221 849 OFFCURVE",
"253 815 OFFCURVE",
"253 789 CURVE SMOOTH",
"253 765 OFFCURVE",
"243 747 OFFCURVE",
"223 734 CURVE SMOOTH",
"204 721 OFFCURVE",
"185 715 OFFCURVE",
"166 715 CURVE SMOOTH",
"111 715 OFFCURVE",
"102 761 OFFCURVE",
"74 761 CURVE SMOOTH",
"70 761 OFFCURVE",
"62 753 OFFCURVE",
"49 738 CURVE SMOOTH",
"36 723 OFFCURVE",
"26 716 OFFCURVE",
"17 716 CURVE SMOOTH",
"0 716 OFFCURVE",
"-17 734 OFFCURVE",
"-17 761 CURVE SMOOTH",
"-17 775 OFFCURVE",
"-7 790 OFFCURVE",
"12 806 CURVE SMOOTH",
"32 822 OFFCURVE",
"51 830 OFFCURVE",
"68 830 CURVE SMOOTH",
"104 830 OFFCURVE",
"125 817 OFFCURVE",
"133 804 CURVE SMOOTH"
);
},
{
closed = 1;
nodes = (
"160 623 LINE",
"164 276 LINE",
"164 182 OFFCURVE",
"161 102 OFFCURVE",
"156 37 CURVE",
"153 17 OFFCURVE",
"127 -1 OFFCURVE",
"104 -1 CURVE SMOOTH",
"85 -1 OFFCURVE",
"76 9 OFFCURVE",
"76 28 CURVE",
"83 95 OFFCURVE",
"86 177 OFFCURVE",
"86 276 CURVE",
"80 612 LINE",
"83 637 OFFCURVE",
"149 669 OFFCURVE",
"160 623 CURVE"
);
}
);
width = 235;
}
);
unicode = 0128;
},
{
glyphname = J;
lastChange = "2016-09-23 08:41:16 +0000";
layers = (
{
layerId = UUID0;
paths = (
{
closed = 1;
nodes = (
"320 644 LINE SMOOTH",
"334 464 OFFCURVE",
"341 350 OFFCURVE",
"341 302 CURVE SMOOTH",
"341 255 OFFCURVE",
"340 219 OFFCURVE",
"339 195 CURVE SMOOTH",
"336 147 OFFCURVE",
"326 84 OFFCURVE",
"306 52 CURVE SMOOTH",
"284 15 OFFCURVE",
"249 -4 OFFCURVE",
"200 -4 CURVE SMOOTH",
"103 -4 OFFCURVE",
"35 63 OFFCURVE",
"35 184 CURVE SMOOTH",
"35 204 OFFCURVE",
"60 224 OFFCURVE",
"84 224 CURVE SMOOTH",
"99 224 OFFCURVE",
"108 210 OFFCURVE",
"111 183 CURVE SMOOTH",
"120 106 OFFCURVE",
"149 67 OFFCURVE",
"198 67 CURVE SMOOTH",
"237 67 OFFCURVE",
"255 104 OFFCURVE",
"262 156 CURVE SMOOTH",
"266 184 OFFCURVE",
"268 217 OFFCURVE",
"268 256 CURVE SMOOTH",
"268 295 OFFCURVE",
"263 367 OFFCURVE",
"253 470 CURVE SMOOTH",
"244 573 OFFCURVE",
"239 628 OFFCURVE",
"239 635 CURVE SMOOTH",
"239 650 OFFCURVE",
"266 668 OFFCURVE",
"286 668 CURVE SMOOTH",
"307 668 OFFCURVE",
"319 657 OFFCURVE",
"320 644 CURVE SMOOTH"
);
}
);
width = 370;
}
);
unicode = 004A;
},
{
glyphname = Jcircumflex;
lastChange = "2016-09-23 08:41:16 +0000";
layers = (
{
layerId = UUID0;
paths = (
{
closed = 1;
nodes = (
"395 754 LINE SMOOTH",
"395 745 OFFCURVE",
"391 737 OFFCURVE",
"383 730 CURVE SMOOTH",
"375 723 OFFCURVE",
"368 720 OFFCURVE",
"363 720 CURVE SMOOTH",
"358 720 OFFCURVE",
"344 731 OFFCURVE",
"319 752 CURVE SMOOTH",
"294 773 OFFCURVE",
"279 784 OFFCURVE",
"273 784 CURVE SMOOTH",
"267 784 OFFCURVE",
"253 773 OFFCURVE",
"230 751 CURVE SMOOTH",
"208 729 OFFCURVE",
"192 718 OFFCURVE",
"183 718 CURVE SMOOTH",
"174 718 OFFCURVE",
"166 722 OFFCURVE",
"159 729 CURVE",
"153 737 OFFCURVE",
"150 746 OFFCURVE",
"150 756 CURVE SMOOTH",
"150 767 OFFCURVE",
"167 785 OFFCURVE",
"201 812 CURVE SMOOTH",
"235 839 OFFCURVE",
"259 852 OFFCURVE",
"274 852 CURVE SMOOTH",
"289 852 OFFCURVE",
"313 839 OFFCURVE",
"346 814 CURVE SMOOTH",
"379 789 OFFCURVE",
"395 769 OFFCURVE",
"395 754 CURVE SMOOTH"
);
},
{
closed = 1;
nodes = (
"320 644 LINE SMOOTH",
"334 464 OFFCURVE",
"341 350 OFFCURVE",
"341 302 CURVE SMOOTH",
"341 255 OFFCURVE",
"340 219 OFFCURVE",
"339 195 CURVE SMOOTH",
"336 147 OFFCURVE",
"326 84 OFFCURVE",
"306 52 CURVE SMOOTH",
"284 15 OFFCURVE",
"249 -4 OFFCURVE",
"200 -4 CURVE SMOOTH",
"103 -4 OFFCURVE",
"35 63 OFFCURVE",
"35 184 CURVE SMOOTH",
"35 204 OFFCURVE",
"60 224 OFFCURVE",
"84 224 CURVE SMOOTH",
"99 224 OFFCURVE",
"108 210 OFFCURVE",
"111 183 CURVE SMOOTH",
"120 106 OFFCURVE",
"149 67 OFFCURVE",
"198 67 CURVE SMOOTH",
"237 67 OFFCURVE",
"255 104 OFFCURVE",
"262 156 CURVE SMOOTH",
"266 184 OFFCURVE",
"268 217 OFFCURVE",
"268 256 CURVE SMOOTH",
"268 295 OFFCURVE",
"263 367 OFFCURVE",
"253 470 CURVE SMOOTH",
"244 573 OFFCURVE",
"239 628 OFFCURVE",
"239 635 CURVE SMOOTH",
"239 650 OFFCURVE",
"266 668 OFFCURVE",
"286 668 CURVE SMOOTH",
"307 668 OFFCURVE",
"319 657 OFFCURVE",
"320 644 CURVE SMOOTH"
);
}
);
width = 370;
}
);
unicode = 0134;
},
{
glyphname = K;
lastChange = "2016-09-23 08:41:16 +0000";
layers = (
{
layerId = UUID0;
paths = (
{
closed = 1;
nodes = (
"73 114 LINE SMOOTH",
"73 165 OFFCURVE",
"70 252 OFFCURVE",
"63 374 CURVE",
"57 497 OFFCURVE",
"52 574 OFFCURVE",
"47 607 CURVE",
"47 636 OFFCURVE",
"71 662 OFFCURVE",
"96 662 CURVE SMOOTH",
"112 662 OFFCURVE",
"123 652 OFFCURVE",
"128 632 CURVE",
"139 565 OFFCURVE",
"145 469 OFFCURVE",
"148 344 CURVE",
"208 399 OFFCURVE",
"254 447 OFFCURVE",
"287 486 CURVE SMOOTH",
"320 525 OFFCURVE",
"355 576 OFFCURVE",
"392 637 CURVE SMOOTH",
"403 655 OFFCURVE",
"418 664 OFFCURVE",
"439 664 CURVE SMOOTH",
"460 664 OFFCURVE",
"476 651 OFFCURVE",
"476 635 CURVE SMOOTH",
"476 614 OFFCURVE",
"457 577 OFFCURVE",
"419 524 CURVE SMOOTH",
"382 472 OFFCURVE",
"342 421 OFFCURVE",
"300 372 CURVE",
"356 316 OFFCURVE",
"404 251 OFFCURVE",
"444 178 CURVE SMOOTH",
"455 159 OFFCURVE",
"476 126 OFFCURVE",
"485 110 CURVE SMOOTH",
"521 47 OFFCURVE",
"498 2 OFFCURVE",
"464 2 CURVE SMOOTH",
"453 2 OFFCURVE",
"438 17 OFFCURVE",
"420 46 CURVE SMOOTH",
"342 172 LINE SMOOTH",
"309 227 OFFCURVE",
"273 275 OFFCURVE",
"236 316 CURVE",
"199 280 OFFCURVE",
"171 255 OFFCURVE",
"152 241 CURVE",
"156 156 OFFCURVE",
"156 101 OFFCURVE",
"153 66 CURVE SMOOTH",
"149 23 OFFCURVE",
"131 1 OFFCURVE",
"100 1 CURVE SMOOTH",
"81 1 OFFCURVE",
"72 13 OFFCURVE",
"73 36 CURVE"
);
}
);
width = 523;
}
);
unicode = 004B;
},
{
glyphname = Kcommaaccent;
lastChange = "2016-09-23 08:41:16 +0000";
layers = (
{
layerId = UUID0;
paths = (
{
closed = 1;
nodes = (
"73 114 LINE SMOOTH",
"73 165 OFFCURVE",
"70 252 OFFCURVE",
"63 374 CURVE",
"57 497 OFFCURVE",
"52 574 OFFCURVE",
"47 607 CURVE",
"47 636 OFFCURVE",
"71 662 OFFCURVE",
"96 662 CURVE SMOOTH",
"112 662 OFFCURVE",
"123 652 OFFCURVE",
"128 632 CURVE",
"139 565 OFFCURVE",
"145 469 OFFCURVE",
"148 344 CURVE",
"208 399 OFFCURVE",
"254 447 OFFCURVE",
"287 486 CURVE SMOOTH",
"320 525 OFFCURVE",
"355 576 OFFCURVE",
"392 637 CURVE SMOOTH",
"403 655 OFFCURVE",
"418 664 OFFCURVE",
"439 664 CURVE SMOOTH",
"460 664 OFFCURVE",
"476 651 OFFCURVE",
"476 635 CURVE SMOOTH",
"476 614 OFFCURVE",
"457 577 OFFCURVE",
"419 524 CURVE SMOOTH",
"382 472 OFFCURVE",
"342 421 OFFCURVE",
"300 372 CURVE",
"356 316 OFFCURVE",
"404 251 OFFCURVE",
"444 178 CURVE SMOOTH",
"455 159 OFFCURVE",
"476 126 OFFCURVE",
"485 110 CURVE SMOOTH",
"521 47 OFFCURVE",
"498 2 OFFCURVE",
"464 2 CURVE SMOOTH",
"453 2 OFFCURVE",
"438 17 OFFCURVE",
"420 46 CURVE SMOOTH",
"342 172 LINE SMOOTH",
"309 227 OFFCURVE",
"273 275 OFFCURVE",
"236 316 CURVE",
"199 280 OFFCURVE",
"171 255 OFFCURVE",
"152 241 CURVE",
"156 156 OFFCURVE",
"156 101 OFFCURVE",
"153 66 CURVE SMOOTH",
"149 23 OFFCURVE",
"131 1 OFFCURVE",
"100 1 CURVE SMOOTH",
"81 1 OFFCURVE",
"72 13 OFFCURVE",
"73 36 CURVE"
);
},
{
closed = 1;
nodes = (
"320 -90 LINE",
"311 -118 OFFCURVE",
"294 -145 OFFCURVE",
"269 -170 CURVE SMOOTH",
"244 -195 OFFCURVE",
"225 -208 OFFCURVE",
"212 -208 CURVE SMOOTH",
"176 -208 OFFCURVE",
"162 -173 OFFCURVE",
"186 -144 CURVE",
"195 -135 OFFCURVE",
"206 -122 OFFCURVE",
"221 -106 CURVE SMOOTH",
"252 -75 OFFCURVE",
"262 -39 OFFCURVE",
"286 -39 CURVE",
"324 -42 OFFCURVE",
"327 -80 OFFCURVE",
"320 -90 CURVE"
);
}
);
width = 523;
}
);
unicode = 0136;
},
{
glyphname = L;
lastChange = "2016-09-23 08:41:16 +0000";
layers = (
{
layerId = UUID0;
paths = (
{
closed = 1;
nodes = (
"27 139 LINE",
"28 217 LINE",
"37 635 LINE SMOOTH",
"37 651 OFFCURVE",
"56 661 OFFCURVE",
"83 661 CURVE SMOOTH",
"115 661 OFFCURVE",
"131 650 OFFCURVE",
"131 627 CURVE SMOOTH",
"131 620 OFFCURVE",
"127 564 OFFCURVE",
"119 459 CURVE SMOOTH",
"112 354 OFFCURVE",
"108 292 OFFCURVE",
"108 271 CURVE SMOOTH",
"108 271 OFFCURVE",
"108 236 OFFCURVE",
"108 165 CURVE SMOOTH",
"108 115 OFFCURVE",
"111 88 OFFCURVE",
"118 83 CURVE",
"128 80 OFFCURVE",
"140 78 OFFCURVE",
"153 78 CURVE",
"297 88 LINE",
"328 88 OFFCURVE",
"344 77 OFFCURVE",
"344 54 CURVE SMOOTH",
"344 36 OFFCURVE",
"335 23 OFFCURVE",
"318 14 CURVE SMOOTH",
"285 -2 OFFCURVE",
"255 -1 OFFCURVE",
"207 -1 CURVE SMOOTH",
"102 -1 OFFCURVE",
"46 2 OFFCURVE",
"37 9 CURVE SMOOTH",
"32 13 OFFCURVE",
"30 28 OFFCURVE",
"29 54 CURVE SMOOTH",
"28 107 OFFCURVE",
"27 122 OFFCURVE",
"27 139 CURVE"
);
}
);
width = 372;
}
);
unicode = 004C;
},
{
glyphname = Lacute;
lastChange = "2016-09-23 08:41:16 +0000";
layers = (
{
layerId = UUID0;
paths = (
{
closed = 1;
nodes = (
"91 860 LINE SMOOTH",
"99 883 OFFCURVE",
"132 881 OFFCURVE",
"147 865 CURVE SMOOTH",
"163 849 OFFCURVE",
"160 840 OFFCURVE",
"157 833 CURVE SMOOTH",
"146 803 OFFCURVE",
"128 775 OFFCURVE",
"103 748 CURVE SMOOTH",
"78 721 OFFCURVE",
"59 708 OFFCURVE",
"46 708 CURVE SMOOTH",
"8 708 OFFCURVE",
"-9 743 OFFCURVE",
"22 768 CURVE SMOOTH",
"57 797 OFFCURVE",
"80 827 OFFCURVE",
"91 860 CURVE SMOOTH"
);
},
{
closed = 1;
nodes = (
"27 139 LINE",
"28 217 LINE",
"37 635 LINE SMOOTH",
"37 651 OFFCURVE",
"56 661 OFFCURVE",
"83 661 CURVE SMOOTH",
"115 661 OFFCURVE",
"131 650 OFFCURVE",
"131 627 CURVE SMOOTH",
"131 620 OFFCURVE",
"127 564 OFFCURVE",
"119 459 CURVE SMOOTH",
"112 354 OFFCURVE",
"108 292 OFFCURVE",
"108 271 CURVE SMOOTH",
"108 165 LINE SMOOTH",
"108 115 OFFCURVE",
"111 88 OFFCURVE",
"118 83 CURVE",
"128 80 OFFCURVE",
"140 78 OFFCURVE",
"153 78 CURVE",
"297 88 LINE",
"328 88 OFFCURVE",
"344 77 OFFCURVE",
"344 54 CURVE SMOOTH",
"344 36 OFFCURVE",
"335 23 OFFCURVE",
"318 14 CURVE SMOOTH",
"285 -2 OFFCURVE",
"255 -1 OFFCURVE",
"207 -1 CURVE SMOOTH",
"102 -1 OFFCURVE",
"46 2 OFFCURVE",
"37 9 CURVE SMOOTH",
"32 13 OFFCURVE",
"30 28 OFFCURVE",
"29 54 CURVE SMOOTH",
"28 107 OFFCURVE",
"27 122 OFFCURVE",
"27 139 CURVE"
);
}
);
width = 372;
}
);
unicode = 0139;
},
{
glyphname = Lcaron;
lastChange = "2016-09-23 08:41:16 +0000";
layers = (
{
layerId = UUID0;
paths = (
{
closed = 1;
nodes = (
"311 627 LINE SMOOTH",
"311 589 OFFCURVE",
"304 553 OFFCURVE",
"291 520 CURVE SMOOTH",
"278 487 OFFCURVE",
"260 470 OFFCURVE",
"238 470 CURVE SMOOTH",
"216 470 OFFCURVE",
"205 481 OFFCURVE",
"205 504 CURVE SMOOTH",
"205 513 OFFCURVE",
"211 530 OFFCURVE",
"222 554 CURVE SMOOTH",
"234 578 OFFCURVE",
"240 603 OFFCURVE",
"240 630 CURVE SMOOTH",
"240 671 OFFCURVE",
"311 674 OFFCURVE",
"311 627 CURVE SMOOTH"
);
},
{
closed = 1;
nodes = (
"27 139 LINE",
"28 217 LINE",
"37 635 LINE SMOOTH",
"37 651 OFFCURVE",
"56 661 OFFCURVE",
"83 661 CURVE SMOOTH",
"115 661 OFFCURVE",
"131 650 OFFCURVE",
"131 627 CURVE SMOOTH",
"131 620 OFFCURVE",
"127 564 OFFCURVE",
"119 459 CURVE SMOOTH",
"112 354 OFFCURVE",
"108 292 OFFCURVE",
"108 271 CURVE SMOOTH",
"108 165 LINE SMOOTH",
"108 115 OFFCURVE",
"111 88 OFFCURVE",
"118 83 CURVE",
"128 80 OFFCURVE",
"140 78 OFFCURVE",
"153 78 CURVE",
"297 88 LINE",
"328 88 OFFCURVE",
"344 77 OFFCURVE",
"344 54 CURVE SMOOTH",
"344 36 OFFCURVE",
"335 23 OFFCURVE",
"318 14 CURVE SMOOTH",
"285 -2 OFFCURVE",
"255 -1 OFFCURVE",
"207 -1 CURVE SMOOTH",
"102 -1 OFFCURVE",
"46 2 OFFCURVE",
"37 9 CURVE SMOOTH",
"32 13 OFFCURVE",
"30 28 OFFCURVE",
"29 54 CURVE SMOOTH",
"28 107 OFFCURVE",
"27 122 OFFCURVE",
"27 139 CURVE"
);
}
);
width = 372;
}
);
unicode = 013D;
},
{
glyphname = Lcommaaccent;
lastChange = "2016-09-23 08:41:16 +0000";
layers = (
{
layerId = UUID0;
paths = (
{
closed = 1;
nodes = (
"27 139 LINE",
"28 217 LINE",
"37 635 LINE SMOOTH",
"37 651 OFFCURVE",
"56 661 OFFCURVE",
"83 661 CURVE SMOOTH",
"115 661 OFFCURVE",
"131 650 OFFCURVE",
"131 627 CURVE SMOOTH",
"131 620 OFFCURVE",
"127 564 OFFCURVE",
"119 459 CURVE SMOOTH",
"112 354 OFFCURVE",
"108 292 OFFCURVE",
"108 271 CURVE SMOOTH",
"108 271 OFFCURVE",
"108 236 OFFCURVE",
"108 165 CURVE SMOOTH",
"108 115 OFFCURVE",
"111 88 OFFCURVE",
"118 83 CURVE",
"128 80 OFFCURVE",
"140 78 OFFCURVE",
"153 78 CURVE",
"297 88 LINE",
"328 88 OFFCURVE",
"344 77 OFFCURVE",
"344 54 CURVE SMOOTH",
"344 36 OFFCURVE",
"335 23 OFFCURVE",
"318 14 CURVE SMOOTH",
"285 -2 OFFCURVE",
"255 -1 OFFCURVE",
"207 -1 CURVE SMOOTH",
"102 -1 OFFCURVE",
"46 2 OFFCURVE",
"37 9 CURVE SMOOTH",
"32 13 OFFCURVE",
"30 28 OFFCURVE",
"29 54 CURVE SMOOTH",
"28 107 OFFCURVE",
"27 122 OFFCURVE",
"27 139 CURVE"
);
},
{
closed = 1;
nodes = (
"235 -90 LINE",
"226 -118 OFFCURVE",
"209 -145 OFFCURVE",
"184 -170 CURVE SMOOTH",
"159 -195 OFFCURVE",
"140 -208 OFFCURVE",
"127 -208 CURVE SMOOTH",
"91 -208 OFFCURVE",
"77 -173 OFFCURVE",
"101 -144 CURVE",
"110 -135 OFFCURVE",
"121 -122 OFFCURVE",
"136 -106 CURVE SMOOTH",
"167 -75 OFFCURVE",
"177 -39 OFFCURVE",
"201 -39 CURVE",
"239 -42 OFFCURVE",
"242 -80 OFFCURVE",
"235 -90 CURVE"
);
}
);
width = 372;
}
);
unicode = 013B;
},
{
glyphname = Ldot;
lastChange = "2016-09-23 08:41:16 +0000";
layers = (
{
layerId = UUID0;
paths = (
{
closed = 1;
nodes = (
"27 139 LINE",
"28 217 LINE",
"37 635 LINE SMOOTH",
"37 651 OFFCURVE",
"56 661 OFFCURVE",
"83 661 CURVE SMOOTH",
"115 661 OFFCURVE",
"131 650 OFFCURVE",
"131 627 CURVE SMOOTH",
"131 620 OFFCURVE",
"127 564 OFFCURVE",
"119 459 CURVE SMOOTH",
"112 354 OFFCURVE",
"108 292 OFFCURVE",
"108 271 CURVE SMOOTH",
"108 271 OFFCURVE",
"108 236 OFFCURVE",
"108 165 CURVE SMOOTH",
"108 115 OFFCURVE",
"111 88 OFFCURVE",
"118 83 CURVE",
"128 80 OFFCURVE",
"140 78 OFFCURVE",
"153 78 CURVE",
"297 88 LINE",
"328 88 OFFCURVE",
"344 77 OFFCURVE",
"344 54 CURVE SMOOTH",
"344 36 OFFCURVE",
"335 23 OFFCURVE",
"318 14 CURVE SMOOTH",
"285 -2 OFFCURVE",
"255 -1 OFFCURVE",
"207 -1 CURVE SMOOTH",
"102 -1 OFFCURVE",
"46 2 OFFCURVE",
"37 9 CURVE SMOOTH",
"32 13 OFFCURVE",
"30 28 OFFCURVE",
"29 54 CURVE SMOOTH",
"28 107 OFFCURVE",
"27 122 OFFCURVE",
"27 139 CURVE"
);
},
{
closed = 1;
nodes = (
"309 277 LINE",
"309 248 OFFCURVE",
"284 218 OFFCURVE",
"255 218 CURVE SMOOTH",
"227 218 OFFCURVE",
"200 233 OFFCURVE",
"200 265 CURVE SMOOTH",
"200 297 OFFCURVE",
"224 337 OFFCURVE",
"252 337 CURVE SMOOTH",
"281 337 OFFCURVE",
"305 314 OFFCURVE",
"309 277 CURVE"
);
}
);
width = 372;
}
);
unicode = 013F;
},
{
glyphname = Lslash;
lastChange = "2016-09-23 08:41:16 +0000";
layers = (
{
layerId = UUID0;
paths = (
{
closed = 1;
nodes = (
"122 139 LINE",
"123 217 LINE",
"124 264 LINE",
"77 241 LINE SMOOTH",
"64 234 OFFCURVE",
"44 230 OFFCURVE",
"29 255 CURVE",
"20 274 OFFCURVE",
"21 281 OFFCURVE",
"25 290 CURVE SMOOTH",
"30 301 OFFCURVE",
"65 321 OFFCURVE",
"126 354 CURVE",
"132 635 LINE SMOOTH",
"132 651 OFFCURVE",
"151 661 OFFCURVE",
"178 661 CURVE SMOOTH",
"210 661 OFFCURVE",
"226 650 OFFCURVE",
"226 627 CURVE SMOOTH",
"226 616 OFFCURVE",
"224 582 OFFCURVE",
"219 525 CURVE SMOOTH",
"215 468 OFFCURVE",
"212 428 OFFCURVE",
"211 405 CURVE",
"231 419 OFFCURVE",
"248 431 OFFCURVE",
"261 442 CURVE SMOOTH",
"286 463 OFFCURVE",
"306 463 OFFCURVE",
"319 442 CURVE SMOOTH",
"331 425 OFFCURVE",
"335 403 OFFCURVE",
"306 379 CURVE",
"276 356 OFFCURVE",
"242 332 OFFCURVE",
"205 309 CURVE",
"204 277 OFFCURVE",
"203 257 OFFCURVE",
"203 250 CURVE SMOOTH",
"203 165 LINE SMOOTH",
"203 115 OFFCURVE",
"206 88 OFFCURVE",
"213 83 CURVE",
"223 80 OFFCURVE",
"235 78 OFFCURVE",
"248 78 CURVE",
"392 88 LINE",
"423 88 OFFCURVE",
"439 77 OFFCURVE",
"439 54 CURVE SMOOTH",
"439 36 OFFCURVE",
"430 23 OFFCURVE",
"413 14 CURVE SMOOTH",
"380 -2 OFFCURVE",
"350 -1 OFFCURVE",
"302 -1 CURVE SMOOTH",
"197 -1 OFFCURVE",
"140 2 OFFCURVE",
"132 9 CURVE SMOOTH",
"127 13 OFFCURVE",
"125 28 OFFCURVE",
"124 54 CURVE SMOOTH",
"123 107 OFFCURVE",
"122 122 OFFCURVE",
"122 139 CURVE"
);
}
);
width = 450;
}
);
unicode = 0141;
},
{
glyphname = M;
lastChange = "2016-09-23 08:41:16 +0000";
layers = (
{
layerId = UUID0;
paths = (
{
closed = 1;
nodes = (
"513 666 LINE SMOOTH",
"529 666 OFFCURVE",
"539 654 OFFCURVE",
"544 631 CURVE",
"547 522 OFFCURVE",
"549 404 OFFCURVE",
"549 275 CURVE SMOOTH",
"549 147 OFFCURVE",
"548 73 OFFCURVE",
"547 53 CURVE SMOOTH",
"544 13 OFFCURVE",
"533 -1 OFFCURVE",
"494 -1 CURVE SMOOTH",
"477 -1 OFFCURVE",
"468 10 OFFCURVE",
"468 31 CURVE SMOOTH",
"468 257 LINE SMOOTH",
"468 294 OFFCURVE",
"467 331 OFFCURVE",
"466 370 CURVE SMOOTH",
"465 409 OFFCURVE",
"464 433 OFFCURVE",
"464 443 CURVE",
"441 404 OFFCURVE",
"411 372 OFFCURVE",
"374 347 CURVE SMOOTH",
"337 322 OFFCURVE",
"295 310 OFFCURVE",
"249 310 CURVE SMOOTH",
"203 310 OFFCURVE",
"164 329 OFFCURVE",
"133 367 CURVE",
"130 286 OFFCURVE",
"131 170 OFFCURVE",
"132 47 CURVE SMOOTH",
"132 14 OFFCURVE",
"106 -1 OFFCURVE",
"78 -1 CURVE SMOOTH",
"60 -1 OFFCURVE",
"51 10 OFFCURVE",
"51 32 CURVE SMOOTH",
"52 92 OFFCURVE",
"52 187 OFFCURVE",
"52 317 CURVE SMOOTH",
"52 601 LINE SMOOTH",
"52 624 OFFCURVE",
"70 650 OFFCURVE",
"90 650 CURVE SMOOTH",
"111 650 OFFCURVE",
"132 639 OFFCURVE",
"133 616 CURVE SMOOTH",
"138 468 OFFCURVE",
"186 397 OFFCURVE",
"245 397 CURVE SMOOTH",
"274 397 OFFCURVE",
"299 402 OFFCURVE",
"320 411 CURVE SMOOTH",
"363 431 OFFCURVE",
"387 452 OFFCURVE",
"412 499 CURVE SMOOTH",
"430 532 OFFCURVE",
"447 573 OFFCURVE",
"464 622 CURVE SMOOTH",
"474 651 OFFCURVE",
"490 666 OFFCURVE",
"513 666 CURVE SMOOTH"
);
}
);
width = 595;
}
);
unicode = 004D;
},
{
glyphname = Macute;
lastChange = "2016-09-23 08:41:16 +0000";
layers = (
{
layerId = UUID0;
paths = (
{
closed = 1;
nodes = (
"286 860 LINE SMOOTH",
"294 883 OFFCURVE",
"327 881 OFFCURVE",
"342 865 CURVE SMOOTH",
"358 849 OFFCURVE",
"355 840 OFFCURVE",
"352 833 CURVE SMOOTH",
"341 803 OFFCURVE",
"323 775 OFFCURVE",
"298 748 CURVE SMOOTH",
"273 721 OFFCURVE",
"254 708 OFFCURVE",
"241 708 CURVE SMOOTH",
"202 708 OFFCURVE",
"187 743 OFFCURVE",
"216 768 CURVE SMOOTH",
"252 797 OFFCURVE",
"275 827 OFFCURVE",
"286 860 CURVE SMOOTH"
);
},
{
closed = 1;
nodes = (
"513 666 LINE SMOOTH",
"529 666 OFFCURVE",
"539 654 OFFCURVE",
"544 631 CURVE",
"547 522 OFFCURVE",
"549 404 OFFCURVE",
"549 275 CURVE SMOOTH",
"549 147 OFFCURVE",
"548 73 OFFCURVE",
"547 53 CURVE SMOOTH",
"544 13 OFFCURVE",
"533 -1 OFFCURVE",
"494 -1 CURVE SMOOTH",
"477 -1 OFFCURVE",
"468 10 OFFCURVE",
"468 31 CURVE SMOOTH",
"468 257 LINE SMOOTH",
"468 294 OFFCURVE",
"467 331 OFFCURVE",
"466 370 CURVE SMOOTH",
"465 409 OFFCURVE",
"464 433 OFFCURVE",
"464 443 CURVE",
"441 404 OFFCURVE",
"411 372 OFFCURVE",
"374 347 CURVE SMOOTH",
"337 322 OFFCURVE",
"295 310 OFFCURVE",
"249 310 CURVE SMOOTH",
"203 310 OFFCURVE",
"164 329 OFFCURVE",
"133 367 CURVE",
"130 286 OFFCURVE",
"131 170 OFFCURVE",
"132 47 CURVE SMOOTH",
"132 14 OFFCURVE",
"106 -1 OFFCURVE",
"78 -1 CURVE SMOOTH",
"60 -1 OFFCURVE",
"51 10 OFFCURVE",
"51 32 CURVE SMOOTH",
"52 92 OFFCURVE",
"52 187 OFFCURVE",
"52 317 CURVE SMOOTH",
"52 601 LINE SMOOTH",
"52 624 OFFCURVE",
"70 650 OFFCURVE",
"90 650 CURVE SMOOTH",
"111 650 OFFCURVE",
"132 639 OFFCURVE",
"133 616 CURVE SMOOTH",
"138 468 OFFCURVE",
"186 397 OFFCURVE",
"245 397 CURVE SMOOTH",
"274 397 OFFCURVE",
"299 402 OFFCURVE",
"320 411 CURVE SMOOTH",
"363 431 OFFCURVE",
"387 452 OFFCURVE",
"412 499 CURVE SMOOTH",
"430 532 OFFCURVE",
"447 573 OFFCURVE",
"464 622 CURVE SMOOTH",
"474 651 OFFCURVE",
"490 666 OFFCURVE",
"513 666 CURVE SMOOTH"
);
}
);
width = 595;
}
);
unicode = 1E3E;
},
{
glyphname = N;
lastChange = "2016-09-23 08:41:16 +0000";
layers = (
{
layerId = UUID0;
paths = (
{
closed = 1;
nodes = (
"491 617 LINE",
"491 356 OFFCURVE",
"492 199 OFFCURVE",
"494 144 CURVE",
"497 90 OFFCURVE",
"498 62 OFFCURVE",
"498 61 CURVE SMOOTH",
"498 32 OFFCURVE",
"479 0 OFFCURVE",
"459 0 CURVE SMOOTH",
"433 0 OFFCURVE",
"423 2 OFFCURVE",
"412 13 CURVE SMOOTH",
"402 23 LINE SMOOTH",
"397 28 OFFCURVE",
"386 48 OFFCURVE",
"381 57 CURVE SMOOTH",
"368 81 LINE",
"363 93 OFFCURVE",
"350 117 OFFCURVE",
"331 153 CURVE SMOOTH",
"280 250 LINE",
"227 347 OFFCURVE",
"178 423 OFFCURVE",
"133 479 CURVE",
"133 262 OFFCURVE",
"127 112 OFFCURVE",
"115 28 CURVE SMOOTH",
"113 12 OFFCURVE",
"101 4 OFFCURVE",
"78 4 CURVE SMOOTH",
"57 4 OFFCURVE",
"41 14 OFFCURVE",
"41 38 CURVE SMOOTH",
"41 50 OFFCURVE",
"43 116 OFFCURVE",
"48 236 CURVE SMOOTH",
"53 356 OFFCURVE",
"56 431 OFFCURVE",
"56 460 CURVE SMOOTH",
"56 517 LINE SMOOTH",
"56 565 OFFCURVE",
"60 592 OFFCURVE",
"67 598 CURVE SMOOTH",
"74 604 OFFCURVE",
"82 607 OFFCURVE",
"90 607 CURVE SMOOTH",
"127 607 OFFCURVE",
"183 547 OFFCURVE",
"258 427 CURVE SMOOTH",
"273 404 OFFCURVE",
"301 355 OFFCURVE",
"342 280 CURVE SMOOTH",
"383 206 OFFCURVE",
"408 160 OFFCURVE",
"416 143 CURVE",
"404 558 LINE",
"404 615 OFFCURVE",
"410 648 OFFCURVE",
"423 656 CURVE",
"441 672 OFFCURVE",
"492 657 OFFCURVE",
"491 617 CURVE"
);
}
);
width = 532;
}
);
unicode = 004E;
},
{
glyphname = Nacute;
lastChange = "2016-09-23 08:41:16 +0000";
layers = (
{
layerId = UUID0;
paths = (
{
closed = 1;
nodes = (
"273 860 LINE SMOOTH",
"281 883 OFFCURVE",
"314 881 OFFCURVE",
"329 865 CURVE SMOOTH",
"345 849 OFFCURVE",
"342 840 OFFCURVE",
"339 833 CURVE SMOOTH",
"328 803 OFFCURVE",
"310 775 OFFCURVE",
"285 748 CURVE SMOOTH",
"260 721 OFFCURVE",
"241 708 OFFCURVE",
"228 708 CURVE SMOOTH",
"190 708 OFFCURVE",
"173 743 OFFCURVE",
"204 768 CURVE SMOOTH",
"239 797 OFFCURVE",
"262 827 OFFCURVE",
"273 860 CURVE SMOOTH"
);
},
{
closed = 1;
nodes = (
"491 617 LINE",
"491 356 OFFCURVE",
"492 199 OFFCURVE",
"494 144 CURVE",
"497 90 OFFCURVE",
"498 62 OFFCURVE",
"498 61 CURVE SMOOTH",
"498 32 OFFCURVE",
"479 0 OFFCURVE",
"459 0 CURVE SMOOTH",
"433 0 OFFCURVE",
"423 2 OFFCURVE",
"412 13 CURVE SMOOTH",
"402 23 LINE SMOOTH",
"397 28 OFFCURVE",
"386 48 OFFCURVE",
"381 57 CURVE SMOOTH",
"368 81 LINE",
"363 93 OFFCURVE",
"350 117 OFFCURVE",
"331 153 CURVE SMOOTH",
"280 250 LINE",
"227 347 OFFCURVE",
"178 423 OFFCURVE",
"133 479 CURVE",
"133 262 OFFCURVE",
"127 112 OFFCURVE",
"115 28 CURVE SMOOTH",
"113 12 OFFCURVE",
"101 4 OFFCURVE",
"78 4 CURVE SMOOTH",
"57 4 OFFCURVE",
"41 14 OFFCURVE",
"41 38 CURVE SMOOTH",
"41 50 OFFCURVE",
"43 116 OFFCURVE",
"48 236 CURVE SMOOTH",
"53 356 OFFCURVE",
"56 431 OFFCURVE",
"56 460 CURVE SMOOTH",
"56 517 LINE SMOOTH",
"56 565 OFFCURVE",
"60 592 OFFCURVE",
"67 598 CURVE SMOOTH",
"74 604 OFFCURVE",
"82 607 OFFCURVE",
"90 607 CURVE SMOOTH",
"127 607 OFFCURVE",
"183 547 OFFCURVE",
"258 427 CURVE SMOOTH",
"273 404 OFFCURVE",
"301 355 OFFCURVE",
"342 280 CURVE SMOOTH",
"383 206 OFFCURVE",
"408 160 OFFCURVE",
"416 143 CURVE",
"404 558 LINE",
"404 615 OFFCURVE",
"410 648 OFFCURVE",
"423 656 CURVE",
"441 672 OFFCURVE",
"492 657 OFFCURVE",
"491 617 CURVE"
);
}
);
width = 532;
}
);
unicode = 0143;
},
{
glyphname = Ncaron;
lastChange = "2016-09-23 08:41:16 +0000";
layers = (
{
layerId = UUID0;
paths = (
{
closed = 1;
nodes = (
"355 850 LINE SMOOTH",
"376 850 OFFCURVE",
"390 831 OFFCURVE",
"389 810 CURVE SMOOTH",
"389 800 OFFCURVE",
"372 782 OFFCURVE",
"337 757 CURVE SMOOTH",
"302 732 OFFCURVE",
"278 719 OFFCURVE",
"264 719 CURVE SMOOTH",
"249 719 OFFCURVE",
"225 732 OFFCURVE",
"193 758 CURVE SMOOTH",
"161 785 OFFCURVE",
"145 806 OFFCURVE",
"145 821 CURVE SMOOTH",
"145 840 OFFCURVE",
"167 855 OFFCURVE",
"180 854 CURVE SMOOTH",
"187 854 OFFCURVE",
"200 846 OFFCURVE",
"220 831 CURVE SMOOTH",
"241 816 OFFCURVE",
"257 801 OFFCURVE",
"268 787 CURVE",
"310 829 OFFCURVE",
"339 850 OFFCURVE",
"355 850 CURVE SMOOTH"
);
},
{
closed = 1;
nodes = (
"491 617 LINE",
"491 356 OFFCURVE",
"492 199 OFFCURVE",
"494 144 CURVE",
"497 90 OFFCURVE",
"498 62 OFFCURVE",
"498 61 CURVE SMOOTH",
"498 32 OFFCURVE",
"479 0 OFFCURVE",
"459 0 CURVE SMOOTH",
"433 0 OFFCURVE",
"423 2 OFFCURVE",
"412 13 CURVE SMOOTH",
"402 23 LINE SMOOTH",
"397 28 OFFCURVE",
"386 48 OFFCURVE",
"381 57 CURVE SMOOTH",
"368 81 LINE",
"363 93 OFFCURVE",
"350 117 OFFCURVE",
"331 153 CURVE SMOOTH",
"280 250 LINE",
"227 347 OFFCURVE",
"178 423 OFFCURVE",
"133 479 CURVE",
"133 262 OFFCURVE",
"127 112 OFFCURVE",
"115 28 CURVE SMOOTH",
"113 12 OFFCURVE",
"101 4 OFFCURVE",
"78 4 CURVE SMOOTH",
"57 4 OFFCURVE",
"41 14 OFFCURVE",
"41 38 CURVE SMOOTH",
"41 50 OFFCURVE",
"43 116 OFFCURVE",
"48 236 CURVE SMOOTH",
"53 356 OFFCURVE",
"56 431 OFFCURVE",
"56 460 CURVE SMOOTH",
"56 517 LINE SMOOTH",
"56 565 OFFCURVE",
"60 592 OFFCURVE",
"67 598 CURVE SMOOTH",
"74 604 OFFCURVE",
"82 607 OFFCURVE",
"90 607 CURVE SMOOTH",
"127 607 OFFCURVE",
"183 547 OFFCURVE",
"258 427 CURVE SMOOTH",
"273 404 OFFCURVE",
"301 355 OFFCURVE",
"342 280 CURVE SMOOTH",
"383 206 OFFCURVE",
"408 160 OFFCURVE",
"416 143 CURVE",
"404 558 LINE",
"404 615 OFFCURVE",
"410 648 OFFCURVE",
"423 656 CURVE",
"441 672 OFFCURVE",
"492 657 OFFCURVE",
"491 617 CURVE"
);
}
);
width = 532;
}
);
unicode = 0147;
},
{
glyphname = Ncommaaccent;
lastChange = "2016-09-23 08:41:16 +0000";
layers = (
{
layerId = UUID0;
paths = (
{
closed = 1;
nodes = (
"491 617 LINE",
"491 356 OFFCURVE",
"492 199 OFFCURVE",
"494 144 CURVE",
"497 90 OFFCURVE",
"498 62 OFFCURVE",
"498 61 CURVE SMOOTH",
"498 32 OFFCURVE",
"479 0 OFFCURVE",
"459 0 CURVE SMOOTH",
"433 0 OFFCURVE",
"423 2 OFFCURVE",
"412 13 CURVE SMOOTH",
"402 23 LINE SMOOTH",
"397 28 OFFCURVE",
"386 48 OFFCURVE",
"381 57 CURVE SMOOTH",
"368 81 LINE",
"363 93 OFFCURVE",
"350 117 OFFCURVE",
"331 153 CURVE SMOOTH",
"280 250 LINE",
"227 347 OFFCURVE",
"178 423 OFFCURVE",
"133 479 CURVE",
"133 262 OFFCURVE",
"127 112 OFFCURVE",
"115 28 CURVE SMOOTH",
"113 12 OFFCURVE",
"101 4 OFFCURVE",
"78 4 CURVE SMOOTH",
"57 4 OFFCURVE",
"41 14 OFFCURVE",
"41 38 CURVE SMOOTH",
"41 50 OFFCURVE",
"43 116 OFFCURVE",
"48 236 CURVE SMOOTH",
"53 356 OFFCURVE",
"56 431 OFFCURVE",
"56 460 CURVE SMOOTH",
"56 517 LINE SMOOTH",
"56 565 OFFCURVE",
"60 592 OFFCURVE",
"67 598 CURVE SMOOTH",
"74 604 OFFCURVE",
"82 607 OFFCURVE",
"90 607 CURVE SMOOTH",
"127 607 OFFCURVE",
"183 547 OFFCURVE",
"258 427 CURVE SMOOTH",
"273 404 OFFCURVE",
"301 355 OFFCURVE",
"342 280 CURVE SMOOTH",
"383 206 OFFCURVE",
"408 160 OFFCURVE",
"416 143 CURVE",
"404 558 LINE",
"404 615 OFFCURVE",
"410 648 OFFCURVE",
"423 656 CURVE",
"441 672 OFFCURVE",
"492 657 OFFCURVE",
"491 617 CURVE"
);
},
{
closed = 1;
nodes = (
"322 -90 LINE",
"313 -118 OFFCURVE",
"296 -145 OFFCURVE",
"271 -170 CURVE SMOOTH",
"246 -195 OFFCURVE",
"227 -208 OFFCURVE",
"214 -208 CURVE SMOOTH",
"178 -208 OFFCURVE",
"164 -173 OFFCURVE",
"188 -144 CURVE",
"197 -135 OFFCURVE",
"208 -122 OFFCURVE",
"223 -106 CURVE SMOOTH",
"254 -75 OFFCURVE",
"264 -39 OFFCURVE",
"288 -39 CURVE",
"326 -42 OFFCURVE",
"329 -80 OFFCURVE",
"322 -90 CURVE"
);
}
);
width = 532;
}
);
unicode = 0145;
},
{
glyphname = Eng;
lastChange = "2016-09-23 08:41:16 +0000";
layers = (
{
layerId = UUID0;
paths = (
{
closed = 1;
nodes = (
"491 617 LINE",
"499 4 LINE SMOOTH",
"499 -34 OFFCURVE",
"496 -59 OFFCURVE",
"489 -72 CURVE SMOOTH",
"475 -99 OFFCURVE",
"457 -120 OFFCURVE",
"436 -134 CURVE",
"419 -147 OFFCURVE",
"398 -154 OFFCURVE",
"374 -154 CURVE SMOOTH",
"343 -154 OFFCURVE",
"317 -141 OFFCURVE",
"295 -114 CURVE SMOOTH",
"268 -81 OFFCURVE",
"271 -53 OFFCURVE",
"287 -40 CURVE",
"307 -28 OFFCURVE",
"331 -24 OFFCURVE",
"344 -53 CURVE SMOOTH",
"357 -85 OFFCURVE",
"389 -82 OFFCURVE",
"406 -62 CURVE SMOOTH",
"429 -37 OFFCURVE",
"426 -3 OFFCURVE",
"414 17 CURVE SMOOTH",
"310 195 OFFCURVE",
"216 349 OFFCURVE",
"133 479 CURVE",
"133 262 OFFCURVE",
"127 112 OFFCURVE",
"115 28 CURVE SMOOTH",
"113 12 OFFCURVE",
"101 4 OFFCURVE",
"78 4 CURVE SMOOTH",
"57 4 OFFCURVE",
"41 14 OFFCURVE",
"41 38 CURVE SMOOTH",
"41 50 OFFCURVE",
"43 116 OFFCURVE",
"48 236 CURVE SMOOTH",
"53 356 OFFCURVE",
"56 431 OFFCURVE",
"56 460 CURVE SMOOTH",
"56 517 LINE SMOOTH",
"56 565 OFFCURVE",
"60 592 OFFCURVE",
"67 598 CURVE SMOOTH",
"74 604 OFFCURVE",
"82 607 OFFCURVE",
"90 607 CURVE SMOOTH",
"127 607 OFFCURVE",
"183 547 OFFCURVE",
"258 427 CURVE SMOOTH",
"274 402 OFFCURVE",
"303 353 OFFCURVE",
"344 281 CURVE SMOOTH",
"385 209 OFFCURVE",
"410 165 OFFCURVE",
"417 149 CURVE",
"404 558 LINE",
"404 577 LINE SMOOTH",
"404 622 OFFCURVE",
"410 648 OFFCURVE",
"423 656 CURVE",
"441 672 OFFCURVE",
"492 657 OFFCURVE",
"491 617 CURVE"
);
}
);
width = 532;
}
);
unicode = 014A;
},
{
glyphname = Ntilde;
lastChange = "2016-09-23 08:41:16 +0000";
layers = (
{
layerId = UUID0;
paths = (
{
closed = 1;
nodes = (
"281 804 LINE SMOOTH",
"302 769 OFFCURVE",
"318 770 OFFCURVE",
"338 802 CURVE SMOOTH",
"369 849 OFFCURVE",
"401 815 OFFCURVE",
"401 789 CURVE SMOOTH",
"401 765 OFFCURVE",
"391 747 OFFCURVE",
"371 734 CURVE SMOOTH",
"352 721 OFFCURVE",
"333 715 OFFCURVE",
"314 715 CURVE SMOOTH",
"259 715 OFFCURVE",
"250 761 OFFCURVE",
"222 761 CURVE SMOOTH",
"218 761 OFFCURVE",
"210 753 OFFCURVE",
"197 738 CURVE SMOOTH",
"184 723 OFFCURVE",
"174 716 OFFCURVE",
"165 716 CURVE SMOOTH",
"148 716 OFFCURVE",
"131 734 OFFCURVE",
"131 761 CURVE SMOOTH",
"131 775 OFFCURVE",
"141 790 OFFCURVE",
"160 806 CURVE SMOOTH",
"180 822 OFFCURVE",
"199 830 OFFCURVE",
"216 830 CURVE SMOOTH",
"252 830 OFFCURVE",
"273 817 OFFCURVE",
"281 804 CURVE SMOOTH"
);
},
{
closed = 1;
nodes = (
"491 617 LINE",
"491 356 OFFCURVE",
"492 199 OFFCURVE",
"494 144 CURVE",
"497 90 OFFCURVE",
"498 62 OFFCURVE",
"498 61 CURVE SMOOTH",
"498 32 OFFCURVE",
"479 0 OFFCURVE",
"459 0 CURVE SMOOTH",
"433 0 OFFCURVE",
"423 2 OFFCURVE",
"412 13 CURVE SMOOTH",
"402 23 LINE SMOOTH",
"397 28 OFFCURVE",
"386 48 OFFCURVE",
"381 57 CURVE SMOOTH",
"368 81 LINE",
"363 93 OFFCURVE",
"350 117 OFFCURVE",
"331 153 CURVE SMOOTH",
"280 250 LINE",
"227 347 OFFCURVE",
"178 423 OFFCURVE",
"133 479 CURVE",
"133 262 OFFCURVE",
"127 112 OFFCURVE",
"115 28 CURVE SMOOTH",
"113 12 OFFCURVE",
"101 4 OFFCURVE",
"78 4 CURVE SMOOTH",
"57 4 OFFCURVE",
"41 14 OFFCURVE",
"41 38 CURVE SMOOTH",
"41 50 OFFCURVE",
"43 116 OFFCURVE",
"48 236 CURVE SMOOTH",
"53 356 OFFCURVE",
"56 431 OFFCURVE",
"56 460 CURVE SMOOTH",
"56 517 LINE SMOOTH",
"56 565 OFFCURVE",
"60 592 OFFCURVE",
"67 598 CURVE SMOOTH",
"74 604 OFFCURVE",
"82 607 OFFCURVE",
"90 607 CURVE SMOOTH",
"127 607 OFFCURVE",
"183 547 OFFCURVE",
"258 427 CURVE SMOOTH",
"273 404 OFFCURVE",
"301 355 OFFCURVE",
"342 280 CURVE SMOOTH",
"383 206 OFFCURVE",
"408 160 OFFCURVE",
"416 143 CURVE",
"404 558 LINE",
"404 615 OFFCURVE",
"410 648 OFFCURVE",
"423 656 CURVE",
"441 672 OFFCURVE",
"492 657 OFFCURVE",
"491 617 CURVE"
);
}
);
width = 532;
}
);
unicode = 00D1;
},
{
glyphname = O;
lastChange = "2016-09-23 08:41:16 +0000";
layers = (
{
layerId = UUID0;
paths = (
{
closed = 1;
nodes = (
"306 665 LINE SMOOTH",
"353 665 OFFCURVE",
"392 650 OFFCURVE",
"425 620 CURVE SMOOTH",
"489 563 OFFCURVE",
"521 472 OFFCURVE",
"521 348 CURVE SMOOTH",
"521 225 OFFCURVE",
"486 128 OFFCURVE",
"415 57 CURVE",
"378 22 OFFCURVE",
"336 2 OFFCURVE",
"288 -1 CURVE",
"225 -1 OFFCURVE",
"175 21 OFFCURVE",
"140 64 CURVE SMOOTH",
"69 151 OFFCURVE",
"42 265 OFFCURVE",
"42 365 CURVE SMOOTH",
"42 450 OFFCURVE",
"62 521 OFFCURVE",
"103 576 CURVE SMOOTH",
"146 635 OFFCURVE",
"213 665 OFFCURVE",
"306 665 CURVE SMOOTH"
);
},
{
closed = 1;
nodes = (
"299 582 LINE SMOOTH",
"210 582 OFFCURVE",
"154 540 OFFCURVE",
"132 455 CURVE",
"119 410 OFFCURVE",
"115 338 OFFCURVE",
"142 245 CURVE SMOOTH",
"160 182 OFFCURVE",
"187 138 OFFCURVE",
"222 113 CURVE SMOOTH",
"243 97 OFFCURVE",
"268 89 OFFCURVE",
"297 89 CURVE SMOOTH",
"326 89 OFFCURVE",
"353 102 OFFCURVE",
"376 128 CURVE SMOOTH",
"423 181 OFFCURVE",
"437 269 OFFCURVE",
"437 352 CURVE SMOOTH",
"437 499 OFFCURVE",
"399 582 OFFCURVE",
"299 582 CURVE SMOOTH"
);
}
);
width = 556;
}
);
unicode = 004F;
},
{
glyphname = Oacute;
lastChange = "2016-09-23 08:41:16 +0000";
layers = (
{
layerId = UUID0;
paths = (
{
closed = 1;
nodes = (
"299 860 LINE SMOOTH",
"307 883 OFFCURVE",
"340 881 OFFCURVE",
"355 865 CURVE SMOOTH",
"371 849 OFFCURVE",
"368 840 OFFCURVE",
"365 833 CURVE SMOOTH",
"354 803 OFFCURVE",
"336 775 OFFCURVE",
"311 748 CURVE SMOOTH",
"286 721 OFFCURVE",
"267 708 OFFCURVE",
"254 708 CURVE SMOOTH",
"216 708 OFFCURVE",
"199 743 OFFCURVE",
"230 768 CURVE SMOOTH",
"265 797 OFFCURVE",
"288 827 OFFCURVE",
"299 860 CURVE SMOOTH"
);
},
{
closed = 1;
nodes = (
"306 665 LINE SMOOTH",
"353 665 OFFCURVE",
"392 650 OFFCURVE",
"425 620 CURVE SMOOTH",
"489 563 OFFCURVE",
"521 472 OFFCURVE",
"521 348 CURVE SMOOTH",
"521 225 OFFCURVE",
"486 128 OFFCURVE",
"415 57 CURVE",
"378 22 OFFCURVE",
"336 2 OFFCURVE",
"288 -1 CURVE",
"225 -1 OFFCURVE",
"175 21 OFFCURVE",
"140 64 CURVE SMOOTH",
"69 151 OFFCURVE",
"42 265 OFFCURVE",
"42 365 CURVE SMOOTH",
"42 450 OFFCURVE",
"62 521 OFFCURVE",
"103 576 CURVE SMOOTH",
"146 635 OFFCURVE",
"213 665 OFFCURVE",
"306 665 CURVE SMOOTH"
);
},
{
closed = 1;
nodes = (
"299 582 LINE SMOOTH",
"210 582 OFFCURVE",
"154 540 OFFCURVE",
"132 455 CURVE",
"119 410 OFFCURVE",
"115 338 OFFCURVE",
"142 245 CURVE SMOOTH",
"160 182 OFFCURVE",
"187 138 OFFCURVE",
"222 113 CURVE SMOOTH",
"243 97 OFFCURVE",
"268 89 OFFCURVE",
"297 89 CURVE SMOOTH",
"326 89 OFFCURVE",
"353 102 OFFCURVE",
"376 128 CURVE SMOOTH",
"423 181 OFFCURVE",
"437 269 OFFCURVE",
"437 352 CURVE SMOOTH",
"437 499 OFFCURVE",
"399 582 OFFCURVE",
"299 582 CURVE SMOOTH"
);
}
);
width = 556;
}
);
unicode = 00D3;
},
{
glyphname = Obreve;
lastChange = "2016-09-23 08:41:16 +0000";
layers = (
{
layerId = UUID0;
paths = (
{
closed = 1;
nodes = (
"419 797 LINE",
"419 769 OFFCURVE",
"406 745 OFFCURVE",
"380 726 CURVE SMOOTH",
"355 707 OFFCURVE",
"326 697 OFFCURVE",
"293 697 CURVE SMOOTH",
"260 697 OFFCURVE",
"231 706 OFFCURVE",
"204 725 CURVE SMOOTH",
"178 744 OFFCURVE",
"165 768 OFFCURVE",
"165 798 CURVE SMOOTH",
"165 819 OFFCURVE",
"180 837 OFFCURVE",
"204 837 CURVE SMOOTH",
"216 837 OFFCURVE",
"225 830 OFFCURVE",
"232 816 CURVE SMOOTH",
"247 789 OFFCURVE",
"249 782 OFFCURVE",
"265 770 CURVE SMOOTH",
"273 765 OFFCURVE",
"283 762 OFFCURVE",
"296 762 CURVE SMOOTH",
"323 762 OFFCURVE",
"335 776 OFFCURVE",
"354 808 CURVE SMOOTH",
"385 857 OFFCURVE",
"421 825 OFFCURVE",
"419 797 CURVE"
);
},
{
closed = 1;
nodes = (
"306 665 LINE SMOOTH",
"353 665 OFFCURVE",
"392 650 OFFCURVE",
"425 620 CURVE SMOOTH",
"489 563 OFFCURVE",
"521 472 OFFCURVE",
"521 348 CURVE SMOOTH",
"521 225 OFFCURVE",
"486 128 OFFCURVE",
"415 57 CURVE",
"378 22 OFFCURVE",
"336 2 OFFCURVE",
"288 -1 CURVE",
"225 -1 OFFCURVE",
"175 21 OFFCURVE",
"140 64 CURVE SMOOTH",
"69 151 OFFCURVE",
"42 265 OFFCURVE",
"42 365 CURVE SMOOTH",
"42 450 OFFCURVE",
"62 521 OFFCURVE",
"103 576 CURVE SMOOTH",
"146 635 OFFCURVE",
"213 665 OFFCURVE",
"306 665 CURVE SMOOTH"
);
},
{
closed = 1;
nodes = (
"299 582 LINE SMOOTH",
"210 582 OFFCURVE",
"154 540 OFFCURVE",
"132 455 CURVE",
"119 410 OFFCURVE",
"115 338 OFFCURVE",
"142 245 CURVE SMOOTH",
"160 182 OFFCURVE",
"187 138 OFFCURVE",
"222 113 CURVE SMOOTH",
"243 97 OFFCURVE",
"268 89 OFFCURVE",
"297 89 CURVE SMOOTH",
"326 89 OFFCURVE",
"353 102 OFFCURVE",
"376 128 CURVE SMOOTH",
"423 181 OFFCURVE",
"437 269 OFFCURVE",
"437 352 CURVE SMOOTH",
"437 499 OFFCURVE",
"399 582 OFFCURVE",
"299 582 CURVE SMOOTH"
);
}
);
width = 556;
}
);
unicode = 014E;
},
{
glyphname = Ocaron;
lastChange = "2016-09-23 08:41:16 +0000";
layers = (
{
layerId = UUID0;
paths = (
{
closed = 1;
nodes = (
"381 850 LINE SMOOTH",
"402 850 OFFCURVE",
"416 831 OFFCURVE",
"415 810 CURVE SMOOTH",
"415 800 OFFCURVE",
"398 782 OFFCURVE",
"363 757 CURVE SMOOTH",
"328 732 OFFCURVE",
"304 719 OFFCURVE",
"290 719 CURVE SMOOTH",
"275 719 OFFCURVE",
"251 732 OFFCURVE",
"219 758 CURVE SMOOTH",
"187 785 OFFCURVE",
"171 806 OFFCURVE",
"171 821 CURVE SMOOTH",
"171 840 OFFCURVE",
"193 855 OFFCURVE",
"206 854 CURVE SMOOTH",
"213 854 OFFCURVE",
"226 846 OFFCURVE",
"246 831 CURVE SMOOTH",
"267 816 OFFCURVE",
"283 801 OFFCURVE",
"294 787 CURVE",
"336 829 OFFCURVE",
"365 850 OFFCURVE",
"381 850 CURVE SMOOTH"
);
},
{
closed = 1;
nodes = (
"306 665 LINE SMOOTH",
"353 665 OFFCURVE",
"392 650 OFFCURVE",
"425 620 CURVE SMOOTH",
"489 563 OFFCURVE",
"521 472 OFFCURVE",
"521 348 CURVE SMOOTH",
"521 225 OFFCURVE",
"486 128 OFFCURVE",
"415 57 CURVE",
"378 22 OFFCURVE",
"336 2 OFFCURVE",
"288 -1 CURVE",
"225 -1 OFFCURVE",
"175 21 OFFCURVE",
"140 64 CURVE SMOOTH",
"69 151 OFFCURVE",
"42 265 OFFCURVE",
"42 365 CURVE SMOOTH",
"42 450 OFFCURVE",
"62 521 OFFCURVE",
"103 576 CURVE SMOOTH",
"146 635 OFFCURVE",
"213 665 OFFCURVE",
"306 665 CURVE SMOOTH"
);
},
{
closed = 1;
nodes = (
"299 582 LINE SMOOTH",
"210 582 OFFCURVE",
"154 540 OFFCURVE",
"132 455 CURVE",
"119 410 OFFCURVE",
"115 338 OFFCURVE",
"142 245 CURVE SMOOTH",
"160 182 OFFCURVE",
"187 138 OFFCURVE",
"222 113 CURVE SMOOTH",
"243 97 OFFCURVE",
"268 89 OFFCURVE",
"297 89 CURVE SMOOTH",
"326 89 OFFCURVE",
"353 102 OFFCURVE",
"376 128 CURVE SMOOTH",
"423 181 OFFCURVE",
"437 269 OFFCURVE",
"437 352 CURVE SMOOTH",
"437 499 OFFCURVE",
"399 582 OFFCURVE",
"299 582 CURVE SMOOTH"
);
}
);
width = 556;
}
);
unicode = 01D1;
},
{
glyphname = Ocircumflex;
lastChange = "2016-09-23 08:41:16 +0000";
layers = (
{
layerId = UUID0;
paths = (
{
closed = 1;
nodes = (
"417 754 LINE SMOOTH",
"417 745 OFFCURVE",
"413 737 OFFCURVE",
"405 730 CURVE SMOOTH",
"397 723 OFFCURVE",
"390 720 OFFCURVE",
"385 720 CURVE SMOOTH",
"380 720 OFFCURVE",
"366 731 OFFCURVE",
"341 752 CURVE SMOOTH",
"316 773 OFFCURVE",
"301 784 OFFCURVE",
"295 784 CURVE SMOOTH",
"289 784 OFFCURVE",
"275 773 OFFCURVE",
"252 751 CURVE SMOOTH",
"230 729 OFFCURVE",
"214 718 OFFCURVE",
"205 718 CURVE SMOOTH",
"196 718 OFFCURVE",
"188 722 OFFCURVE",
"181 729 CURVE",
"175 737 OFFCURVE",
"172 746 OFFCURVE",
"172 756 CURVE SMOOTH",
"172 767 OFFCURVE",
"189 785 OFFCURVE",
"223 812 CURVE SMOOTH",
"257 839 OFFCURVE",
"281 852 OFFCURVE",
"296 852 CURVE SMOOTH",
"311 852 OFFCURVE",
"335 839 OFFCURVE",
"368 814 CURVE SMOOTH",
"401 789 OFFCURVE",
"417 769 OFFCURVE",
"417 754 CURVE SMOOTH"
);
},
{
closed = 1;
nodes = (
"306 665 LINE SMOOTH",
"353 665 OFFCURVE",
"392 650 OFFCURVE",
"425 620 CURVE SMOOTH",
"489 563 OFFCURVE",
"521 472 OFFCURVE",
"521 348 CURVE SMOOTH",
"521 225 OFFCURVE",
"486 128 OFFCURVE",
"415 57 CURVE",
"378 22 OFFCURVE",
"336 2 OFFCURVE",
"288 -1 CURVE",
"225 -1 OFFCURVE",
"175 21 OFFCURVE",
"140 64 CURVE SMOOTH",
"69 151 OFFCURVE",
"42 265 OFFCURVE",
"42 365 CURVE SMOOTH",
"42 450 OFFCURVE",
"62 521 OFFCURVE",
"103 576 CURVE SMOOTH",
"146 635 OFFCURVE",
"213 665 OFFCURVE",
"306 665 CURVE SMOOTH"
);
},
{
closed = 1;
nodes = (
"299 582 LINE SMOOTH",
"210 582 OFFCURVE",
"154 540 OFFCURVE",
"132 455 CURVE",
"119 410 OFFCURVE",
"115 338 OFFCURVE",
"142 245 CURVE SMOOTH",
"160 182 OFFCURVE",
"187 138 OFFCURVE",
"222 113 CURVE SMOOTH",
"243 97 OFFCURVE",
"268 89 OFFCURVE",
"297 89 CURVE SMOOTH",
"326 89 OFFCURVE",
"353 102 OFFCURVE",
"376 128 CURVE SMOOTH",
"423 181 OFFCURVE",
"437 269 OFFCURVE",
"437 352 CURVE SMOOTH",
"437 499 OFFCURVE",
"399 582 OFFCURVE",
"299 582 CURVE SMOOTH"
);
}
);
width = 556;
}
);
unicode = 00D4;
},
